<?xml version="1.0" encoding="UTF-8" standalone="no"?>
<!-- Created with Inkscape (http://www.inkscape.org/) -->

<svg
   xmlns:i="http://ns.adobe.com/AdobeIllustrator/10.0/"
   xmlns:dc="http://purl.org/dc/elements/1.1/"
   xmlns:cc="http://creativecommons.org/ns#"
   xmlns:rdf="http://www.w3.org/1999/02/22-rdf-syntax-ns#"
   xmlns:svg="http://www.w3.org/2000/svg"
   xmlns="http://www.w3.org/2000/svg"
   xmlns:sodipodi="http://sodipodi.sourceforge.net/DTD/sodipodi-0.dtd"
   xmlns:inkscape="http://www.inkscape.org/namespaces/inkscape"
   width="900"
   height="600.00031"
   id="svg3374"
   version="1.1"
   inkscape:version="0.48.2 r9819"
   sodipodi:docname="Flag of Kyiv Kurovskyi.svg"
   inkscape:export-filename="C:\Documents and Settings\Владелец\Мои документы\Kyiv\Flag of Kyiv Kurovskyi.png"
   inkscape:export-xdpi="90"
   inkscape:export-ydpi="90">
  <defs
     id="defs3376" />
  <sodipodi:namedview
     id="base"
     pagecolor="#ffffff"
     bordercolor="#666666"
     borderopacity="1.0"
     inkscape:pageopacity="0.0"
     inkscape:pageshadow="2"
     inkscape:zoom="1"
     inkscape:cx="478.43478"
     inkscape:cy="306.55567"
     inkscape:document-units="px"
     inkscape:current-layer="layer1"
     showgrid="false"
     inkscape:window-width="1280"
     inkscape:window-height="911"
     inkscape:window-x="-4"
     inkscape:window-y="-4"
     inkscape:window-maximized="1"
     fit-margin-top="0"
     fit-margin-left="0"
     fit-margin-right="0"
     fit-margin-bottom="0" />
  <metadata
     id="metadata3379">
    <rdf:RDF>
      <cc:Work
         rdf:about="">
        <dc:format>image/svg+xml</dc:format>
        <dc:type
           rdf:resource="http://purl.org/dc/dcmitype/StillImage" />
        <dc:title />
      </cc:Work>
    </rdf:RDF>
  </metadata>
  <g
     inkscape:label="Layer 1"
     inkscape:groupmode="layer"
     id="layer1"
     transform="translate(60.985982,-133.06013)">
    <g
       id="g3116"
       transform="matrix(0.9,0,0,0.9,-6.0985982,73.306043)">
      <g
         transform="translate(3.871165,-5.1116101)"
         id="g5059">
        <rect
           style="fill:#d4af37;fill-opacity:1;stroke:none"
           id="rect4391"
           width="1000"
           height="666.66699"
           x="-64.857147"
           y="71.505043" />
        <rect
           style="fill:#005bbb;fill-opacity:1;stroke:none"
           id="rect4391-1"
           width="950"
           height="616.66699"
           x="-38.631287"
           y="95.040932" />
        <g
           transform="matrix(1.4996904,0,0,1.4996904,192.17959,63.184117)"
           id="g3881">
          <g
             id="g4091">
            <g
               id="g3956"
               transform="matrix(0.68808975,0,0,0.68808975,-4.6038559,-12.085824)">
              <g
                 id="g4192">
                <g
                   id="g4065">
                  <path
                     sodipodi:nodetypes="ssccsccss"
                     id="path19-4"
                     d="m 276.15314,72.952374 c -32.49122,-0.25 -50.43457,23.672486 -51.15625,49.718746 -0.7771,28.04675 13.17437,42.93484 32.96875,47.96875 0.66932,-2.47415 0.77257,-5.15677 0.82536,-9.06887 -29.25727,-7.32691 -17.34495,-63.937153 14.87553,-63.850773 28.39958,0.0761 45.64891,53.064513 14.26747,64.069773 0.0844,3.98261 0.47628,6.75946 1.369,9.31862 21.3266,-4.74298 35.04196,-20.70742 35.25639,-48.1875 0.1994,-25.55479 -18.92314,-49.741892 -48.40625,-49.968746 z"
                     style="fill:#d4af37;fill-rule:evenodd;stroke:#000000;stroke-width:1.07673991;stroke-opacity:1"
                     inkscape:connector-curvature="0" />
                  <path
                     sodipodi:nodetypes="sssss"
                     style="fill:#d4af37;fill-rule:evenodd;stroke:#000000;stroke-width:1.07673991;stroke-opacity:1"
                     inkscape:connector-curvature="0"
                     id="path21"
                     d="m 275.42138,77.155908 c 25.9283,0 46.0697,21.344073 46.0697,47.210482 0,25.86031 -20.8914,45.20439 -46.8197,45.20439 -25.92916,0 -46.07658,-16.59408 -46.07658,-45.70439 0,-25.866409 20.89742,-46.710482 46.82658,-46.710482 z"
                     clip-rule="evenodd"
                     i:knockout="Off" />
                </g>
                <path
                   i:knockout="Off"
                   clip-rule="evenodd"
                   stroke-miterlimit="2.6131"
                   d="m 251.91276,181.90441 c 7.25194,-4.9388 8.58724,-9.55992 9.08724,-17.38333 8.1122,6.35217 18.40986,5.38889 25,1.16667 0.80491,8.87207 3.3607,12.77424 10.27432,15.85003 -1.19186,7.91684 -42.25314,8.40173 -44.36156,0.36663 z"
                   id="path25"
                   inkscape:connector-curvature="0"
                   style="fill:#ffffff;fill-rule:evenodd;stroke:none"
                   sodipodi:nodetypes="ccccc" />
                <path
                   i:knockout="Off"
                   clip-rule="evenodd"
                   d="m 378.61454,305.66609 c 0,-1.21118 -0.0117,-9.60957 1.91719,-9.56684 4.61898,0.0919 2.09527,31.92447 2.42881,37.51596 0.32089,5.55435 -0.51162,6.97358 -4.66689,7.07111 -9.44134,0.22013 -3.77382,-27.71599 -5.917,-43.83473 -0.38145,-2.80132 2.39265,-1.8595 3.02449,-1.34586 2.19017,1.7982 1.39292,28.74326 2.17842,28.81107 1.23836,0.10402 1.2022,-14.71716 1.03498,-18.65071 z"
                   id="path93"
                   inkscape:connector-curvature="0"
                   style="fill:#ffffff;fill-rule:evenodd" />
                <path
                   i:knockout="Off"
                   clip-rule="evenodd"
                   d="m 325.76491,181.2 13.64441,-17.151 c -16.05415,-38.33739 -2.16016,-103.581161 41.44452,-82.684256 71.6907,37.897476 39.25279,205.591706 41.29912,263.879206 2.00123,57.003 6.59646,119.27826 19.66971,164.32324 -3.75032,-1.62729 -11.38245,-0.45702 -13.02485,-0.45702 1.14254,14.58247 6.80937,28.44776 9.0357,38.38149 -16.54791,-0.23303 -31.43021,-21.87773 -37.9166,-38.2695 l -5.85103,5.37022 -0.94389,-6.62571 6.71133,-6.1 C 385.53242,469.83555 375.26667,450.07957 368.6,333.57956 381.5388,314.49898 385.36549,292.08475 381.57172,252.36806 378.32998,218.43058 371.36047,179.83248 325.76491,181.2 z"
                   id="path73"
                   inkscape:connector-curvature="0"
                   style="fill:#d4af37;fill-rule:evenodd;stroke:#000000;stroke-width:1.07673991;stroke-opacity:1"
                   sodipodi:nodetypes="cccsccccccccsc" />
                <path
                   i:knockout="Off"
                   clip-rule="evenodd"
                   d="m 395.23307,279.20016 c -2.40714,0.37471 -0.57484,-15.94706 -1.26637,-30.47222 l -4.94744,0.84521 c 0.76666,33.2799 -3.70849,54.43304 6.48238,53.02282 8.91718,-1.23397 6.22443,-12.36373 6.98206,-55.08934 l -5.10732,0.99025 c -0.53473,16.53273 1.57268,30.12483 -2.14331,30.70328 z"
                   id="path65"
                   inkscape:connector-curvature="0"
                   style="fill:#ffffff;fill-rule:evenodd;stroke:#000000;stroke-width:1.07673991;stroke-opacity:1"
                   sodipodi:nodetypes="sccsccs" />
                <path
                   i:knockout="Off"
                   clip-rule="evenodd"
                   d="m 185.60338,245.15276 c -63.29524,66.3451 -38.42963,23.94555 -65.4355,51.0397 -8.10005,8.12653 -2.31403,17.21565 7.00577,24.5058 10.97651,8.58608 15.82941,0.28936 20.14027,-7.88067 5.00191,-2.70995 7.05638,-6.13177 8.31638,-11.17543 8.96264,-5.33194 16.39012,-8.25711 27.4697,-17.14216 -0.36239,13.07371 -6.5125,124.83377 -8.44798,138.5291 3.79904,36.33609 15.00234,69.63713 33.93008,104.33652 l 9.16339,9.3636 c 0.42586,15.00395 1.55411,28.91466 1.9433,33.16146 2.48246,27.08811 -27.83055,19.52113 -28.47429,52.9755 41.33965,-4.26573 28.21599,-11.04442 51.16725,-24.74284 17.60908,-10.50995 1.21277,-16.28072 6.95158,-43.60346 12.61946,6.45671 32.15391,7.50413 40.66667,6.56534 0.28699,8.91422 -10.51152,21.71986 5.39295,30.08793 9.82164,5.16762 12.79215,29.17552 46.22977,23.74218 C 342.54656,587.97576 315.06555,597.17697 314,555.81796 326.02766,553.26238 372.98998,527.41867 400.27272,502.11712 383.91797,467.87678 376.79591,449.93537 368.9,333.72596 c 15.69877,-26.07972 16.05294,-49.39062 13.85629,-81.12957 -15.13713,-121.57214 -93.85774,-37.67017 -94.98535,-90.88397 31.38144,-11.00526 14.29862,-63.743181 -14.10096,-63.819322 -32.22048,-0.08638 -43.77535,56.337322 -14.73237,63.592802 -0.64615,47.88326 -50.6007,-24.19553 -73.33423,83.66686 z"
                   id="path101"
                   inkscape:connector-curvature="0"
                   style="fill:#000000;fill-rule:evenodd"
                   sodipodi:nodetypes="cssccccccscsccsccccccscc" />
                <path
                   i:knockout="Off"
                   clip-rule="evenodd"
                   d="m 363.16971,195.11689 c 3.22777,4.26955 5.42143,7.00988 8.2408,12.09624 11.07693,0.92307 3.31712,-30.49096 -4.38097,-67.35594 l -2.41328,6.19087 c 5.1815,29.43475 7.934,41.93563 4.31179,42.76109 -2.04542,0.46613 -3.83347,-20.51293 -6.72917,-37.88449 l -3.44498,10.60989 c 4.73781,28.90646 4.41581,33.58234 4.41581,33.58234 z"
                   id="path57"
                   inkscape:connector-curvature="0"
                   style="fill:#ffffff;fill-rule:evenodd;stroke:#000000;stroke-width:1.07673991;stroke-linejoin:round;stroke-opacity:1"
                   sodipodi:nodetypes="ccccsccc" />
                <path
                   i:knockout="Off"
                   clip-rule="evenodd"
                   d="m 369.45911,134.84196 c 9.67064,34.78762 14.86901,56.00606 21.86984,51.62752 12.53355,-7.83888 -0.12046,-42.79462 -16.15366,-65.26692 l -2.21918,4.83867 c 5.19529,11.16388 17.22419,40.77068 13.67149,42.59737 -1.73747,0.89335 -8.31421,-22.8083 -14.98531,-39.23502 z"
                   id="path71"
                   inkscape:connector-curvature="0"
                   style="fill:#ffffff;fill-rule:evenodd;stroke:#000000;stroke-width:1.07673991;stroke-linejoin:round;stroke-opacity:1"
                   sodipodi:nodetypes="csccscc" />
                <path
                   i:knockout="Off"
                   clip-rule="evenodd"
                   d="m 398.97412,374.22641 c -8.36505,1.08849 -9.39509,-19.28634 -10.44064,-63.47311 l 4.31062,-0.85792 c 0.77978,11.20046 -0.55993,34.53764 2.58281,34.22797 3.68638,-0.36324 2.23262,-14.55423 1.77368,-34.99714 l 4.72077,-1.04309 c 0.61863,42.86671 5.32733,65.06658 -2.94724,66.14329 z"
                   id="path83"
                   inkscape:connector-curvature="0"
                   style="fill:#ffffff;fill-rule:evenodd;stroke:#000000;stroke-width:1.07673991;stroke-opacity:1"
                   sodipodi:nodetypes="sccsccs" />
                <path
                   i:knockout="Off"
                   clip-rule="evenodd"
                   d="m 381.03345,386.23861 c -2.11444,-0.008 -1.96162,-23.34214 -3.09398,-32.67456 l -4.40582,0.5925 c 4.46197,55.67647 3.93585,64.56804 10.23845,64.2063 8.13917,-0.46714 5.47938,-8.79211 1.5998,-65.59728 l -4.35089,0.26731 c 0.55561,11.24836 3.07015,33.21671 0.0124,33.20573 z"
                   id="path85"
                   inkscape:connector-curvature="0"
                   style="fill:#ffffff;fill-rule:evenodd;stroke:#000000;stroke-width:1.07673991;stroke-opacity:1"
                   sodipodi:nodetypes="sccsccs" />
                <path
                   i:knockout="Off"
                   clip-rule="evenodd"
                   d="m 385.8418,456.73064 7.78102,25.02643 c 4.321,-2.26036 4.05508,-7.60362 -6.03387,-56.97404 l -4.87159,0.96045 c 3.27268,16.61549 7.01797,30.00702 3.12444,30.98716 z"
                   id="path89"
                   inkscape:connector-curvature="0"
                   style="fill:#ffffff;fill-rule:evenodd;stroke:#000000;stroke-width:1.07673991;stroke-opacity:1"
                   sodipodi:nodetypes="ccccc" />
                <path
                   i:knockout="Off"
                   clip-rule="evenodd"
                   d="m 376.59003,317.58038 c 1.28235,-3.04124 2.91524,-9.3377 4.49262,-13.8541 2.29686,29.64139 2.87765,42.03617 -3.51444,43.09711 -6.88444,1.14266 -5.79493,-7.05824 -6.81817,-16.2298 l 3.08221,-6.79175 c 1.08727,2.74108 0.483,8.76502 2.16773,7.98041 2.11725,-0.98605 1.01941,-11.35039 0.59005,-14.20187 z"
                   id="path97"
                   inkscape:connector-curvature="0"
                   style="fill:#ffffff;fill-rule:evenodd;stroke:#000000;stroke-width:1.07673991;stroke-opacity:1"
                   sodipodi:nodetypes="ccsccsc" />
                <path
                   i:knockout="Off"
                   clip-rule="evenodd"
                   d="m 219.045,247.419 c 0,0 0.0313,2.12713 2.86462,2.46046 -0.66667,19.83334 3.12011,34.55682 -0.30938,45.20549 -5.87602,18.24516 -11.44262,36.50156 -19.69857,139.30191 -0.74029,9.21785 8.96999,11.73068 12.14847,13.43361 3.05149,26.0627 6.46274,18.68825 6.30158,25.27318 -0.0889,3.63314 -3.29123,-3.1901 -2.41271,60.40635 l -7.97328,-8.10313 C 191.85295,493.67683 180.36145,456.65966 176.8,423.47357 c 4.90532,-61.14153 6.68875,-103.75571 8.35547,-140.57357 9.75773,-6.07917 18.53789,-12.61642 26.10498,-19.14093 3.81134,-7.17687 6.15411,-11.04039 7.78455,-16.34007 z"
                   id="path99"
                   inkscape:connector-curvature="0"
                   style="fill:#f2016c;fill-opacity:1;fill-rule:evenodd"
                   sodipodi:nodetypes="ccsscscccccc" />
                <path
                   i:knockout="Off"
                   clip-rule="evenodd"
                   stroke-miterlimit="2.6131"
                   d="m 253.41335,492.36398 c 3.19326,21.07263 -22.92185,33.56148 -33.41335,25.16149 -1.0941,-18.61547 0.73333,-35.88198 0.73333,-35.88198 18.61229,-4.92465 -1.64458,2.98979 -4.13333,-33.26849 12.21857,3.69702 21.2395,3.7686 35.6527,3.825 4.15682,18.04287 -11.96956,26.99064 1.16065,40.16398 z"
                   id="path105"
                   inkscape:connector-curvature="0"
                   style="fill:#ffffff;fill-rule:evenodd;stroke:none"
                   sodipodi:nodetypes="cccccc" />
                <path
                   i:knockout="Off"
                   clip-rule="evenodd"
                   stroke-miterlimit="2.6131"
                   d="m 219.94572,521 c 0,0 0.45428,24.64207 0.45428,26 10.95689,7.76094 23.58998,-0.18945 27.02997,-5.43333 0.23524,-13.67271 5.84686,-23.75919 4.54836,-32.06667 -3.96104,6.51046 -19.06788,18.6786 -32.03261,11.5 z"
                   id="path107"
                   inkscape:connector-curvature="0"
                   style="fill:#ffffff;fill-rule:evenodd;stroke:none"
                   sodipodi:nodetypes="ccccc" />
                <path
                   i:knockout="Off"
                   clip-rule="evenodd"
                   stroke-miterlimit="2.6131"
                   d="m 247.53333,544.66667 c -6.97035,8.40941 -17.65872,10.02734 -27.03333,5.84931 0.57547,8.46722 1.42143,17.51185 1.5,25.28357 6.3694,3.27049 20.35573,-2.61926 23.7,-7.53289 0.041,-8.46203 2.0152,-15.091 1.83333,-23.59999 z"
                   id="path109"
                   inkscape:connector-curvature="0"
                   style="fill:#ffffff;fill-rule:evenodd;stroke:none"
                   sodipodi:nodetypes="ccccc" />
                <path
                   i:knockout="Off"
                   clip-rule="evenodd"
                   stroke-miterlimit="2.6131"
                   d="m 245.99585,571.70928 c -4.75583,3.5375 -9.34448,8.78591 -24.41223,7.42491 -4.13715,17.87819 -25.71018,17.58625 -27.98402,40.66581 34.63933,-1.63995 28.91955,-14.8509 46.39167,-23.3 13.05888,-6.31497 7.17136,-13.22234 6.00458,-24.79072 z"
                   id="path111"
                   inkscape:connector-curvature="0"
                   style="fill:#ffffff;fill-rule:evenodd;stroke:none"
                   sodipodi:nodetypes="cccsc" />
                <path
                   style="fill:#ffffff;fill-rule:evenodd"
                   d="m 311.9375,449 c -8.23247,2.42332 -17.64252,3.23373 -35.5,3.2 -2.23195,23.61421 7.61801,19.76428 5.53125,28.45625 -6.15813,25.65045 21.51763,30.31948 31.09375,17.34375 1.90031,-9.87564 1.19519,-20.38912 -1.125,-49 z m -5.90625,25.4375 c 0.88315,2.63854 -6.2563,16.63064 -11.34375,1.09375 2.72294,1.29093 8.99896,0.28918 11.34375,-1.09375 z"
                   id="path115"
                   inkscape:connector-curvature="0"
                   sodipodi:nodetypes="ccsccccc" />
                <path
                   i:knockout="Off"
                   clip-rule="evenodd"
                   d="m 282.46403,499.7695 c -0.42035,8.8239 -0.73141,13.38804 0.39967,22.6333 2.45519,20.06838 22.87093,17.2072 30.56176,8.93795 L 313,501.20081 c -3.19681,6.50531 -22.60714,10.65338 -30.53597,-1.43131 z"
                   id="path117"
                   inkscape:connector-curvature="0"
                   style="fill:#ffffff;fill-rule:evenodd"
                   sodipodi:nodetypes="csccc" />
                <path
                   i:knockout="Off"
                   clip-rule="evenodd"
                   d="m 291.8,558.20992 c -2.04372,-7.74781 -3.14784,-11.22661 -4.27039,-21.71801 8.63179,5.5394 16.14906,5.38749 25.88867,-1.89083 0.39546,8.5416 -1.55297,23.8815 -1.55297,23.8815 -5.86084,4.9184 -12.87137,4.14066 -20.06531,-0.27266 z"
                   id="path119"
                   inkscape:connector-curvature="0"
                   style="fill:#ffffff;fill-rule:evenodd"
                   sodipodi:nodetypes="ccccc" />
                <path
                   i:knockout="Off"
                   clip-rule="evenodd"
                   d="m 312.13261,561.34376 c 3.62689,36.91621 28.90302,31.64815 27.36739,50.95986 -29.17722,4.20934 -32.73839,-17.83808 -42.65951,-23.17087 C 281.87544,581.08875 292.42452,573.0647 292,561.5 c 8.0872,4.84913 13.99564,3.79623 20.13261,-0.15624 z"
                   id="path121"
                   inkscape:connector-curvature="0"
                   style="fill:#ffffff;fill-rule:evenodd"
                   sodipodi:nodetypes="ccscc" />
                <path
                   style="fill:#ffffff;fill-rule:evenodd"
                   d="m 249.36458,193.14583 c -1.84808,1.75701 -4.1535,2.43476 -8.63541,2.72917 0.10363,8.93746 -1.18294,20.53378 -3.43649,27.63768 0.89973,4.43725 -0.41775,7.27911 -3.39268,22.48732 -0.72253,3.69364 -2.44518,4.61663 -9.91042,4.067 0.49503,11.71075 0.80214,26.21363 0.94792,36.40175 36.09834,0.0486 21.38938,7.03718 65.0625,7.25 -1.03278,-6.22352 -1.92467,-14.40609 -2.25977,-23.54389 -4.41449,1.28936 -8.75994,3.88764 -14.63606,3.88764 -17.76618,0 -33.75,-12.47114 -33.75,-30.42708 0,-17.94956 13.98382,-31.92709 31.75,-31.92709 6.3706,0 11.61715,2.05933 11.61715,2.05933 -9.35772,-6.19787 -18.85088,-13.66897 -33.35674,-20.62183 z"
                   id="path127"
                   inkscape:connector-curvature="0"
                   sodipodi:nodetypes="cccsccccssscc" />
                <path
                   i:knockout="Off"
                   clip-rule="evenodd"
                   d="m 290.5,296.375 1.9,8.101 c -37.25695,6.22231 -29.46147,-8.58687 -68.72154,-8.275 l 1.29161,-6.59459 c 30.59105,0.0278 26.90175,6.78457 65.52993,6.76859 z"
                   id="path129"
                   inkscape:connector-curvature="0"
                   style="fill:#ffffff;fill-rule:evenodd"
                   sodipodi:nodetypes="ccccc" />
                <path
                   i:knockout="Off"
                   clip-rule="evenodd"
                   d="m 222.85792,298.64729 -2.4167,10.34228 c 10.56898,-1.49001 22.85453,10.72408 34.17523,20.15427 10.67055,8.88861 38.49725,4.62563 44.18355,-6.17867 -2.82766,-4.76897 -4.95359,-12.52972 -5.8,-15.78857 -45.18529,6.09229 -23.63931,-7.90334 -70.14208,-8.52931 z"
                   id="path131"
                   inkscape:connector-curvature="0"
                   style="fill:#ffffff;fill-rule:evenodd"
                   sodipodi:nodetypes="ccsccc" />
                <path
                   i:knockout="Off"
                   clip-rule="evenodd"
                   d="m 276.42133,335.94754 c -8.96537,1.28373 -15.13615,-1.15865 -21.52133,-3.31518 -4,29.5 -4.87936,45.79201 -6.55238,86.39388 -0.20799,5.04768 29.65564,4.0009 29.65165,-0.0101 -0.26313,-28.32939 -0.21923,-55.50366 -1.57794,-83.0686 z"
                   id="path133"
                   inkscape:connector-curvature="0"
                   style="fill:#ffffff;fill-rule:evenodd"
                   sodipodi:nodetypes="ccscc" />
                <path
                   i:knockout="Off"
                   clip-rule="evenodd"
                   d="m 233.45395,315.87787 c 0,0 -13.09593,-9.4928 -14.45395,-1.98478 -5.67927,29.18219 -8.82706,53.50556 -12.5,95.68867 -0.74392,3.63261 16.82346,9.43821 17.09549,5.68343 3.91089,-53.98035 9.85846,-99.38732 9.85846,-99.38732 z"
                   id="path135"
                   inkscape:connector-curvature="0"
                   style="fill:#ffffff;fill-rule:evenodd"
                   sodipodi:nodetypes="cccsc" />
                <path
                   i:knockout="Off"
                   clip-rule="evenodd"
                   d="m 246.14478,428.43288 c -4.4168,2.28838 -13.85917,2.1177 -20.324,-1.7541 -0.45195,6.10735 -0.45278,10.27775 -0.73828,18.74175 -1.71176,4.38421 20.90679,5.21547 21.39471,2.59107 -0.21937,-6.11345 -0.45196,-12.63757 -0.33243,-19.57872 z"
                   id="path137"
                   inkscape:connector-curvature="0"
                   style="fill:#ffffff;fill-rule:evenodd"
                   sodipodi:nodetypes="ccccc" />
                <path
                   i:knockout="Off"
                   clip-rule="evenodd"
                   d="m 279.03495,336 c 5.45176,-0.56867 12.86628,-3.52392 16.62082,-6.59693 0,0 9.39314,62.0132 10.69116,89.12359 0.54777,4.01251 -24.57894,5.6009 -25.24693,0.43759 C 280.14797,392.02052 279.03495,336 279.03495,336 z"
                   id="path139"
                   inkscape:connector-curvature="0"
                   style="fill:#ffffff;fill-rule:evenodd"
                   sodipodi:nodetypes="ccccc" />
                <path
                   i:knockout="Off"
                   clip-rule="evenodd"
                   d="m 297.50156,327.68879 2.13414,-2.65973 c 4.40625,10.0345 11.47499,18.19543 17.39991,22.98761 0,0 4.97893,39.2571 7.69337,65.25477 0.64268,3.21744 -15.20314,8.33625 -15.92898,5.08167 -2.22709,-26.66527 -11.29844,-90.66432 -11.29844,-90.66432 z"
                   id="path141"
                   inkscape:connector-curvature="0"
                   style="fill:#ffffff;fill-rule:evenodd"
                   sodipodi:nodetypes="cccccc" />
                <path
                   i:knockout="Off"
                   clip-rule="evenodd"
                   d="m 222.85075,425.97297 c -10.22973,-0.92866 -14.27865,-6.16669 -16.86488,-11.98571 -1.00627,9.35071 -1.53552,16.29926 -1.58309,23.28833 -0.0252,3.70883 17.98442,12.54247 18.04321,8.04179 0.10567,-8.08918 0.0652,-11.82889 0.40476,-19.34441 z"
                   id="path143"
                   inkscape:connector-curvature="0"
                   style="fill:#ffffff;fill-rule:evenodd"
                   sodipodi:nodetypes="ccssc" />
                <path
                   i:knockout="Off"
                   clip-rule="evenodd"
                   d="m 278.08786,428.69242 c -2.66283,6.01429 -26.39066,6.48758 -29.33042,-0.81342 -0.19128,6.70689 0.0422,12.97344 0.60735,19.18246 0.38643,4.24536 29.39085,3.59472 29.29349,0.44542 -0.21361,-6.91022 -0.24279,-10.9718 -0.57042,-18.81446 z"
                   id="path145"
                   inkscape:connector-curvature="0"
                   style="fill:#ffffff;fill-rule:evenodd"
                   sodipodi:nodetypes="ccssc" />
                <path
                   i:knockout="Off"
                   clip-rule="evenodd"
                   d="m 281.32101,429.21969 c 2.88104,4.29624 26.56183,2.86746 26.76362,-1.32651 1.40488,7.15656 1.33351,9.39447 2.29826,17.03988 1.52399,2.23845 -20.41843,6.23825 -28.34772,3.20018 -0.63762,-6.75251 -0.39336,-11.81673 -0.71416,-18.91355 z"
                   id="path147"
                   inkscape:connector-curvature="0"
                   style="fill:#ffffff;fill-rule:evenodd"
                   sodipodi:nodetypes="ccccc" />
                <path
                   i:knockout="Off"
                   clip-rule="evenodd"
                   d="m 310.45388,426.76488 c 3.65232,2.19184 15.03899,-4.40645 15.15634,-8.67024 0.97616,4.94228 2.17919,12.50401 2.48903,17.66057 -3.20263,3.42863 -8.47736,8.6288 -15.12061,8.87983 -0.94097,-6.75252 -1.58386,-11.10667 -2.52476,-17.87016 z"
                   id="path149"
                   inkscape:connector-curvature="0"
                   style="fill:#ffffff;fill-rule:evenodd"
                   sodipodi:nodetypes="ccccc" />
                <path
                   i:knockout="Off"
                   clip-rule="evenodd"
                   d="m 252.6866,331.02812 c -3,-2.16667 -8.8729,-10.07274 -17.1866,-13.88742 -3.85116,29.54545 -6.72765,62.63695 -8.93383,98.81844 -0.23824,3.90712 18.96324,7.19299 19.20349,1.87893 1.63328,-36.12631 3.41694,-62.47661 6.91694,-86.80995 z"
                   id="path151"
                   inkscape:connector-curvature="0"
                   style="fill:#ffffff;fill-rule:evenodd"
                   sodipodi:nodetypes="ccssc" />
                <g
                   id="g3775"
                   transform="matrix(0.88560813,0,0,0.91031364,30.063714,4.7491218)">
                  <path
                     style="fill:#ffffff;fill-rule:evenodd"
                     inkscape:connector-curvature="0"
                     id="path157"
                     d="m 270.853,248.52 c 3.174,0 6.15,-3.088 5.413,-8.601 -0.698,-5.196 -3.629,-9.641 -5.413,-10.056 -2.075,0.52 -4.814,5.051 -5.407,10.056 -0.653,5.519 2.239,8.601 5.407,8.601 z"
                     clip-rule="evenodd"
                     i:knockout="Off" />
                  <path
                     style="fill:#ffffff;fill-rule:evenodd"
                     inkscape:connector-curvature="0"
                     id="path159"
                     d="m 257.352,261.796 c 0,-3.122 -3.142,-6.045 -8.753,-5.321 -5.281,0.685 -9.813,3.57 -10.228,5.321 0.527,2.042 5.137,4.735 10.228,5.321 5.618,0.64 8.753,-2.199 8.753,-5.321 z"
                     clip-rule="evenodd"
                     i:knockout="Off" />
                  <path
                     style="fill:#ffffff;fill-rule:evenodd"
                     inkscape:connector-curvature="0"
                     id="path161"
                     d="m 270.853,275.073 c -3.168,0 -6.145,3.089 -5.407,8.601 0.698,5.196 3.622,9.648 5.407,10.057 2.074,-0.521 4.813,-5.045 5.413,-10.057 0.652,-5.518 -2.24,-8.601 -5.413,-8.601 z"
                     clip-rule="evenodd"
                     i:knockout="Off" />
                  <path
                     style="fill:#ffffff;fill-rule:evenodd"
                     inkscape:connector-curvature="0"
                     id="path163"
                     d="m 284.359,261.796 c -0.16022,3.11811 2.57042,6.046 7.24044,5.321 l 0.94098,-10.635 c 0,0 -7.80503,-2.011 -8.18142,5.314 z"
                     clip-rule="evenodd"
                     i:knockout="Off"
                     sodipodi:nodetypes="sccs" />
                  <path
                     style="fill:#ffffff;fill-rule:evenodd"
                     inkscape:connector-curvature="0"
                     id="path165"
                     d="m 261.303,252.405 c 2.246,-2.206 2.127,-6.454 -2.364,-9.839 -4.222,-3.188 -9.496,-4.3 -11.051,-3.352 -1.093,1.811 0.224,6.922 3.405,10.873 3.51,4.36 7.765,4.531 10.01,2.318 z"
                     clip-rule="evenodd"
                     i:knockout="Off" />
                  <path
                     style="fill:#ffffff;fill-rule:evenodd"
                     inkscape:connector-curvature="0"
                     id="path167"
                     d="m 261.303,271.181 c -2.245,-2.206 -6.565,-2.087 -10.01,2.325 -3.247,4.156 -4.373,9.339 -3.405,10.873 1.838,1.074 7.033,-0.224 11.051,-3.352 4.438,-3.451 4.61,-7.639 2.364,-9.846 z"
                     clip-rule="evenodd"
                     i:knockout="Off" />
                  <path
                     style="fill:#ffffff;fill-rule:evenodd"
                     inkscape:connector-curvature="0"
                     id="path169"
                     d="m 280.97258,271.73026 c -1.89055,2.49655 -2.121,6.454 2.371,9.846 2.46141,1.86168 5.28635,3.01576 7.52052,3.46362 l 0.11948,-10.98462 c 0,0 -5.03272,-8.89901 -10.011,-2.325 z"
                     clip-rule="evenodd"
                     i:knockout="Off"
                     sodipodi:nodetypes="scccs" />
                  <path
                     style="fill:#ffffff;fill-rule:evenodd"
                     inkscape:connector-curvature="0"
                     id="path171"
                     d="m 280.408,252.405 c 2.239,2.2 6.56,2.081 10.011,-2.325 3.24,-4.156 4.372,-9.345 3.411,-10.873 -1.844,-1.074 -7.047,0.224 -11.064,3.352 -4.426,3.445 -4.604,7.64 -2.358,9.846 z"
                     clip-rule="evenodd"
                     i:knockout="Off" />
                  <path
                     style="fill:#ffffff;fill-rule:evenodd"
                     inkscape:connector-curvature="0"
                     id="path173"
                     d="m 258.57,232.648 c 2.285,-0.935 4.616,-1.35 5.209,1.535 0.566,2.713 -0.639,5.729 -1.838,6.454 -1.6,0.355 -4.498,-1.034 -5.946,-3.287 -1.594,-2.476 0.296,-3.78 2.575,-4.702 z"
                     clip-rule="evenodd"
                     i:knockout="Off" />
                  <path
                     style="fill:#ffffff;fill-rule:evenodd"
                     inkscape:connector-curvature="0"
                     id="path175"
                     d="m 241.203,273.868 c -0.948,-2.239 -1.37,-4.538 1.567,-5.117 2.76,-0.553 5.828,0.632 6.56,1.811 0.362,1.567 -1.047,4.419 -3.339,5.842 -2.522,1.567 -3.84,-0.283 -4.788,-2.536 z"
                     clip-rule="evenodd"
                     i:knockout="Off" />
                  <path
                     style="fill:#ffffff;fill-rule:evenodd"
                     inkscape:connector-curvature="0"
                     id="path177"
                     d="m 283.32319,291.50126 c -2.285,0.929 -4.617,1.343 -5.209,-1.541 -0.566,-2.72 0.639,-5.736 1.837,-6.454 1.601,-0.355 4.505,1.034 5.94,3.28 1.594,2.482 -0.29,3.78 -2.568,4.715 z"
                     clip-rule="evenodd"
                     i:knockout="Off" />
                  <path
                     style="fill:#ffffff;fill-rule:evenodd"
                     inkscape:connector-curvature="0"
                     id="path181"
                     d="m 241.203,249.718 c 0.948,-2.246 2.292,-4.162 4.788,-2.536 2.351,1.535 3.675,4.498 3.339,5.848 -0.876,1.363 -3.925,2.391 -6.56,1.811 -2.916,-0.644 -2.515,-2.87 -1.567,-5.123 z"
                     clip-rule="evenodd"
                     i:knockout="Off" />
                  <path
                     style="fill:#ffffff;fill-rule:evenodd"
                     inkscape:connector-curvature="0"
                     id="path183"
                     d="m 258.95239,290.952 c -2.285,-0.935 -4.234,-2.259 -2.581,-4.715 1.554,-2.305 4.577,-3.603 5.946,-3.28 1.384,0.856 2.431,3.853 1.838,6.454 -0.652,2.864 -2.924,2.469 -5.203,1.541 z"
                     clip-rule="evenodd"
                     i:knockout="Off" />
                  <path
                     style="fill:#ffffff;fill-rule:evenodd"
                     inkscape:connector-curvature="0"
                     id="path187"
                     d="m 283.135,232.648 c 2.292,0.929 4.228,2.252 2.581,4.709 -1.554,2.305 -4.576,3.603 -5.946,3.28 -1.383,-0.856 -2.437,-3.853 -1.844,-6.454 0.658,-2.859 2.924,-2.47 5.209,-1.535 z"
                     clip-rule="evenodd"
                     i:knockout="Off" />
                </g>
                <g
                   id="g3124"
                   transform="translate(-3.6666667,-4.6666667)">
                  <path
                     style="fill:#ffffff;fill-rule:evenodd"
                     inkscape:connector-curvature="0"
                     id="path197"
                     d="m 131.3349,303.77035 c -7.51952,5.48834 -9.15227,1.52227 -3.03011,-4.05299 6.04739,-5.50717 9.83564,-7.6372 19.16241,-6.50756 13.93627,-12.95226 30.27251,-27.33945 43.06799,-41.30515 1.44397,-1.57603 1.64841,-5.06781 2.07301,-6.26468 0.95264,1.46801 12.13684,4.64899 13.56564,1.92619 0.23862,3.1721 12.10309,4.93136 13.78083,4.00351 -1.8635,5.95334 -3.43038,8.82924 -6.63622,14.45217 -16.51379,13.29034 -48.19219,36.10094 -54.92636,37.45744 -3.1184,8.00922 -5.81552,10.36345 -8.51709,10.06672 -5.16945,-0.5678 -10.35522,-10.84201 -18.5401,-9.77565 z"
                     clip-rule="evenodd"
                     i:knockout="Off"
                     sodipodi:nodetypes="cscscccccsc" />
                </g>
                <path
                   style="fill:#d4af37;fill-rule:evenodd;stroke:none"
                   d="m 289.20321,268.80591 c 0.62134,40.17875 15.65409,82.61407 48.34915,84.56089 18.2636,1.08751 47.21329,-26.44879 44.71632,-83.56304 -2.35117,-53.77918 -14.95643,-85.22714 -46.24428,-87.07478 -34.37859,-2.03017 -49.94681,48.45732 -46.82119,86.07693 z m 46.57173,-75.46267 c 18.94405,0 34.30121,33.28319 34.30121,74.3401 0,41.05689 -15.35716,74.34009 -34.30121,74.34009 -18.94403,0 -34.30122,-33.2832 -34.30122,-74.34009 0,-41.05691 15.35719,-74.3401 34.30122,-74.3401 z"
                   id="path213"
                   inkscape:connector-curvature="0"
                   sodipodi:nodetypes="cssscsssss" />
                <g
                   id="g3109"
                   transform="translate(-3.3333333,-1.6666663)">
                  <path
                     style="fill:#ffffff;fill-rule:evenodd;stroke:#000000;stroke-width:0.0845241;stroke-miterlimit:2.61310005"
                     inkscape:connector-curvature="0"
                     id="path29"
                     d="m 276.76074,115.745 c 16.52528,0 18.95385,12.7514 17.17936,27.3303 -1.66667,13.69301 -6.47643,24.14359 -17.0127,23.84331 -9.56175,-0.27251 -15.55354,-10.16274 -17.68027,-23.84331 -2.32564,-14.96007 1.82165,-27.3303 17.51361,-27.3303 z"
                     stroke-miterlimit="2.6131"
                     clip-rule="evenodd"
                     i:knockout="Off"
                     sodipodi:nodetypes="sssss" />
                  <path
                     style="fill-rule:evenodd"
                     inkscape:connector-curvature="0"
                     id="path31"
                     d="m 280.24315,134.48628 c 2.14286,-1.97665 3.95762,-2.86729 4.88684,-3.53419 2.92927,-1.84703 5.40622,-0.39675 6.39419,0.33701 0.21423,0.8926 -2.59535,0.3522 -3.28594,0.45066 -2.88167,0.40311 -4.70383,1.93444 -7.99509,2.74652 z"
                     clip-rule="evenodd"
                     i:knockout="Off"
                     sodipodi:nodetypes="ccccc" />
                  <path
                     style="fill-rule:evenodd"
                     inkscape:connector-curvature="0"
                     id="path33"
                     d="m 268.67594,132.37951 c 1.84097,0.92748 3.61794,2.23046 5.99428,1.4882 -3.32431,-2.63133 -10.39013,-4.47757 -13.39965,-2.18782 3.89844,0.50284 4.14497,-0.26885 7.40537,0.69962 z"
                     clip-rule="evenodd"
                     i:knockout="Off"
                     sodipodi:nodetypes="cccc" />
                  <path
                     inkscape:connector-curvature="0"
                     id="path37"
                     d="m 282.44208,155.66028 c -1.33555,2.3323 -7.1706,3.19931 -9.70347,0.16012 1.11139,-1.86818 3.35255,-2.45975 5.08605,-1.95013 2.16107,-0.4211 3.59442,0.17844 4.61742,1.79001 z"
                     i:knockout="Off"
                     sodipodi:nodetypes="cccc" />
                  <path
                     inkscape:connector-curvature="0"
                     id="path43"
                     d="m 275.1294,136.18706 c -0.005,0 -0.005,0 -0.005,0 0.005,0 0.005,0 0.005,0 z m -0.005,0 c 0,-0.009 -0.006,-0.009 -0.006,-0.009 0.006,0 0.006,0 0.006,0.009 z m -0.006,-0.009 c -0.19705,-0.26475 -0.22056,-0.7125 -0.0542,-1.02162 0.17265,-0.31052 0.48179,-0.35626 0.68517,-0.0915 0.0235,0.0278 0.0533,0.0555 0.0832,0.1276 1.19677,1.82562 -0.0181,7.30392 -0.47094,9.34858 l -0.0533,0.22872 c -0.11932,0.55726 -0.1844,1.08679 -0.14915,1.55255 0.0353,0.39231 0.1609,0.75688 0.42303,1.04936 0.21423,0.24674 0.25581,0.7028 0.0949,1.02303 -0.16089,0.32852 -0.46461,0.3923 -0.67883,0.14551 -0.49444,-0.54894 -0.73307,-1.26006 -0.79816,-2.02664 v -0.009 c -0.0587,-0.7028 0.0235,-1.45136 0.17898,-2.18188 v -0.009 l 0.0587,-0.23704 v -0.009 c 0.39863,-1.81731 1.49417,-6.73697 0.69059,-7.8792 h -0.005 l -0.005,-0.012 z"
                     i:knockout="Off" />
                  <path
                     inkscape:connector-curvature="0"
                     id="path45"
                     d="m 278.47485,137.58227 c -0.12474,2.23151 0.63725,5.59221 1.1796,6.87229 l 0.005,0.008 c 0,0 0.0127,0.0256 0.0127,0.0331 0.0416,0.10879 0.0777,0.22762 0.10666,0.35295 0.0235,0.14322 0.0479,0.27878 0.0597,0.41306 0,0.008 0,0.008 0,0.008 0.0416,0.71613 -0.13198,1.51667 -0.55953,1.94505 -0.21422,0.21868 -0.26213,0.64069 -0.10756,0.94376 0.15547,0.30309 0.46461,0.37087 0.67884,0.15218 0.73307,-0.73275 1.03045,-2.02946 0.94639,-3.16632 v -0.01 c -0.0181,-0.22763 -0.0479,-0.44631 -0.0895,-0.65731 -0.0416,-0.21101 -0.10666,-0.42969 -0.17807,-0.62278 -0.0127,-0.0256 -0.0235,-0.0511 -0.0353,-0.0844 -0.006,-0.008 -0.006,-0.008 -0.006,-0.0167 -0.48178,-1.14582 -1.14887,-4.10113 -1.0413,-6.07177 0.0181,-0.34527 0.0587,-0.64068 0.13107,-0.87598 0.0479,-0.17648 0.12564,-0.30307 0.20789,-0.38748 0.22056,-0.17648 0.31005,-0.57291 0.19706,-0.89261 -0.12565,-0.3376 -0.41761,-0.47188 -0.65534,-0.30307 -0.006,0 -0.0895,0.0677 -0.0841,0.0767 -0.24948,0.23529 -0.44021,0.5729 -0.56495,0.99363 h 0.005 l -0.2088,1.28775 z m 1.33959,-1.19569 c 0.0118,-0.008 0.0118,-0.0167 0.005,-0.008 l -0.005,0.008 z m -1.33959,1.19569 c 0.0235,-0.47188 0.0904,-0.90924 0.20789,-1.28904 l -0.20789,1.28904 z"
                     i:knockout="Off" />
                  <path
                     inkscape:connector-curvature="0"
                     id="path241"
                     d="m 286.47822,138.80787 h -0.0129 c 9.1e-4,0 9.1e-4,0 0.0129,0 z m -0.0119,0 c -0.52968,0 -1.02368,-0.0749 -1.48201,-0.19908 -0.26439,-0.0749 -0.52969,-0.16876 -0.75839,-0.27494 -0.22962,-0.0995 -0.45833,-0.22469 -0.66325,-0.36216 -0.73552,-0.47403 -1.23593,-1.07415 -1.42256,-1.64867 0.0723,-0.16876 0.17474,-0.32423 0.2836,-0.47403 0.11435,-0.15643 0.2589,-0.31191 0.41624,-0.44275 0.84348,-0.70535 2.15625,-1.03053 3.63918,-0.95564 h 0.0238 c 0.13265,0 0.26529,0 0.40893,0.007 0.28908,0.006 0.56627,0.0313 0.84438,0.0683 0.27719,0.0379 0.54157,0.0995 0.79498,0.16212 1.08498,0.2939 1.95224,0.84946 2.3017,1.61075 -0.0485,0.10618 -0.10886,0.20668 -0.19302,0.31855 -0.10796,0.16875 -0.2525,0.33087 -0.39795,0.48066 -0.84347,0.84282 -2.26603,1.59843 -3.78373,1.7103 h -0.0119 z m -1.71072,0.6627 c 0.5306,0.14979 1.12066,0.23701 1.74732,0.23701 h 0.0238 c 1.73451,-0.13747 3.37388,-1.01158 4.34999,-1.9729 0.20493,-0.20004 0.37326,-0.40577 0.50591,-0.59918 v -0.007 c 0.14453,-0.20573 0.2534,-0.42473 0.33757,-0.63615 v -0.007 l 0.0119,-0.0502 v -0.2939 c -0.40893,-1.14241 -1.52959,-1.93593 -2.96404,-2.3161 -0.28816,-0.0749 -0.59006,-0.13747 -0.89195,-0.18108 -0.31287,-0.0436 -0.62665,-0.0749 -0.93953,-0.0805 -0.14362,-0.007 -0.27718,-0.007 -0.40893,-0.007 -0.0129,0 -0.0129,0.007 -0.0238,0 0,0 0,0 -0.0128,0 -1.67414,-0.0749 -3.20464,0.31286 -4.20546,1.16137 -0.20491,0.16875 -0.39795,0.36879 -0.55987,0.58685 -0.16192,0.21805 -0.29457,0.45506 -0.40984,0.71103 v 0.007 c -0.005,0.0246 -0.0238,0.0559 -0.0421,0.11282 l -0.0183,0.26829 c 0.19852,0.81817 0.85628,1.68564 1.83789,2.32274 0.24151,0.15643 0.494,0.29959 0.78308,0.41809 0.27628,0.13084 0.57817,0.23702 0.87915,0.32519 z m 1.74732,-5.91303 c 0,0 0,0.007 -0.0129,0 h 0.0129 z m 0.0238,0 c -0.0129,0 -0.0129,0 -0.0238,0 h 0.0238 z"
                     i:knockout="Off" />
                  <path
                     style="fill-rule:evenodd"
                     inkscape:connector-curvature="0"
                     id="path243"
                     d="m 286.11853,133.94929 c -1.34502,0 -2.42971,1.10065 -2.42971,2.45301 0,1.34586 1.08378,2.44651 2.42971,2.44651 1.33326,0 2.4288,-1.10158 2.4288,-2.44651 0,-1.35236 -1.09554,-2.45301 -2.4288,-2.45301 z"
                     clip-rule="evenodd"
                     i:knockout="Off" />
                  <path
                     inkscape:connector-curvature="0"
                     id="path247"
                     d="m 267.9694,138.80325 c 0,0 0,0 0.006,0 -0.006,0 -0.006,0 -0.006,0 z m 0.005,0 c 0.54423,-0.005 1.05167,-0.076 1.51899,-0.20157 0.28089,-0.0703 0.54507,-0.16358 0.78248,-0.26684 0.24161,-0.0983 0.47317,-0.22305 0.68217,-0.35358 0.74904,-0.46263 1.26652,-1.06074 1.46465,-1.6159 -0.0828,-0.16357 -0.18224,-0.32714 -0.29678,-0.46758 -0.12205,-0.15283 -0.26417,-0.29906 -0.4297,-0.43537 -0.85939,-0.69642 -2.21285,-1.00704 -3.73351,-0.936 h -0.0326 c -0.13208,0 -0.27002,0 -0.40712,0.005 -0.29678,0.0108 -0.58938,0.0331 -0.87026,0.0711 -0.28591,0.038 -0.56179,0.0925 -0.81509,0.15779 -1.12357,0.28832 -2.00888,0.8319 -2.36752,1.58368 0.0443,0.0975 0.11035,0.20157 0.19228,0.30979 0.11621,0.16357 0.25916,0.32136 0.41298,0.47337 0.85856,0.81621 2.33407,1.55558 3.89235,1.67537 h 0.006 z m 1.75056,0.6419 c -0.54424,0.14705 -1.14447,0.23379 -1.784,0.23379 h -0.0326 c -1.77814,-0.13631 -3.46851,-0.98473 -4.45999,-1.93147 -0.20899,-0.19579 -0.38539,-0.40233 -0.52835,-0.58738 h 0.006 c -0.14881,-0.20653 -0.27002,-0.41884 -0.34693,-0.63115 v -0.005 l -0.0167,-0.0495 0.005,-0.28832 c 0.41298,-1.11527 1.56915,-1.89926 3.03966,-2.26936 h 0.006 c 0.29175,-0.0761 0.60023,-0.13631 0.91373,-0.17927 0.31349,-0.0438 0.64454,-0.0702 0.9689,-0.0817 0.13795,0 0.2809,-0.006 0.42385,0 0.006,0 0.0117,0 0.0117,0 0.0109,0 0.0109,0 0.0167,0 1.72882,-0.0761 3.29211,0.29905 4.3279,1.13673 0.209,0.16853 0.40128,0.36432 0.57266,0.57664 0.15966,0.21231 0.30262,0.4461 0.41883,0.69642 0.0109,0.0273 0.0267,0.0595 0.0435,0.11401 l 0.0217,0.26105 c -0.209,0.79968 -0.88113,1.65389 -1.88849,2.2801 -0.2416,0.14705 -0.51162,0.28832 -0.80339,0.41306 -0.29343,0.1264 -0.59606,0.22966 -0.9154,0.31145 z m -1.79403,-5.78864 c 0.0109,0 0.0109,0 0.0167,0 h -0.0167 z m -0.0118,0 c 0.006,0 0.0118,0 0.0118,0 h -0.0118 z"
                     i:knockout="Off" />
                </g>
                <path
                   style="fill:#f2016c;fill-opacity:1;stroke:none"
                   d="m 254.7,452.2 19.13333,0 c -0.22972,28.32732 6.84254,19.14022 6.33333,45.63333 -0.71988,37.45357 5.11946,35.9813 9.50001,60.66667 -13.62507,1.68139 -27.55779,-1.22093 -40.41667,-6.49999 -0.83334,-25.66667 12.44856,-49.80276 3.83334,-64.83334 C 245.94366,474.7104 256.6242,478.80391 254.7,452.2 z"
                   id="path3103"
                   inkscape:connector-curvature="0"
                   sodipodi:nodetypes="ccsccsc" />
                <path
                   style="fill:#f2016c;fill-opacity:1;stroke:none"
                   d="M 314.16666,553.5 C 329.22067,550.71472 378.8019,519.6215 398,501.33333 c -22.74402,-52.34008 -23.42168,-78.4001 -30.2,-164.66666 -17.97116,22.71459 -34.95789,21.48193 -48.63333,12.66666 0,0 6.58185,58.93949 10.99999,84.66667 1.11951,6.51895 -15.83333,13.83334 -15.83333,13.83334 0.36923,28.15101 4.54888,14.60832 -0.16667,105.66666 z"
                   id="path3873"
                   inkscape:connector-curvature="0"
                   sodipodi:nodetypes="ccccscc" />
                <path
                   i:knockout="Off"
                   clip-rule="evenodd"
                   d="M 333.48321,180.92719 347.231,167.76154 c -27.62065,-86.950185 45.19252,-122.862069 70.85262,-3.06129 8.76151,40.90536 0.33067,96.41784 -0.45287,165.29555 -0.66499,58.45673 8.44883,130.15135 18.45249,173.2279 l -5.29837,0.14585 c -19.64138,-100.00507 -25.6778,-139.35056 -23.02486,-240.32191 1.93656,-73.70575 -6.36758,-132.07742 -35.20662,-149.47667 -7.99631,-4.82436 -14.48711,23.59044 -17.79852,45.76365 -2.63808,17.66459 3.53915,23.27019 5.20353,32.40498 -6.69589,-5.88954 -13.97837,-9.55251 -26.47519,-10.81241 z"
                   id="path75"
                   inkscape:connector-curvature="0"
                   style="fill:#ffffff;fill-rule:evenodd;stroke:#000000;stroke-width:1.07673991;stroke-opacity:1"
                   sodipodi:nodetypes="ccssccssscc" />
                <path
                   sodipodi:type="arc"
                   style="fill:#ffffff;fill-opacity:1;stroke:none"
                   id="path3104"
                   sodipodi:cx="270.83334"
                   sodipodi:cy="243.16667"
                   sodipodi:rx="10.166667"
                   sodipodi:ry="10.666667"
                   d="m 281.00001,243.16667 c 0,5.89104 -4.55177,10.66667 -10.16667,10.66667 -5.61489,0 -10.16666,-4.77563 -10.16666,-10.66667 0,-5.89104 4.55177,-10.66667 10.16666,-10.66667 5.6149,0 10.16667,4.77563 10.16667,10.66667 z"
                   transform="translate(-0.16666667,-0.33333334)" />
                <path
                   style="fill:#f2016c;fill-opacity:1;stroke:none"
                   d="m 249.5,183.5 c 2.3547,1.70383 2.62949,5.296 1.15533,8.23909 3.78206,2.30038 24.96151,12.45639 42.64467,27.84425 5.699,-16.0458 14.14928,-30.05615 28.45,-36.50001 -7.86108,-0.0834 -19.57393,1.68505 -25.41666,-0.41666 -2.34048,6.48668 -43.60488,5.06044 -46.83334,0.83333 z"
                   id="path3106"
                   inkscape:connector-curvature="0"
                   sodipodi:nodetypes="cccccc" />
                <path
                   style="fill:#f2016c;fill-opacity:1;stroke:none"
                   d="m 197,214.33333 c 7.59275,-17.26109 18.004,-31.33282 37.5,-31.40033 -5.65971,3.1734 -3.44733,11.0941 4,12.40033 0.11702,8.6458 -0.79336,19.13048 -2.83334,25.56634 -1.70504,-2.33924 -10.32636,-4.42241 -13.33333,-0.56633 -0.49327,-3.68874 -10.84945,-5.57548 -14,-1.50001 -1.60558,-3.82494 -6.56553,-5.55579 -11.33333,-4.5 z"
                   id="path3876"
                   inkscape:connector-curvature="0"
                   sodipodi:nodetypes="ccccccc" />
                <rect
                   style="fill:#ffffff;fill-opacity:1;stroke:none"
                   id="rect3878"
                   width="12.060445"
                   height="25.268368"
                   x="259.57016"
                   y="175.534"
                   rx="3.767911"
                   ry="3.7680032"
                   transform="matrix(0.98273701,0.18500805,-0.17798338,0.98403349,0,0)" />
                <rect
                   style="fill:#ffffff;fill-opacity:1;stroke:none"
                   id="rect3878-1"
                   width="12.310526"
                   height="24.411562"
                   x="254.55399"
                   y="169.41606"
                   rx="3.7663696"
                   ry="3.7656608"
                   transform="matrix(0.97721998,0.21222892,-0.2306833,0.97302889,0,0)" />
                <rect
                   style="fill:#ffffff;fill-opacity:1;stroke:none"
                   id="rect3878-1-7"
                   width="11.504465"
                   height="24.38624"
                   x="244.3042"
                   y="159.78008"
                   rx="3.7630548"
                   ry="3.7627749"
                   transform="matrix(0.96796342,0.25109124,-0.25306135,0.96745023,0,0)" />
                <path
                   sodipodi:type="arc"
                   style="fill:#ffffff;fill-opacity:1;stroke:none"
                   id="path3916"
                   sodipodi:cx="127.58334"
                   sodipodi:cy="305.16666"
                   sodipodi:rx="6.583333"
                   sodipodi:ry="3.3333333"
                   d="m 134.16668,305.16666 c 0,1.84095 -2.94746,3.33333 -6.58334,3.33333 -3.63587,0 -6.58333,-1.49238 -6.58333,-3.33333 0,-1.84095 2.94746,-3.33334 6.58333,-3.33334 3.63588,0 6.58334,1.49239 6.58334,3.33334 z"
                   transform="matrix(0.77647474,-0.62298412,0.08927351,0.87480523,-0.97519563,117.91038)" />
                <path
                   sodipodi:type="arc"
                   style="fill:#ffffff;fill-opacity:1;stroke:none"
                   id="path3916-4"
                   sodipodi:cx="127.58334"
                   sodipodi:cy="305.16666"
                   sodipodi:rx="7.5659199"
                   sodipodi:ry="3.3333333"
                   d="m 135.14926,305.16666 c 0,1.84095 -3.38737,3.33333 -7.56592,3.33333 -4.17854,0 -7.56592,-1.49238 -7.56592,-3.33333 0,-1.84095 3.38738,-3.33334 7.56592,-3.33334 4.17855,0 7.56592,1.49239 7.56592,3.33334 z"
                   transform="matrix(0.82134892,-0.74090656,0.16202633,0.92125542,-24.796775,122.83715)"
                   inkscape:transform-center-x="3.285171"
                   inkscape:transform-center-y="0.42366233" />
                <path
                   sodipodi:type="arc"
                   style="fill:#ffffff;fill-opacity:1;stroke:none"
                   id="path3916-0"
                   sodipodi:cx="127.58334"
                   sodipodi:cy="305.16666"
                   sodipodi:rx="6.583333"
                   sodipodi:ry="3.3333333"
                   d="m 134.16668,305.16666 c 0,1.84095 -2.94746,3.33333 -6.58334,3.33333 -3.63587,0 -6.58333,-1.49238 -6.58333,-3.33333 0,-1.84095 2.94746,-3.33334 6.58333,-3.33334 3.63588,0 6.58334,1.49239 6.58334,3.33334 z"
                   transform="matrix(0.79691979,-0.6803269,0.1221083,0.90665193,-5.3151921,123.94759)" />
                <path
                   sodipodi:type="arc"
                   style="fill:#ffffff;fill-opacity:1;stroke:none"
                   id="path3916-9"
                   sodipodi:cx="127.58334"
                   sodipodi:cy="305.16666"
                   sodipodi:rx="6.583333"
                   sodipodi:ry="3.1659634"
                   d="m 134.16668,305.16666 c 0,1.74851 -2.94746,3.16596 -6.58334,3.16596 -3.63587,0 -6.58333,-1.41745 -6.58333,-3.16596 0,-1.74852 2.94746,-3.16597 6.58333,-3.16597 3.63588,0 6.58334,1.41745 6.58334,3.16597 z"
                   transform="matrix(0.77855004,-0.65151274,0.10853291,0.88221158,6.5045682,130.89643)" />
                <path
                   id="path3976"
                   style="fill:#d4af37;stroke:#000000;stroke-width:1.07673991;stroke-opacity:1"
                   d="m 216,168 11,13.1 c -13.29902,3.39839 -29.4972,9.69269 -41.4,63.9 -11.20697,11.98592 -20.65435,21.15909 -31.2,30.6 -7.76953,6.23542 -12.03665,10.82799 -21.345,10.032 -10.34199,7.03822 -18.49049,13.39667 -16.555,21.18869 l -7.37762,2.8957 -10.408181,-17.6666 10.673811,-7.80352 C 101.75907,278.52163 97.457579,265.60849 97.249318,255.82393 82.098394,240.8735 78.815356,233.04396 76.20884,212.41543 62.73175,201.74876 55.528419,178.50136 55.165389,150.34839 c 18.304305,12.99457 32.947762,29.75283 36.496094,51.97737 12.703947,10.78744 19.831977,18.45196 22.874057,42.80453 8.94463,6.06165 11.49255,13.83343 13.43434,26.10605 L 131,269.01528 C 93.512616,50.034864 248.15082,25.929744 216,168 z"
                   inkscape:connector-curvature="0"
                   sodipodi:nodetypes="ccccccccccccccccc" />
                <path
                   i:knockout="Off"
                   clip-rule="evenodd"
                   d="m 173.85244,212.6974 c -1.31267,15.8229 -0.81547,45.20974 -0.81547,45.20974 5.23611,-5.56208 8.67458,-8.39545 12.40103,-12.67414 0.66696,-2.6072 1.28639,-5.32768 2.12252,-9.09643 -0.25754,-7.97639 -0.18234,-16.15427 -0.78446,-21.92711 l -4.41828,-0.5935 c -0.63905,11.97527 1.68726,26.1159 -1.82142,24.95202 -2.85048,-0.94554 -2.02759,-25.34082 -2.02759,-25.34082 0,0 -3.27436,-0.60879 -4.65633,-0.52976 z"
                   id="path67"
                   inkscape:connector-curvature="0"
                   style="fill:#ffffff;fill-rule:evenodd;stroke:#000000;stroke-width:1.07673991;stroke-linejoin:round;stroke-opacity:1"
                   sodipodi:nodetypes="ccccccscc" />
                <path
                   i:knockout="Off"
                   clip-rule="evenodd"
                   d="m 164.16635,186.10508 c 7.59635,0.92602 9.8435,-13.99321 20.01464,-51.07016 l -2.81187,-5.91731 c -11.08403,27.16837 -13.01843,42.50094 -15.29793,37.19399 -1.91861,-4.46675 8.9428,-29.15472 12.16938,-41.45901 l -2.66998,-4.96172 c -9.6657,10.78076 -29.23378,64.04072 -11.40424,66.21421 z"
                   id="path55"
                   inkscape:connector-curvature="0"
                   style="fill:#ffffff;fill-rule:evenodd;stroke:#000000;stroke-width:1.07673991;stroke-linejoin:round;stroke-opacity:1"
                   sodipodi:nodetypes="sccsccs" />
                <path
                   i:knockout="Off"
                   clip-rule="evenodd"
                   d="m 182.4837,207.51307 c 7.85876,2.31505 15.32651,-29.84581 15.32359,-44.71856 l -4.4932,-11.63206 c -2.26871,21.30401 -4.81702,38.23024 -7.81163,37.04464 -3.95109,-1.56429 2.98374,-19.54938 4.95319,-41.86279 l -2.62319,-5.8778 c -11.05804,49.46678 -19.31807,62.93145 -5.34876,67.04657 z"
                   id="path53"
                   inkscape:connector-curvature="0"
                   style="fill:#ffffff;fill-rule:evenodd;stroke:#000000;stroke-width:1.07673991;stroke-linejoin:round;stroke-opacity:1"
                   sodipodi:nodetypes="sccsccs" />
                <g
                   id="g3876"
                   transform="translate(-0.21704332,-0.1669)">
                  <path
                     sodipodi:nodetypes="ccccccc"
                     style="fill:#d4af37;fill-rule:evenodd;stroke:#000000;stroke-width:1.07673991;stroke-opacity:1"
                     inkscape:connector-curvature="0"
                     id="path193"
                     d="m 110.05535,306.6019 -7.85789,-13.29146 35.62751,-25.24783 6.80881,11.68362 c -7.00171,5.55395 -5.76163,3.92007 -12.19552,2.80448 -3.49859,2.54405 -19.8656,11.05153 -18.49575,22.63215 z"
                     clip-rule="evenodd"
                     i:knockout="Off" />
                </g>
                <path
                   sodipodi:type="arc"
                   style="fill:#d4af37;fill-opacity:1;stroke:none"
                   id="path3104-4"
                   sodipodi:cx="270.83334"
                   sodipodi:cy="243.16667"
                   sodipodi:rx="12.975878"
                   sodipodi:ry="8.9098043"
                   d="m 283.80922,243.16667 c 0,4.92075 -5.8095,8.90981 -12.97588,8.90981 -7.16638,0 -12.97587,-3.98906 -12.97587,-8.90981 0,-4.92075 5.80949,-8.9098 12.97587,-8.9098 7.16638,0 12.97588,3.98905 12.97588,8.9098 z"
                   transform="matrix(0.62295084,0,0,0.66406251,72.906021,26.60128)" />
                <path
                   style="fill:#ffffff;stroke:#000000;stroke-width:1.07673991;stroke-opacity:1"
                   d="m 220.86157,182.7119 -12.5,-11.10919 C 234.37259,44.515319 108.16113,58.67211 136.20952,264.74047 L 137.66666,263.75 146.95,279.9 c -4.50009,-118.60952 17.13475,-164.3065 33.68079,-167.04172 7.1508,-1.1821 19.96732,41.86596 20.60254,48.92505 2.33379,25.93501 -9.44473,33.65547 -9,58.80005 5.52071,-15.68805 10.57268,-29.0696 28.62824,-37.87148 z"
                   id="path3978"
                   inkscape:connector-curvature="0"
                   sodipodi:nodetypes="cccccsscc" />
                <path
                   i:knockout="Off"
                   clip-rule="evenodd"
                   d="m 155.63299,188.36291 c -3.18048,35.57083 -6.29186,49.6261 3.83771,50.95547 9.14947,1.20075 7.11658,-6.23668 9.44992,-47.07001 l -4.38232,-1.52731 c -2.33333,20.16667 -2.24234,29.97675 -5.45954,28.9002 -2.50827,-0.83932 0.88348,-19.65372 1.07682,-29.74696 z"
                   id="path51"
                   inkscape:connector-curvature="0"
                   style="fill:#ffffff;fill-rule:evenodd;stroke:#000000;stroke-width:1.07673991;stroke-linejoin:round;stroke-opacity:1"
                   sodipodi:nodetypes="csccscc" />
                <path
                   i:knockout="Off"
                   clip-rule="evenodd"
                   d="m 151.86438,243.13757 c -0.51331,10.21863 -1.11054,21.69899 -0.52215,34.96243 7.77234,-6.62184 10.2929,-9.0251 16.45606,-15 -0.006,-7.24459 0.0643,-10.6196 -0.78248,-18.07038 l -4.99148,-0.47349 c -0.38741,6.77085 1.36752,24.04808 -2.34053,24.95202 -2.78786,0.67962 -2.0276,-7.72044 -2.65089,-25.64451 z"
                   id="path67-1"
                   inkscape:connector-curvature="0"
                   style="fill:#ffffff;fill-rule:evenodd;stroke:#000000;stroke-width:1.07673991;stroke-linejoin:round;stroke-opacity:1"
                   sodipodi:nodetypes="cccccscc" />
                <path
                   style="fill:#d4af37;stroke:#000000;stroke-width:1.07673991;stroke-opacity:1"
                   d="m 134.5,324.4 c 3.2913,-0.14632 6.11319,0.91493 12.9,-11.5 4.76977,-2.63171 7.29623,-6.20643 8.4,-11.4 9.02466,-5.51047 13.85321,-6.91832 27.7,-17.33334 -3.73728,74.93534 -7.01673,126.64868 -8.4,138.45834 1.62715,21.75845 8.9,44.94167 8.9,44.94167 l -21.64583,49.37083 c -1.6314,-1.75255 -3.24905,-3.39517 -5.04167,-6.4375 -8.05158,15.09354 -16.79761,30.25493 -37.72917,37.97917 l 5.52084,-40.5625 c -3.92605,-0.14173 -6.81355,0.92817 -9.77084,1.91666 C 133.40637,440.38761 136.63713,381.92316 134.5,324.4 z"
                   id="path3124"
                   inkscape:connector-curvature="0"
                   sodipodi:nodetypes="cccccccccccc" />
                <path
                   i:knockout="Off"
                   clip-rule="evenodd"
                   d="m 155.9952,308.7878 c -2.34407,63.36094 -5.62908,62.06987 3.11376,62.7948 10.44843,0.86636 6.49857,-9.26602 10.44082,-72.0308 l -4.88719,3.42359 c -2.43327,29.19594 -0.6047,35.18361 -3.66091,36.53891 -2.64868,1.17457 -1.30084,-7.96702 -0.60147,-34.13679 z"
                   id="path69"
                   inkscape:connector-curvature="0"
                   style="fill:#ffffff;fill-rule:evenodd;stroke:#000000;stroke-width:1.07673991;stroke-opacity:1"
                   sodipodi:nodetypes="csccscc" />
                <path
                   i:knockout="Off"
                   clip-rule="evenodd"
                   d="m 157.20218,406.26482 c 2.43868,-0.18178 1.77833,-7.48289 2.85733,-26.57642 l 4.70829,0.20851 c -1.5367,41.09847 -2.95214,59.67513 -10.85758,58.70741 -8.64968,-1.05882 -3.9201,-25.41964 -1.23867,-59.58266 l 4.25607,0.35588 c -1.72659,20.81648 -2.43872,27.08953 0.27456,26.88728 z"
                   id="path59"
                   inkscape:connector-curvature="0"
                   style="fill:#ffffff;fill-rule:evenodd;stroke:#000000;stroke-width:1.07673991;stroke-opacity:1"
                   sodipodi:nodetypes="sccsccs" />
                <path
                   i:knockout="Off"
                   clip-rule="evenodd"
                   d="m 169.59548,472.1943 c 2.37784,-1.77393 6.40031,-28.48055 6.40031,-28.48055 l 2.45621,11.67965 c -5.42463,28.45732 -12.97019,51.11207 -18.3571,46.76686 -3.45983,-2.79078 2.16217,-20.89144 9.82884,-79.22477 l 3.57947,1.94019 c -0.19564,14.15866 -8.63283,50.84366 -3.90773,47.31862 z"
                   id="path63"
                   inkscape:connector-curvature="0"
                   style="fill:#ffffff;fill-rule:evenodd;stroke:#000000;stroke-width:1.07673991;stroke-opacity:1"
                   sodipodi:nodetypes="sccsccs" />
                <path
                   i:knockout="Off"
                   clip-rule="evenodd"
                   d="m 142.87939,496.44382 c 2.63609,1.51657 8.49814,-27.29836 12.5523,-49.62353 l 4.09735,0.63932 c -3.16639,27.41427 -10.7843,68.86025 -24.23418,84.24241 -8.67869,9.92551 -1.5377,-41.90469 11.41154,-86.06135 l 4.54201,0.56687 c -6.2515,31.9106 -11.48939,48.4411 -8.36902,50.23628 z"
                   id="path61"
                   inkscape:connector-curvature="0"
                   style="fill:#ffffff;fill-rule:evenodd;stroke:#000000;stroke-width:1.07673991;stroke-opacity:1"
                   sodipodi:nodetypes="sccsccs" />
                <path
                   style="fill:#ffffff;stroke:#000000;stroke-width:1.07673991;stroke-opacity:1"
                   d="m 139.5,332.75 c 2.77816,2.08448 5.86617,3.34852 8,2.75 -4.5724,59.30723 -4.53971,108.03084 -21.25,167.5 l -6,0.5 c 13.01374,-51.47252 18.5243,-103.20139 19.25,-170.75 z"
                   id="path3894"
                   inkscape:connector-curvature="0"
                   sodipodi:nodetypes="ccccc" />
                <path
                   style="fill:#ffffff;stroke:#000000;stroke-width:1.07673991;stroke-opacity:1"
                   d="m 176.08333,386.33333 c -3.36468,-0.54813 -2.1795,-4.12067 -1.34617,-27.62067 l -3.15383,-1.12933 c -2.85081,52.28835 -2.88241,59.47254 1.83333,60.25 0.70611,0.11641 2.23967,-25.323 2.66667,-31.5 z"
                   id="path3109"
                   inkscape:connector-curvature="0"
                   sodipodi:nodetypes="cccsc" />
                <path
                   style="fill:#ffffff;stroke:#000000;stroke-width:1.07673991;stroke-opacity:1"
                   d="m 179.40367,325.09456 c -3.38205,-0.0217 -1.94126,-12.05739 -1.22772,-31.38641 l -3.60561,2.55308 c -2.11121,46.6441 -3.97185,54.96059 2.33333,55.41666 1.43411,0.10374 1.23967,-3.573 2.5,-26.58333 z"
                   id="path3109-1"
                   inkscape:connector-curvature="0"
                   sodipodi:nodetypes="cccsc" />
                <path
                   style="fill:#d4af37;stroke:#000000;stroke-width:1.07673991;stroke-opacity:1"
                   d="m 137.75,327.5 c 10.33707,-5.4039 6.91795,-7.74616 11.58334,-11.66666 1.74711,14.7085 1.82827,23.03214 -11.58334,11.66666 z"
                   id="path3897"
                   inkscape:connector-curvature="0"
                   sodipodi:nodetypes="ccc" />
                <path
                   i:knockout="Off"
                   clip-rule="evenodd"
                   d="m 391.76894,193.0209 -5.47072,2.02854 c 0.5872,27.01057 0.70142,46.76779 9.14176,46.26027 9.55029,-0.57427 7.53712,-5.8839 4.73427,-50.76399 l -4.53268,1.32003 c 0.26253,10.88094 1.91067,27.8168 -1.26019,27.58017 -1.961,-0.14635 -2.0309,-15.49003 -2.61244,-26.42502 z"
                   id="path51-1"
                   inkscape:connector-curvature="0"
                   style="fill:#ffffff;fill-rule:evenodd;stroke:#000000;stroke-width:1.07673991;stroke-opacity:1"
                   sodipodi:nodetypes="ccsccsc" />
                <path
                   style="fill:#ffffff;fill-opacity:1;stroke:#000000;stroke-width:1.11111116;stroke-opacity:1"
                   d="m 326.35,197.9 c -9.57769,5.25733 -20.87085,26.93153 -22.894,56.625 l 25.144,2.5 z"
                   id="path3932"
                   inkscape:connector-curvature="0"
                   sodipodi:nodetypes="cccc" />
                <path
                   style="fill:#ffffff;fill-opacity:1;stroke:#000000;stroke-width:1.11111116;stroke-opacity:1"
                   d="m 345.125,197.39375 -2.65,59.65625 25.85382,-2.375 C 365.75648,224.04763 355.97405,205.9555 345.125,197.39375 z"
                   id="path3932-0"
                   inkscape:connector-curvature="0"
                   sodipodi:nodetypes="cccc" />
                <path
                   style="fill:#ffffff;fill-opacity:1;stroke:#000000;stroke-width:1.11111116;stroke-opacity:1"
                   d="m 342.35,270.025 2.15,67.825 c 13.642,-8.76791 23.49297,-33.52576 24.10178,-65.7 z"
                   id="rect3934"
                   inkscape:connector-curvature="0"
                   sodipodi:nodetypes="cccc" />
                <path
                   style="fill:#ffffff;fill-opacity:1;stroke:#000000;stroke-width:1.11111116;stroke-opacity:1"
                   d="m 302.75,272.35 c 1.57653,32.18164 10.20039,54.79784 23.1,64.55 l 2.75,-66.925 z"
                   id="path3932-0-8"
                   inkscape:connector-curvature="0"
                   sodipodi:nodetypes="cccc" />
                <path
                   style="fill:#d4af37;stroke:#000000;stroke-width:1.11111116;stroke-opacity:1"
                   d="m 303.12304,255.9742 26.47401,2.25 -2.125,-60.90372 c 4.31758,-3.53338 11.20851,-3.49005 16.35952,-0.5019 l -2.375,61.40562 27.22034,-2.125 c 0.21351,4.19677 0.38206,11.28275 0.0753,14.54361 l -27.29561,-1.75 2.125,69.46629 c -5.50167,4.02751 -13.45476,1.78884 -16.65725,-0.75 l 2.67273,-68.71629 -26.82324,2.25 c 0.11641,-14.28258 0.23282,-12.6712 0.34923,-15.16861 z"
                   id="path4041"
                   inkscape:connector-curvature="0"
                   sodipodi:nodetypes="cccccccccccccc" />
                <path
                   style="fill:#ffffff;stroke:none"
                   d="m 260.8,161.47222 c 7.99162,9.07836 18.91705,8.79611 25.2,0 0.62781,9.69258 1.76109,15.22224 9.2,20.32778 -7.53066,4.32534 -38.95522,3.69997 -46.6,0 7.62744,-1.10232 11.74424,-5.81851 12.2,-20.32778 z"
                   id="path4141"
                   inkscape:connector-curvature="0"
                   sodipodi:nodetypes="ccccc" />
                <path
                   style="fill:#d4af37;stroke:none"
                   d="m 246.53922,133.32353 c 3.44246,-41.517403 50.0385,-39.812559 53.88235,-1.05882 l -6.23529,0.11764 c 1.6396,-29.61221 -43.92302,-29.86958 -41.41176,0.70589 z"
                   id="path4143"
                   inkscape:connector-curvature="0"
                   sodipodi:nodetypes="ccccc" />
                <path
                   style="fill:#ffffff;stroke:none"
                   d="m 208.46154,414.76923 c 3.50352,4.82446 7.07557,7.89326 14.46153,8.3077 0.58759,-1.23077 0.27254,-2.00001 0.0541,-3.23078 -8.61193,-0.21184 -10.65023,-3.13942 -14.51561,-5.07692 z"
                   id="path4145"
                   inkscape:connector-curvature="0"
                   sodipodi:nodetypes="cccc" />
                <path
                   style="fill:#ffffff;stroke:none"
                   d="m 324.59127,417.20842 c -3.50352,4.82446 -6.72162,7.07745 -14.10758,7.49189 -0.38536,-0.84564 -0.63965,-1.82235 -0.616,-3.077 8.61193,-0.21184 10.8582,-2.47739 14.72358,-4.41489 z"
                   id="path4145-1"
                   inkscape:connector-curvature="0"
                   sodipodi:nodetypes="cccc" />
                <path
                   style="fill:#ffffff;stroke:none"
                   d="m 226.30769,419.84615 c 5.27078,3.61603 12.67511,5.35823 19.48431,2.15385 0.0484,1.48718 0.22969,2.20512 -0.1458,3.53846 -4.92661,2.50411 -14.3151,1.78912 -19.4923,-2.15384 -0.22247,-1.72696 -0.0215,-2.60704 0.15379,-3.53847 z"
                   id="path4165"
                   inkscape:connector-curvature="0"
                   sodipodi:nodetypes="ccccc" />
                <path
                   style="fill:#ffffff;stroke:none"
                   d="m 248.82037,422.68411 c 5.21148,4.86828 21.13872,3.52708 29.12348,0.30769 0.30974,1.17949 0.55029,2.35897 0.053,3.53846 -7.28367,5.28482 -23.54668,5.58186 -29.17652,-0.92306 -0.57798,-2.04649 -0.20246,-2.04733 4e-5,-2.92309 z"
                   id="path4165-7"
                   inkscape:connector-curvature="0"
                   sodipodi:nodetypes="ccccc" />
                <path
                   style="fill:#ffffff;stroke:none"
                   d="m 281.551,423.2995 c 7.57847,3.15449 19.58288,2.43516 25.16131,-1.23076 0.5443,0.92762 1.2132,1.57679 0.5696,3.6923 -6.00353,3.88872 -16.97664,5.48143 -25.38461,1.07693 -0.52974,-0.97234 -0.63706,-2.15588 -0.3463,-3.53847 z"
                   id="path4165-1"
                   inkscape:connector-curvature="0"
                   sodipodi:nodetypes="ccccc" />
              </g>
              <path
                 style="fill-rule:evenodd"
                 inkscape:connector-curvature="0"
                 id="path243-1"
                 d="m 264.76302,132.47554 c -1.34502,0 -2.42971,1.10065 -2.42971,2.45301 0,1.34586 1.08378,2.44651 2.42971,2.44651 1.33326,0 2.4288,-1.10158 2.4288,-2.44651 0,-1.35236 -1.09554,-2.45301 -2.4288,-2.45301 z"
                 clip-rule="evenodd"
                 i:knockout="Off" />
              <path
                 i:knockout="Off"
                 clip-rule="evenodd"
                 d="m 400.72538,407.24433 c -2.43868,-0.18178 -1.77833,-7.48289 -2.85733,-26.57642 l -4.70829,0.20851 c 1.5367,41.09847 2.6188,58.17513 10.52424,57.20741 8.64968,-1.05882 4.25344,-23.91964 1.57201,-58.08266 l -4.25607,0.35588 c 1.72659,20.81648 2.43872,27.08953 -0.27456,26.88728 z"
                 id="path59-1"
                 inkscape:connector-curvature="0"
                 style="fill:#ffffff;fill-rule:evenodd;stroke:#000000;stroke-width:1.07673991;stroke-opacity:1"
                 sodipodi:nodetypes="sccsccs" />
              <path
                 i:knockout="Off"
                 clip-rule="evenodd"
                 d="m 413.79243,494.63851 c -2.63609,1.51657 -8.49814,-27.29836 -12.5523,-49.62353 l -4.09735,0.63932 c 3.16639,27.41427 10.7843,68.86025 24.23418,84.24241 8.67869,9.92551 1.5377,-41.90469 -11.41154,-86.06135 l -4.54201,0.56687 c 6.2515,31.9106 11.48939,48.4411 8.36902,50.23628 z"
                 id="path61-6"
                 inkscape:connector-curvature="0"
                 style="fill:#ffffff;fill-rule:evenodd;stroke:#000000;stroke-width:1.07673991;stroke-opacity:1"
                 sodipodi:nodetypes="sccsccs" />
            </g>
            <path
               i:knockout="Off"
               clip-rule="evenodd"
               d="m 258.0476,134.68827 c 0.90324,10.88758 0.56112,31.10836 0.56112,31.10836 -0.23216,-3.71718 -1.86297,-18.03221 -3.68925,-24.93452 0.001,-2.92009 -0.0758,-5.80932 -0.0758,-5.80932 0,0 2.25305,-0.4189 3.20397,-0.36452 z"
               id="path67-8"
               inkscape:connector-curvature="0"
               style="fill:#ffffff;fill-rule:evenodd;stroke:#000000;stroke-width:0.74089366;stroke-linejoin:round;stroke-opacity:1"
               sodipodi:nodetypes="cccccc" />
          </g>
          <path
             d="m 47.421243,107.79796 c 11.457058,10.08919 8.405001,34.41649 12.358667,23.39883 18.175183,14.5664 8.721419,38.69662 15.196,28.47827 4.006385,3.6 6.441829,10.25523 6.673,16.40806 l -8.715,6.184 c -6.456207,-4.46691 -8.638044,-16.92781 -9.428,-25.94867 -0.261932,8.13022 -13.29611,-3.7018 -13.935109,-27.15565 -5.306296,1.56494 -10.007305,-10.16257 -10.695891,-14.31355 8.728264,6.54148 -4.630795,-6.7264 -3.487,-19.718129 0,0 8.496918,9.552649 12.033333,12.666839 z"
             id="path2971-8-2"
             style="fill:#d4af37;fill-rule:evenodd;stroke:#000000;stroke-width:0.74089366;stroke-opacity:1"
             inkscape:connector-curvature="0"
             sodipodi:nodetypes="sccccccccs" />
        </g>
      </g>
    </g>
  </g>
</svg>
