<?xml version="1.0" encoding="UTF-8" standalone="no"?>
<!-- Created with Inkscape (http://www.inkscape.org/) -->

<svg xmlns:dc="http://purl.org/dc/elements/1.1/" xmlns:cc="http://creativecommons.org/ns#" xmlns:rdf="http://www.w3.org/1999/02/22-rdf-syntax-ns#" xmlns:svg="http://www.w3.org/2000/svg" xmlns="http://www.w3.org/2000/svg" xmlns:sodipodi="http://sodipodi.sourceforge.net/DTD/sodipodi-0.dtd" xmlns:inkscape="http://www.inkscape.org/namespaces/inkscape" width="267" height="178" id="svg2" version="1.1" inkscape:version="0.48.4 r9939" sodipodi:docname="drawing.svg">
<defs id="defs4" />
<sodipodi:namedview id="base" pagecolor="#ffffff" bordercolor="#666666" borderopacity="1.0" inkscape:pageopacity="0.0" inkscape:pageshadow="2" inkscape:zoom="0.98994949" inkscape:cx="43.127992" inkscape:cy="229.22772" inkscape:document-units="px" inkscape:current-layer="layer1" showgrid="false" inkscape:window-width="1600" inkscape:window-height="837" inkscape:window-x="-8" inkscape:window-y="-8" inkscape:window-maximized="1" />
<metadata id="metadata7">
<rdf:RDF>
<cc:Work rdf:about="">
<dc:format>image/svg+xml</dc:format>
<dc:type rdf:resource="http://purl.org/dc/dcmitype/StillImage" />
<dc:title />
</cc:Work>
</rdf:RDF>
</metadata>
<g inkscape:label="Layer 1" inkscape:groupmode="layer" id="layer1" transform="translate(0,-874.36218)">
<rect style="fill:#ed1c24;fill-opacity:1;fill-rule:evenodd;stroke:black;stroke-width:1;stroke-linecap:butt;stroke-linejoin:miter;stroke-opacity:1;stroke-miterlimit:4;stroke-dasharray:none" id="rect3007" width="266.00055" height="177.00053" x="0.49973521" y="874.86194" />
<path style="fill:white;fill-opacity:1;fill-rule:evenodd;stroke:black;stroke-width:1;stroke-linecap:butt;stroke-linejoin:miter;stroke-miterlimit:4;stroke-opacity:1;stroke-dasharray:none" d="m 59.054724,935.41363 c -17.9431,0 -17.92829,7.002 -35.78125,7 c -12.309709,0 -15.6721128,-2.88877 -22.74107088,-4.95977 l 0,49.45977 c 7.04713308,2.0717 10.44915388,5.3695 22.74107088,5.375 c 17.85625,0.01 17.83815,-7 35.78125,-7 c 17.94235,0 17.963139,7.0313 35.90625,7.0313 c 17.943126,0 17.933046,-7.0313 35.875006,-7.0313 c 17.9431,0 17.96312,7.0313 35.90625,7.0313 c 17.9431,0 17.93228,-7.0313 35.875,-7.0313 c 17.94273,0 17.95335,7.0165 35.625,7 c 14.66255,-0.014 17.17048,-4.824 27.84375,-6.4687 l 0,-49.8125 c -10.42738,1.6873 -13.03326,6.407 -27.6875,6.4062 c -17.82868,0 -17.83853,-7 -35.78125,-7 c -17.94273,0 -17.9319,7 -35.875,7 c -17.94312,0 -17.96315,-7 -35.90625,-7 c -17.94273,0 -17.93265,7 -35.875006,7 c -17.942721,0 -17.9639,-7 -35.90625,-7 z" id="rect3007-8" inkscape:connector-curvature="0" sodipodi:nodetypes="sccccsssssccccsssss" />
</g>
</svg>
