<?xml version="1.0" encoding="UTF-8" standalone="no"?>
<svg
   xmlns:dc="http://purl.org/dc/elements/1.1/"
   xmlns:cc="http://creativecommons.org/ns#"
   xmlns:rdf="http://www.w3.org/1999/02/22-rdf-syntax-ns#"
   xmlns:svg="http://www.w3.org/2000/svg"
   xmlns="http://www.w3.org/2000/svg"
   xmlns:sodipodi="http://sodipodi.sourceforge.net/DTD/sodipodi-0.dtd"
   xmlns:inkscape="http://www.inkscape.org/namespaces/inkscape"
   version="1.0"
   width="394.000000pt"
   height="263.000000pt"
   viewBox="0 0 394.000000 263.000000"
   preserveAspectRatio="xMidYMid meet"
   id="svg2"
   inkscape:version="0.48.3.1 r9886"
   sodipodi:docname="Tarutyne_Raion_Flag.svg">
  <defs
     id="defs14" />
  <sodipodi:namedview
     pagecolor="#ffffff"
     bordercolor="#666666"
     borderopacity="1"
     objecttolerance="10"
     gridtolerance="10"
     guidetolerance="10"
     inkscape:pageopacity="0"
     inkscape:pageshadow="2"
     inkscape:window-width="1920"
     inkscape:window-height="1018"
     id="namedview12"
     showgrid="false"
     inkscape:zoom="4.06089"
     inkscape:cx="187.90226"
     inkscape:cy="176.87283"
     inkscape:window-x="-8"
     inkscape:window-y="-8"
     inkscape:window-maximized="1"
     inkscape:current-layer="svg2" />
  <metadata
     id="metadata4">
Created by potrace 1.11, written by Peter Selinger 2001-2013
<rdf:RDF>
  <cc:Work
     rdf:about="">
    <dc:format>image/svg+xml</dc:format>
    <dc:type
       rdf:resource="http://purl.org/dc/dcmitype/StillImage" />
  </cc:Work>
</rdf:RDF>
</metadata>
  <rect
     style="fill:#ffff00;fill-opacity:1"
     id="rect2999"
     width="395.05719"
     height="264.6716"
     x="0.55720681"
     y="0.55720323" />
  <g
     transform="matrix(0.1,0,0,-0.1,1.1936427,263.5572)"
     id="g6"
     style="fill:#000000;stroke:none">
    <path
       d="m 1970,1315 0,-1315 985,0 985,0 0,1315 0,1315 -985,0 -985,0 0,-1315 z"
       id="path8"
       inkscape:connector-curvature="0" />
    <path
       d="m 850,2020 c 0,-25 -4,-30 -23,-30 -12,0 -29,-9 -37,-20 -8,-11 -18,-20 -22,-20 -5,0 -27,-13 -50,-30 -22,-16 -51,-30 -63,-30 -25,0 -37,-26 -28,-61 4,-15 12,-20 28,-17 16,3 22,0 21,-11 -1,-12 8,-16 39,-15 21,1 41,7 43,13 5,14 42,15 42,1 0,-5 7,-10 15,-10 10,0 15,-10 15,-30 0,-16 -4,-30 -9,-30 -5,0 -12,-8 -15,-18 -3,-10 -24,-37 -46,-61 -22,-23 -40,-49 -40,-57 0,-8 -4,-14 -10,-14 -5,0 -10,-7 -10,-15 0,-8 -4,-15 -10,-15 -5,0 -12,-11 -16,-25 -3,-14 -10,-25 -15,-25 -5,0 -9,-16 -9,-35 0,-34 -1,-35 -23,-23 -12,7 -25,17 -28,21 -3,5 -25,11 -48,14 -23,3 -44,10 -47,14 -10,16 -64,10 -64,-7 0,-8 -5,-12 -10,-9 -6,4 -10,-7 -10,-24 0,-17 5,-31 10,-31 6,0 10,-7 10,-16 0,-8 4,-12 10,-9 6,3 10,0 11,-7 1,-30 10,-62 17,-68 5,-3 12,-14 15,-24 10,-24 -11,-43 -88,-81 -33,-16 -63,-34 -67,-39 -3,-5 -14,-11 -24,-12 -9,-2 -20,-6 -23,-11 -3,-4 -28,-19 -54,-33 -27,-14 -63,-37 -80,-52 l -31,-28 57,0 c 51,0 57,2 57,21 0,11 5,17 10,14 6,-3 10,-2 10,4 0,5 11,8 24,5 22,-4 56,17 56,34 0,10 59,42 78,42 10,0 39,12 67,26 32,18 50,23 53,15 2,-6 10,-18 18,-25 8,-8 14,-19 14,-24 0,-6 7,-12 14,-15 11,-5 16,4 18,36 l 3,42 110,2 c 102,1 114,-1 172,-28 52,-25 74,-29 142,-29 77,0 81,-1 82,-22 1,-13 1,-27 0,-32 -1,-5 1,-21 4,-36 5,-22 14,-29 40,-34 18,-4 36,-13 39,-21 4,-12 -4,-15 -39,-15 -25,0 -45,-4 -45,-10 0,-6 -28,-10 -65,-10 -63,0 -65,-1 -65,-26 0,-23 -60,-109 -60,-87 0,4 -4,1 -9,-7 -11,-16 -5,-30 12,-30 8,0 8,3 -1,9 -9,5 2,10 32,13 50,6 76,26 76,57 0,18 6,21 40,21 22,0 40,5 40,10 0,6 26,10 59,10 32,0 86,3 120,6 55,6 61,9 61,30 0,21 3,23 33,17 17,-3 34,-10 35,-15 2,-4 11,-16 20,-25 9,-9 17,-23 19,-32 1,-8 7,-17 12,-19 20,-7 13,-135 -9,-183 -32,-70 -54,-89 -127,-115 -16,-6 -16,-7 2,-14 11,-5 37,-9 58,-9 30,-1 39,3 46,22 14,34 45,57 76,57 13,0 15,21 15,129 0,79 4,131 10,133 6,2 13,20 17,41 5,36 4,37 -23,37 -22,0 -26,3 -14,10 12,8 9,10 -12,10 -58,0 -67,38 -27,104 32,53 21,136 -28,203 -29,39 -29,50 -1,59 36,11 75,-44 81,-115 6,-71 26,-151 38,-151 5,0 9,-9 9,-19 0,-10 7,-21 15,-25 8,-3 15,-12 15,-21 0,-19 35,-55 54,-55 7,0 22,-11 32,-25 23,-30 34,-32 34,-5 0,11 -4,20 -9,20 -20,0 -42,33 -37,55 4,16 -1,28 -19,41 -30,22 -32,34 -6,34 11,0 22,-9 26,-19 3,-10 16,-21 29,-23 30,-6 25,10 -9,36 -14,10 -25,25 -25,33 0,8 -4,11 -10,8 -5,-3 -10,0 -10,9 0,8 -4,16 -9,18 -4,2 -12,13 -15,26 -6,17 -3,22 11,22 14,0 15,-2 4,-9 -11,-7 -9,-10 7,-15 12,-4 24,-16 27,-26 6,-18 41,-37 51,-27 3,3 -6,16 -20,30 -14,15 -28,36 -29,49 -2,12 -9,24 -15,26 -7,2 -12,13 -12,24 0,10 -7,26 -15,34 -8,9 -15,22 -15,30 0,15 26,20 32,5 5,-15 40,-17 45,-3 3,6 -2,12 -10,12 -9,0 -17,5 -19,11 -2,5 -11,11 -19,12 -9,2 -24,10 -33,20 -10,9 -23,17 -29,17 -7,0 -21,11 -31,25 -10,14 -28,25 -40,25 -17,0 -18,2 -6,10 13,8 12,10 -2,10 -10,0 -18,4 -18,9 0,5 -25,13 -57,17 -69,8 -88,-8 -78,-70 l 6,-39 -32,7 c -17,3 -64,6 -103,6 -49,0 -66,3 -56,10 12,7 8,10 -15,10 -23,0 -27,3 -15,10 12,8 9,10 -11,10 -27,0 -69,29 -69,47 0,6 -10,18 -22,27 l -23,17 22,-4 c 15,-3 20,-1 16,9 -3,8 -9,14 -14,14 -15,0 -10,20 12,43 15,17 19,18 14,5 -4,-11 -2,-18 4,-18 6,0 11,9 11,20 0,11 -4,20 -10,20 -18,0 -11,40 8,40 15,1 14,3 -5,19 -13,11 -18,23 -13,31 6,10 9,10 13,-1 4,-11 6,-11 6,-1 1,7 -6,20 -14,28 -8,9 -15,24 -15,35 0,10 -4,19 -10,19 -18,0 -11,38 7,42 14,3 9,12 -25,46 -23,23 -47,42 -53,42 -19,0 -40,29 -46,65 -5,33 -26,44 -29,17 -1,-7 -2,-15 -3,-19 0,-4 -10,3 -21,15 -27,29 -30,28 -30,-8 z"
       id="path10"
       inkscape:connector-curvature="0" />
  </g>
  <rect
     style="fill:#008000;fill-opacity:1"
     id="rect3031"
     width="196.60715"
     height="264.76953"
     x="198.57716"
     y="0.20046873" />
  <path
     style="fill:#ffff00;fill-opacity:1"
     id="path2988"
     d="m 68.001571,154.43325 c 0.993178,1.55732 0.252933,0.3468 0.94522,1.57907 0.04231,0.0753 0.108273,0.13853 0.13701,0.22 0.03671,0.10408 0.02894,0.2193 0.05571,0.32636 0.0103,0.0412 -0.02385,-0.16583 -0.0059,-0.12731 0.03768,0.0811 0.04496,0.17309 0.06744,0.25964 0.0093,0.10088 3.96e-4,0.20518 0.02804,0.30266 0.03738,0.13181 0.216723,0.23805 0.288257,0.32911 0.276449,0.35191 0.302436,0.65912 0.274282,1.08846 -0.02243,0.0949 -0.06916,0.18728 -0.06729,0.28481 4.65e-4,0.0243 0.05733,-0.0184 0.07277,3.4e-4 0.04819,0.0584 0.07155,0.13414 0.09696,0.2055 0.114976,0.3229 0.114926,0.61865 0.09271,0.9551 0.02133,0.21461 -0.117859,0.49726 -0.04733,0.70978 0.0102,0.0307 0.06946,0.0127 0.08926,0.0383 0.136224,0.17619 0.165022,0.3735 0.223081,0.58258 0.0042,0.11867 -0.0015,0.2381 0.01256,0.35601 0.0052,0.0439 -0.02994,-0.12849 0.01412,-0.13179 0.05111,-0.004 0.05678,0.0858 0.09108,0.1239 0.0463,0.0514 0.111192,0.0863 0.149827,0.14366 0.268927,0.39954 0.04098,0.30149 0.264649,0.37675 0.272046,0.29505 0.198638,0.72986 0.396712,1.06289 0.01269,0.0213 0.03137,-0.0657 0.05255,-0.0528 0.06403,0.0392 0.09606,0.11534 0.144093,0.17301 0.24567,0.7798 0.04625,-3.7e-4 0.110717,0.74938 0.003,0.0347 1.1e-4,-0.10883 0.03349,-0.0989 0.05104,0.0151 0.06635,0.0851 0.08621,0.13444 0.122681,0.30508 0.09745,0.33855 0.115914,0.66581 -0.02292,0.35678 -0.04528,0.41403 0.0119,0.18402 0.03431,0.0627 -0.852012,0.54794 -0.886326,0.48527 l 0,0 c -0.195726,-0.49377 -0.181678,-0.27169 -0.145954,-0.65142 6.39e-4,-0.0104 0.01937,-0.18927 0.0017,-0.22973 -0.0571,-0.13068 -0.396829,-0.67984 -0.15878,-0.66375 -0.299759,-0.3125 -0.459414,-0.61758 -0.542529,-1.04269 -0.0025,-0.0127 0.04022,0.008 0.03854,-0.005 -0.0037,-0.0281 -0.03223,-0.0465 -0.04835,-0.0698 -0.08028,-0.0933 -0.160554,-0.18656 -0.240831,-0.27985 -0.02138,-0.0479 -0.03468,-0.10022 -0.06413,-0.14358 -0.178869,-0.26339 -0.495256,-0.49981 -0.434227,-0.86305 -0.07467,-0.30504 -0.264441,-0.54039 -0.335394,-0.85629 -0.05456,-0.24292 0.05237,-0.52107 0.0491,-0.76483 0.01012,-0.0994 0.03249,-0.24441 0.01615,-0.34741 -0.06029,-0.38008 -0.392232,-0.73938 -0.205771,-1.14167 0.160171,-0.35899 -0.745035,-0.90057 -0.571424,-1.44255 0.01667,-0.1366 0.0084,-0.0187 -0.06163,-0.29862 -0.01705,-0.0681 0.121102,0.22888 0.0557,0.20324 -0.282492,-0.11076 -1.151575,-1.85935 -1.257158,-1.8947 -0.03069,-0.0748 1.026668,-0.50874 1.057354,-0.43397 z"
     inkscape:connector-curvature="0"
     transform="scale(0.8,0.8)" />
  <path
     style="fill:#ffff00;fill-opacity:1"
     id="path2990"
     d="m 72.625058,165.17755 c 0.779342,0.0217 1.576886,-0.0623 2.353661,0.0556 0.282427,0.0428 0.506346,0.32659 0.811978,0.34167 0.05699,0.0445 -0.572272,0.85047 -0.629263,0.80598 l 0,0 c -0.110434,-0.0799 -0.399921,-0.12202 -0.331302,-0.23982 0.07315,-0.12557 0.288433,0.0385 0.430367,0.0697 0.01049,0.002 -0.01524,0.0175 -0.02584,0.0192 -0.099,0.0163 -0.198877,0.0283 -0.299031,0.0342 -0.818902,0.0481 -1.126319,0.0276 -2.026085,0.0214 -0.07835,0.0201 -0.362831,-1.08787 -0.284484,-1.10799 z"
     inkscape:connector-curvature="0"
     transform="scale(0.8,0.8)" />
  <path
     style="fill:#ffff00;fill-opacity:1"
     id="path2992"
     d="m 72.091387,165.20831 c 0.344976,0.54228 0.486916,1.17289 0.75614,1.74773 0.0087,0.0187 0.03879,-0.0614 0.01831,-0.0591 -0.26792,0.0306 -0.525934,0.1594 -0.795357,0.14795 -0.06333,-0.003 0.02636,-0.12809 0.06407,-0.17904 0.08963,-0.12109 0.207401,-0.21857 0.311101,-0.32785 0.625521,-0.1959 0.275595,-0.13608 1.058473,-0.11775 0.06911,0.0226 -0.250236,0.9999 -0.319343,0.97732 l 0,0 c 0.06511,-0.0586 0.04747,-0.0223 -0.06505,-0.10236 -0.0092,-0.0375 0.0104,-0.11956 -0.0275,-0.11239 -0.0464,0.009 -0.03937,0.0859 -0.05906,0.12878 -0.28564,0.11088 -0.57128,0.22176 -0.85692,0.33264 -0.414182,0.009 -1.100129,-1.97925 -1.195563,-2.12824 -0.02176,-0.0785 1.088931,-0.38625 1.110689,-0.30772 z"
     inkscape:connector-curvature="0"
     transform="scale(0.8,0.8)" />
  <path
     style="fill:#ffff00;fill-opacity:1"
     id="path2994"
     d="m 74.486662,165.7036 c 0.659162,0.1534 1.331898,0.23854 1.993709,0.37844 0.0089,0.002 -0.01702,0.007 -0.02414,0.013 -0.101524,0.0814 -0.214339,0.15132 -0.301435,0.24797 -0.02957,0.0328 -0.06742,0.15908 -0.03673,0.12731 0.139367,-0.14425 0.247503,-0.31571 0.371254,-0.47357 0.512819,-0.0764 0.248858,-0.0573 0.913522,-0.0338 0.102535,0.004 0.209071,-0.0144 0.307445,0.0147 0.306008,0.0907 0.521169,0.32077 0.839202,0.34656 -0.04228,-0.0125 -0.15982,-0.008 -0.126839,-0.0374 0.09822,-0.0871 1.377651,-0.0738 1.505028,-0.0681 0.417428,0.0158 0.773489,0.005 1.206637,0.003 0.331742,-0.001 0.663481,2.4e-4 0.995222,8.8e-4 0.06985,0.0181 -0.185514,1.00591 -0.255366,0.98785 l 0,0 c -0.161023,-3.2e-4 -0.322048,-2.7e-4 -0.483068,-0.001 -0.581488,0.001 -1.163252,0.0154 -1.744473,-0.009 -0.44981,-0.009 -1.011601,0.0928 -1.545565,0.0398 -0.104274,-0.0343 -0.210652,-0.0629 -0.312822,-0.10304 -0.128349,-0.0505 -0.239499,-0.15086 -0.375505,-0.17373 -0.101444,-0.0171 -0.205742,-0.007 -0.308184,-0.0161 -0.05373,-0.005 -0.05904,-0.16192 -0.148437,-0.0645 0.05193,-0.13734 0.06869,-0.2938 0.155784,-0.41201 0.05005,-0.0679 0.0089,0.17948 -0.03673,0.25044 -0.0936,0.14554 -0.201406,0.30921 -0.362998,0.3711 -0.529022,0.20262 -2.243435,-0.28134 -2.709212,-0.34733 -0.0736,-0.0342 0.410104,-1.07512 0.483707,-1.04091 z"
     inkscape:connector-curvature="0"
     transform="scale(0.8,0.8)" />
  <path
     style="fill:#ffff00;fill-opacity:1"
     id="path2996"
     d="m 70.005497,154.727 c 0.669581,0.23111 1.699216,0.17244 2.204567,0.79299 0.164462,0.20196 0.189238,0.50004 0.216586,0.74438 0.01058,-0.0396 -0.0084,-0.11051 0.03175,-0.11872 0.02179,-0.004 0.946507,0.31234 0.956294,0.31925 0.11518,0.0814 0.194531,0.20421 0.291796,0.30631 0.05502,0.10596 0.110043,0.21193 0.165065,0.31789 0.02764,0.003 0.06324,-0.009 0.08291,0.0104 0.06975,0.07 0.09766,0.17539 0.1697,0.24299 0.01514,0.0142 0.01288,-0.0588 0.03281,-0.053 0.867968,0.25338 -0.284631,0.0475 0.416021,0.15897 0.188165,0.14233 0.396507,0.38006 0.613781,0.49497 0.01037,0.005 0.454794,0.056 0.244322,-0.033 1.850315,0.33877 0.01177,-0.0469 0.947924,0.23568 0.05907,0.0178 0.131777,-0.009 0.183394,0.0252 0.120288,0.0788 0.204583,0.20227 0.311181,0.29878 0.0254,0.023 0.066,0.03 0.08412,0.0591 0.06712,0.10778 0.110782,0.2285 0.166173,0.34275 0.01581,-0.0445 0.05543,-0.14182 0.04109,-0.18403 -0.0082,-0.0242 -0.09304,-0.0412 -0.06803,-0.0357 0.21302,0.047 0.42824,0.0894 0.63441,0.16064 0.347208,0.12003 0.05631,0.14355 0.280912,0.10875 0.360178,0.0751 0.521311,0.48756 0.871014,0.57178 0.04262,0.0103 0.08534,-0.0385 0.128208,-0.0293 0.179694,0.0385 0.344344,0.13141 0.523035,0.17435 0.400805,-0.0237 0.76445,0.28848 1.092958,0.47898 0.06072,0.0352 0.130546,0.0516 0.195818,0.0774 0.0963,0.0629 0.192594,0.12579 0.288891,0.18869 0.06034,0.017 0.118424,0.0476 0.181025,0.051 0.438371,0.0237 -0.01925,-0.068 0.04042,-0.0581 0.617959,0.10205 0.805874,0.12904 1.276345,0.47607 0.141775,0.5643 0.658043,0.64389 0.985079,1.04924 0.09391,0.1164 0.151178,0.2581 0.226767,0.38715 0.226851,0.31263 0.217857,0.64169 0.236702,1.00425 0.0011,0.0213 -0.02873,-0.26906 0.105976,-0.17481 0.104445,0.0731 0.174684,0.18569 0.262026,0.27854 0.461426,0.60271 -0.02225,-0.0831 0.367683,0.6756 0.0099,0.0193 0.04798,0.005 0.06125,0.022 0.04823,0.0623 0.05468,0.15615 0.115428,0.20637 0.03619,0.0299 -0.02121,-0.0915 -0.03181,-0.13725 0.0766,0.083 0.153203,0.16602 0.229805,0.24903 0.201884,0.25709 0.454389,0.66208 0.375759,1.01351 -0.04057,0.1813 -0.16742,0.33172 -0.25113,0.49758 -0.0427,0.0578 -0.859544,-0.54605 -0.816848,-0.60381 l 0,0 c 0.119875,0.50677 0.02436,-0.27476 -0.143746,-0.34647 0.159908,0.0871 -0.03059,-0.0136 -0.273351,-0.24162 -0.157232,-0.14765 -0.204948,-0.35389 -0.299002,-0.52151 -0.04327,-0.0771 -0.105968,-0.1416 -0.158952,-0.2124 -0.118963,-0.13241 -0.297117,-0.20679 -0.404187,-0.34899 -0.235348,-0.31257 -0.05607,-0.62777 -0.307038,-0.92221 -0.2451,-0.44356 -0.86695,-0.63192 -1.004609,-1.14353 -0.05361,-0.0383 -0.10242,-0.0844 -0.160839,-0.11484 -0.07184,-0.0374 -0.203641,-0.01 -0.226851,-0.0872 -0.01839,-0.0615 0.251023,-0.0446 0.186862,-0.0465 -0.511195,-0.0149 -0.797013,0.10561 -1.254989,-0.18339 -0.426013,-0.25963 -0.858825,-0.55175 -1.364986,-0.60617 -0.264838,-0.0806 -0.601022,-0.15037 -0.84774,-0.26594 -0.363633,-0.17035 -0.246489,-0.18377 -0.519544,-0.37759 -0.04789,-0.034 -0.103947,-0.0547 -0.155921,-0.0821 -0.09667,-0.041 -0.194828,-0.0787 -0.289994,-0.12309 -0.04175,-0.0195 -0.162665,-0.0504 -0.120189,-0.0683 0.09087,-0.0382 0.394195,-0.008 0.295666,-0.005 -0.548588,0.0163 -0.951624,0.0667 -1.26586,-0.44582 0.125788,0.064 -0.02721,-0.009 -0.111656,-0.12242 -0.01731,-0.0233 0.10585,0.0457 0.07742,0.0399 -0.0832,-0.0171 -0.51144,-0.14576 -0.523459,-0.16909 -0.02523,-0.049 0.105895,-0.0305 0.158842,-0.0457 -0.675614,0.028 -0.951534,0.0457 -1.487014,-0.37277 -0.204631,-0.15993 -0.139926,-0.0792 -0.205473,-0.16504 -0.483572,-0.19896 -0.977212,-0.49916 -1.199215,-0.99886 0.113119,0.0481 0.29326,0.12357 -0.276507,-0.0929 -0.330816,-0.12567 -0.732784,-0.23612 -0.964852,-0.52438 -0.09409,-0.11689 -0.143002,-0.26384 -0.214503,-0.39576 -1.9e-4,-0.0434 0.0036,-0.087 -5.72e-4,-0.13026 -0.0031,-0.0314 -0.0471,-0.11014 -0.02111,-0.0923 0.0439,0.0302 0.11202,0.0902 0.08436,0.1358 -0.02476,0.0408 -0.08216,-0.0513 -0.128295,-0.0634 -0.570685,-0.15028 -1.161861,-0.21567 -1.730286,-0.37483 -0.07621,-0.0273 0.310221,-1.10504 0.386428,-1.07772 z"
     inkscape:connector-curvature="0"
     transform="scale(0.8,0.8)" />
  <path
     style="fill:#ffff00;fill-opacity:1"
     id="path2998"
     d="m 82.424143,166.05457 c 0.889851,-0.0961 1.227895,-0.15933 2.053944,-0.16869 0.0094,-10e-5 0.01274,0.0169 0.01075,0.0261 -0.04283,0.1975 -0.09607,0.3926 -0.14411,0.5889 -0.0435,-0.0561 0.749605,-0.67128 0.793106,-0.6152 l 0,0 c 0.01353,0.25786 0.115703,0.52654 0.04058,0.77359 -0.143979,0.47348 -2.078819,0.38898 -2.367837,0.47303 -0.07621,0.0273 -0.462634,-1.0504 -0.386428,-1.07772 z"
     inkscape:connector-curvature="0"
     transform="scale(0.8,0.8)" />
  <path
     style="fill:#ffff00;fill-opacity:1"
     id="path3000"
     d="m 71.563776,165.4509 c -0.548826,-0.36335 -1.899539,-0.91654 -1.650441,-1.87405 0.05655,-0.21738 0.263081,-0.36413 0.394621,-0.54619 0.05112,-0.0518 0.783537,0.67121 0.732413,0.723 l 0,0 c -0.03263,-0.0589 -0.05247,-0.12705 -0.09788,-0.17681 -0.02009,-0.022 -0.106748,-0.046 -0.08596,-0.0247 0.465927,0.47869 0.759354,0.58902 1.390535,0.9825 0.06479,0.0483 -0.618502,0.96453 -0.683288,0.91621 z"
     inkscape:connector-curvature="0"
     transform="scale(0.8,0.8)" />
  <path
     style="fill:#ffff00;fill-opacity:1"
     id="path3002"
     d="m 72.950709,163.7308 c 0.0811,-0.27657 0.463288,-1.55585 0.567986,-1.98213 0.01631,-0.0664 -0.02167,-0.25159 0.02685,-0.2034 0.10359,0.10291 0.131957,0.54231 0.173356,0.40229 0.462564,-1.56453 -0.384133,-0.42834 0.132082,-1.06205 0.03046,-0.0672 0.06091,-0.13445 0.09137,-0.20168 0.02715,-0.0678 0.98604,0.31609 0.958895,0.38389 l 0,0 c -0.06702,0.13286 -0.134034,0.26571 -0.201051,0.39856 -0.07563,0.083 -0.139035,0.31896 -0.226901,0.24903 -0.17836,-0.14195 -0.373399,-0.43809 -0.256646,-0.63388 0.100038,-0.16776 0.279481,0.28502 0.358045,0.46384 0.238537,0.54295 -0.429097,2.04787 -0.513297,2.49325 -0.02176,0.0785 -1.132448,-0.22918 -1.11069,-0.30772 z"
     inkscape:connector-curvature="0"
     transform="scale(0.8,0.8)" />
  <path
     style="fill:#ffff00;fill-opacity:1"
     id="path3004"
     d="m 69.360661,154.51998 c 0.606944,0.40817 1.417399,0.43997 2.038598,0.8305 0.127104,0.0799 0.196323,0.2272 0.294485,0.3408 0.04431,0.0571 -0.763593,0.6838 -0.807906,0.62667 l 0,0 c -0.704503,-0.26887 -1.424069,-0.44558 -2.099443,-0.7987 -0.07066,-0.0406 0.503607,-1.03988 0.574266,-0.99927 z"
     inkscape:connector-curvature="0"
     transform="scale(0.8,0.8)" />
  <path
     style="fill:#ffff00;fill-opacity:1"
     id="path3006"
     d="m 69.360661,154.51998 c 0.383149,0.17158 0.766297,0.34316 1.149446,0.51475 0.06751,0.0464 -0.589382,1.00122 -0.656895,0.95477 l 0,0 c -0.355605,-0.15675 -0.711211,-0.3135 -1.066817,-0.47025 -0.07066,-0.0406 0.503607,-1.03988 0.574266,-0.99927 z"
     inkscape:connector-curvature="0"
     transform="scale(0.8,0.8)" />
  <path
     style="fill:#ffff00;fill-opacity:1"
     id="path3008"
     d="m 68.438783,154.34249 c 0.304638,0.0216 2.492364,-0.17146 2.703293,0.30347 0.12486,0.28115 -0.09035,0.60858 -0.135527,0.91286 -0.04143,0.0601 -0.890892,-0.52585 -0.849461,-0.58592 l 0,0 c 0.09847,0.14012 0.159736,0.31585 0.295413,0.42036 0.07896,0.0608 0.395655,0.0227 0.296851,0.0358 -0.385311,0.0511 -1.800585,0.0229 -2.026085,0.0214 -0.07835,0.0201 -0.362831,-1.08788 -0.284484,-1.10799 z"
     inkscape:connector-curvature="0"
     transform="scale(0.8,0.8)" />
  <path
     style="fill:#ffff00;fill-opacity:1"
     id="path3010"
     d="m 73.117561,166.40881 c -0.01383,0.0602 2.359962,-0.0679 2.353661,0.0556 -0.0073,0.14311 -0.216861,0.18784 -0.33227,0.27279 -0.146884,0.10811 0.181441,-0.31665 0.280598,-0.46973 0.487615,-0.34934 1.013919,-0.34429 1.588019,-0.33351 0.06932,0.0212 -0.231052,1.0016 -0.300374,0.98036 l 0,0 c 0.169668,-0.0859 -0.683156,0.0166 -0.65133,0.12821 0.173943,-0.75159 0.154708,0.0327 -0.328704,0.41869 -0.0784,0.0626 -0.198877,0.0283 -0.299031,0.0342 -0.818903,0.0481 -1.126319,0.0276 -2.026085,0.0214 -0.07835,0.0201 -0.362831,-1.08787 -0.284484,-1.10799 z"
     inkscape:connector-curvature="0"
     transform="scale(0.8,0.8)" />
  <path
     style="fill:#ffff00;fill-opacity:1"
     id="path3012"
     d="m 72.625058,166.16256 c 0.920498,-0.006 1.199931,-0.0264 2.037063,0.0214 0.270695,0.0154 0.419718,0.0496 0.687347,0.0395 0.379465,-0.01 0.759064,-0.005 1.13857,-0.001 0.06992,-0.018 0.3238,0.97085 0.253881,0.9888 l 0,0 c -0.379735,0.003 -0.759561,0.008 -1.139256,-0.001 -0.292069,-0.0107 -0.375741,0.0224 -0.667036,0.0395 -0.818902,0.0481 -1.126319,0.0276 -2.026085,0.0214 -0.07835,0.0201 -0.362831,-1.08788 -0.284484,-1.10799 z"
     inkscape:connector-curvature="0"
     transform="scale(0.8,0.8)" />
  <path
     style="fill:#ffff00;fill-opacity:1"
     id="path3014"
     d="m 80.84056,166.30082 c 2.112759,0.19435 0.424075,0.0307 2.009205,0.20069 0.08818,0.009 0.320494,-0.0447 0.264939,0.0245 -0.06315,0.0786 -0.369774,0.0956 -0.301669,0.0213 0.141552,-0.15447 0.399821,-0.12558 0.598125,-0.19322 0.817264,-0.27092 -0.05785,0.0626 0.439724,-0.24983 1.111796,-0.69806 -0.260821,0.24354 0.506062,-0.29012 0.362148,-0.26649 -0.0425,0.0176 0.509619,-0.30277 0.01695,-0.01 0.02664,-0.0288 0.03996,-0.0431 -0.0581,0.0854 -0.11619,0.17075 -0.174285,0.25612 -0.02448,-0.0679 0.935318,-0.41403 0.959795,-0.34616 l 0,0 c 0.0076,0.23575 0.08118,0.47869 0.02291,0.70726 -0.08148,0.31962 -0.538312,0.29904 -0.724005,0.51406 -0.2971,0.0592 0.35486,-0.084 -0.372048,0.25192 -0.03267,0.0151 0.04766,-0.10015 0.01238,-0.10726 -0.05416,-0.0109 -0.449246,0.58261 -0.683798,0.48892 -0.12761,0.0489 -0.255219,0.0977 -0.382829,0.14657 -0.03213,-0.0209 -0.05882,-0.0704 -0.0964,-0.0627 -0.210165,0.0426 -0.400956,0.15591 -0.609483,0.20595 -0.748582,0.17962 -1.6705,-0.16931 -2.404633,-0.14424 -0.07621,-0.0273 0.310221,-1.10505 0.386428,-1.07772 z"
     inkscape:connector-curvature="0"
     transform="scale(0.8,0.8)" />
  <path
     style="fill:#ffff00;fill-opacity:1"
     id="path3016"
     d="m 72.049608,163.99367 c 0.211112,0.37581 0.422224,0.75163 0.633336,1.12744 0.12524,0.19617 0.25778,0.38787 0.375721,0.58852 0.03919,0.0667 0.169218,0.19101 0.09473,0.21183 -0.291507,0.0815 -0.626013,0.12566 -0.907893,0.0154 -0.109039,-0.0427 0.07122,-0.27884 0.186811,-0.29745 0.296268,-0.0477 0.594461,0.0825 0.891692,0.12382 0.03905,0.0591 -0.797319,0.61139 -0.836369,0.55225 l 0,0 c 0.245928,-0.0203 0.497546,-0.005 0.737784,-0.0609 0.0366,-0.009 0.03928,-0.11848 0.0021,-0.11276 -0.330819,0.0509 -0.636174,0.23071 -0.969456,0.26166 -0.07255,0.007 -0.106118,-0.10057 -0.151526,-0.15755 -0.648729,-0.81415 -0.49129,-0.65208 -1.084079,-1.73156 -0.03682,-0.0726 0.990307,-0.59337 1.02713,-0.52074 z"
     inkscape:connector-curvature="0"
     transform="scale(0.8,0.8)" />
  <path
     style="fill:#ffff00;fill-opacity:1"
     d="m 69.689157,154.89649 c -0.768562,0.83444 -0.738754,0.73136 -0.738754,1.4775 0,0.0821 0,0.16417 0,0.24626 0,0.0821 0.03671,0.17283 0,0.24625 -0.05191,0.10383 -0.194338,0.14242 -0.246252,0.24625 -0.03183,0.0637 0,1.30296 0,1.47751 0,0.0904 -0.0099,0.97509 0,0.985 0.05804,0.058 0.18821,-0.058 0.246252,0 0.116084,0.11609 -0.07342,0.34567 0,0.49251 0.164447,0.32889 0.328055,0.1636 0.492502,0.4925 0.03671,0.0734 -0.03671,0.17283 0,0.24625 0.05192,0.10383 0.194337,0.14242 0.246252,0.24625 0.03671,0.0734 -0.03671,0.17283 0,0.24625 0.05191,0.10383 0.194337,0.14243 0.246251,0.24625 0.06679,0.13359 -0.06738,0.91763 0,0.98501 0.05804,0.058 0.18821,-0.058 0.246252,0 0.05804,0.058 -0.05804,0.18821 0,0.24625 0.05804,0.058 0.188209,-0.058 0.246251,0 0.08644,0.0864 -0.08505,1.06116 0,1.23126 0.05192,0.10383 0.194337,0.14242 0.246252,0.24625 0.07342,0.14684 -0.116084,0.37642 0,0.4925 0.05804,0.058 0.188209,-0.058 0.246251,0 0.05034,0.0503 -0.04882,0.64112 0,0.73876 0.05191,0.10383 0.164168,0.16416 0.246251,0.24625 0.08208,0.0821 0.142423,0.19434 0.246252,0.24625 0.07342,0.0367 0.246251,-0.0821 0.246251,0 0,0.0821 -0.328335,0 -0.246251,0 1.805844,0 3.611688,0 5.417532,0 0.574586,0 1.149173,0 1.72376,0 0.164167,0 0.328335,0 0.492502,0 0.164168,0 0.333237,-0.0398 0.492503,0 0.178065,0.0445 0.318377,0.18821 0.492503,0.24625 0.07787,0.026 0.16838,-0.026 0.246252,0 0.174126,0.058 0.318376,0.18821 0.492503,0.24625 0.15456,0.0515 0.786764,0 0.985005,0 0.820838,0 1.641677,0 2.462515,0 0.05972,0 0.730835,0.008 0.738754,0 0.05804,-0.058 -0.05804,-0.18821 0,-0.24625 0.05804,-0.058 0.188209,0.058 0.246251,0 0.05804,-0.058 -0.08208,-0.24625 0,-0.24625 0.08208,0 0,0.16417 0,0.24625"
     id="path3020"
     inkscape:connector-curvature="0"
     transform="scale(0.8,0.8)" />
  <path
     style="fill:#ffff00;fill-opacity:1"
     d="m 68.704151,154.65023 c -0.540478,2.48021 0.892817,0.40032 1.231257,0.73876 0.05804,0.058 -0.05804,0.18821 0,0.24625 0.05804,0.058 0.172834,-0.0367 0.246252,0 0.06575,0.0329 0.426749,0.45963 0.492503,0.4925 0.07342,0.0367 0.172833,-0.0367 0.246251,0 0.103829,0.0519 0.142423,0.19434 0.246251,0.24625 0.07342,0.0367 0.18821,-0.058 0.246252,0 0.05804,0.0581 -0.05804,0.18821 0,0.24626 0.961054,0.96105 0.132249,-0.057 0.738754,0.24625 0.103829,0.0519 0.164168,0.16416 0.246252,0.24625 0,0.0821 -0.07342,0.20954 0,0.24625 0.146836,0.0734 0.345667,-0.0734 0.492503,0 0.07342,0.0367 -0.05804,0.18821 0,0.24625 0.05804,0.058 0.172833,-0.0367 0.246251,0 0.242318,0.12116 0.742687,0.86385 0.985006,0.98501 0.07342,0.0367 0.172833,-0.0367 0.246251,0 0.241353,0.12067 0.25115,0.37182 0.492503,0.4925 0.146836,0.0734 0.376419,-0.11608 0.492503,0 0.05804,0.058 -0.05804,0.18821 0,0.24625 0.05804,0.058 0.172833,-0.0367 0.246251,0 0.207658,0.10383 0.284846,0.38868 0.492503,0.4925 0.07342,0.0367 0.172834,-0.0367 0.246252,0 0.103828,0.0519 0.142422,0.19434 0.246251,0.24626 0.197001,0.0985 0.541753,-0.0985 0.738754,0 0.06575,0.0329 0.42675,0.45962 0.492503,0.4925 0.146836,0.0734 0.376419,-0.11609 0.492503,0 0.05804,0.058 -0.05804,0.18821 0,0.24625 0.08199,0.082 0.410512,-0.082 0.492503,0 0.05804,0.058 -0.05804,0.18821 0,0.24625 0.116084,0.11609 0.345667,-0.0734 0.492503,0 1.024839,0.51242 -0.263252,-0.017 0.246251,0.4925 0.06738,0.0674 0.851418,-0.0668 0.985006,0 0.103829,0.0519 0.142423,0.19434 0.246252,0.24626 0.07342,0.0367 0.164167,0 0.246251,0 0.08208,0 0.164168,0 0.246251,0 0.492503,0 0.985006,0 1.477509,0 0.08208,0 0.164168,0 0.246251,0 0.08208,0 0.172834,-0.0367 0.246252,0 1.024839,0.51242 -0.263252,-0.017 0.246251,0.4925 0.05804,0.058 0.18821,-0.058 0.246252,0 0.116084,0.11608 -0.07342,0.34567 0,0.4925 0.05191,0.10383 0.194337,0.14242 0.246251,0.24625 0.07739,0.15478 -0.07739,0.83023 0,0.98501 0.05192,0.10383 0.194337,0.14242 0.246252,0.24625 0.03671,0.0734 -0.03671,0.17283 0,0.24625 0.05191,0.10383 0.194337,0.14242 0.246251,0.24625 0.03671,0.0734 -0.05804,0.18821 0,0.24625 0.05804,0.058 0.18821,-0.058 0.246252,0 0.05804,0.058 -0.03671,0.17284 0,0.24626 0.05191,0.10382 0.194337,0.14242 0.246251,0.24625 0.03747,0.0749 0,0.62785 0,0.73875 0,0.0821 0.08208,0.24625 0,0.24625 -0.08208,0 0,-0.16417 0,-0.24625"
     id="path3022"
     inkscape:connector-curvature="0"
     transform="scale(0.8,0.8)" />
  <path
     style="fill:#ffff00;fill-opacity:1"
     d="m 74.367934,158.59026 c 0.328335,0 0.663047,-0.0644 0.985006,0 0.11383,0.0228 0.142423,0.19433 0.246251,0.24625 0.07342,0.0367 0.172834,-0.0367 0.246252,0 0.103829,0.0519 0.142423,0.19434 0.246251,0.24625 0.170094,0.085 1.144818,-0.0864 1.231257,0 0.05804,0.058 -0.05804,0.18821 0,0.24625 0.05804,0.058 0.172834,-0.0367 0.246252,0 0.103829,0.0519 0.142423,0.19434 0.246251,0.24625 0.197001,0.0985 0.541753,-0.0985 0.738755,0 0.103828,0.0519 0.142422,0.19434 0.246251,0.24625 0.07342,0.0367 0.172833,-0.0367 0.246251,0 0.330205,0.16511 0.162299,0.3274 0.492503,0.49251 0.146836,0.0734 0.345667,-0.0734 0.492503,0 0.103829,0.0519 0.142423,0.19433 0.246252,0.24625 0.146836,0.0734 0.376418,-0.11609 0.492503,0 0.05804,0.058 -0.05804,0.18821 0,0.24625 0.05034,0.0503 0.641117,-0.0488 0.738754,0 1.024839,0.51242 -0.263252,-0.017 0.246251,0.4925 0.116084,0.11609 0.345667,-0.0734 0.492503,0 0.103829,0.0519 0.142423,0.19434 0.246252,0.24625 0.146836,0.0734 0.345666,-0.0734 0.492502,0 0.103829,0.0519 0.164168,0.16417 0.246252,0.24626 0.08208,0.0821 0.328335,0.16416 0.246251,0.24625 -0.08208,0.0821 -0.362335,-0.24625 -0.246251,-0.24625 0.183545,0 0.328335,0.16416 0.492503,0.24625"
     id="path3024"
     inkscape:connector-curvature="0"
     transform="scale(0.8,0.8)" />
  <path
     style="fill:#ffff00;fill-opacity:1"
     d="m 76.830449,164.74654 -2.955018,-6.89504 9.357555,3.94003"
     id="path3026"
     inkscape:connector-curvature="0"
     transform="scale(0.8,0.8)" />
  <path
     style="fill:#ffff00;fill-opacity:1"
     d="m 70.427911,157.60525 12.558823,8.1263"
     id="path3028"
     inkscape:connector-curvature="0"
     transform="scale(0.8,0.8)" />
  <path
     style="fill:#ffff00;fill-opacity:1"
     d="m 78.061706,166.71655 c -0.410419,0 -0.820838,0 -1.231257,0"
     id="path3030"
     inkscape:connector-curvature="0"
     transform="scale(0.8,0.8)" />
  <path
     style="fill:#ffff00;fill-opacity:1"
     d="m 72.644174,167.20906 c 0.902922,0 1.805844,0 2.708766,0 0.164168,0 0.328335,0 0.492503,0 0.08208,0 0.172833,-0.0367 0.246251,0 0.103829,0.0519 0.142423,0.19433 0.246252,0.24625 0.06475,0.0324 0.856235,0 0.985005,0 0.738755,0 1.477509,0 2.216263,0 0.410419,0 0.820838,0 1.231258,0 0.08208,0 0.164167,0 0.246251,0 0.08208,0 0.172833,0.0367 0.246251,0 0.103829,-0.0519 0.142423,-0.19434 0.246252,-0.24625 0.146836,-0.0734 0.376419,0.11608 0.492503,0 0.05804,-0.058 -0.05804,-0.18821 0,-0.24625 0.05804,-0.058 0.188209,0.058 0.246251,0 0.05804,-0.058 -0.05804,-0.18821 0,-0.24626 0.123126,-0.12312 0.615629,0.12313 0.738754,0 0.05804,-0.058 -0.05804,-0.18821 0,-0.24625 0.05804,-0.058 0.164168,0 0.246252,0 0.08208,0 0.164168,0 0.246251,0 0.883584,0 1.06394,0 1.477509,0"
     id="path3032"
     inkscape:connector-curvature="0"
     transform="scale(0.8,0.8)" />
  <path
     style="fill:#ffff00;fill-opacity:1"
     d="m 69.196654,154.15773 0,5.66378"
     id="path3034"
     inkscape:connector-curvature="0"
     transform="scale(0.8,0.8)" />
  <path
     style="fill:#ffff00;fill-opacity:1"
     d="m 72.644174,167.20906 0.738754,-6.64879 c 4.115853,-1e-5 0.534755,-0.34825 1.72376,0.24625 0.339669,0.16983 0.220266,-0.29822 0.492503,0.24625 0.03671,0.0734 -0.05804,0.18821 0,0.24625 0.05804,0.058 0.172834,-0.0367 0.246252,0 0.103829,0.0519 0.142423,0.19434 0.246251,0.24625 0.07342,0.0367 0.172834,-0.0367 0.246252,0 0.103828,0.0519 0.142422,0.19434 0.246251,0.24626 0.07342,0.0367 0.18821,-0.0581 0.246252,0 0.05804,0.058 -0.05804,0.1882 0,0.24625 0.05804,0.058 0.188209,-0.0581 0.246251,0 0,0.65667 -0.08208,-0.0821 0.246251,0.24625 0.509503,0.5095 -0.778588,-0.0199 0.246252,0.4925 0.07342,0.0367 0.172833,-0.0367 0.246251,0 0.103829,0.0519 0.142423,0.19434 0.246252,0.24625 0.07342,0.0367 0.172833,-0.0367 0.246251,0 0.103829,0.0519 0.142423,0.19434 0.246252,0.24625 0.07342,0.0367 0.172833,-0.0367 0.246251,0 1.02484,0.51242 -0.263252,-0.017 0.246251,0.49251 0.116085,0.11608 0.376419,-0.11609 0.492503,0 0.05804,0.058 -0.05804,0.18821 0,0.24625 0.05804,0.058 0.18821,-0.058 0.246252,0 0.05804,0.058 -0.05804,0.18821 0,0.24625 0.05804,0.058 0.172833,-0.0367 0.246251,0 0.103829,0.0519 0.164168,0.16417 0.246252,0.24625 0.08208,0.0821 0.194337,0.14242 0.246251,0.24625 0.03671,0.0734 -0.05804,0.18821 0,0.24625 0.05804,0.058 0.18821,-0.058 0.246252,0 0.509503,0.50951 -0.778589,-0.0199 0.246251,0.49251 0.65667,0 -0.08208,-0.0821 0.246251,0.24625 0.509503,0.5095 -0.01992,-0.77859 0.492503,0.24625 0.03747,0.0749 0,0.62785 0,0.73875"
     id="path3036"
     inkscape:connector-curvature="0"
     transform="scale(0.8,0.8)" />
  <path
     style="fill:#ffff00;fill-opacity:1"
     d="m 70.18166,158.09775 0.738754,4.43253"
     id="path3038"
     inkscape:connector-curvature="0"
     transform="scale(0.8,0.8)" />
  <path
     style="fill:#ffff00;fill-opacity:1"
     d="m 76.091694,162.28403 -7.141291,-8.37255"
     id="path3040"
     inkscape:connector-curvature="0"
     transform="scale(0.8,0.8)" />
  <path
     style="fill:#ffff00;fill-opacity:1"
     d="m 70.18166,156.62025 3.44752,2.70876"
     id="path3042"
     inkscape:connector-curvature="0"
     transform="scale(0.8,0.8)" />
  <path
     style="fill:#ffff00;fill-opacity:1"
     d="m 66.73414,154.89649 c -0.286686,-1.92705 0.918691,-0.17994 1.231257,-0.49251 0.05804,-0.058 -0.05804,-0.18821 0,-0.24625 0.123126,-0.12312 0.615628,0.12313 0.738754,0 0.05804,-0.058 -0.03671,-0.17283 0,-0.24625 0.187764,-0.37553 0.647119,-0.24625 0.985006,-0.24625 -0.829487,3.74072 1.281725,0.29672 1.72376,0.73875 0.116084,0.11609 -0.116084,0.37642 0,0.49251 0.05804,0.058 0.188209,-0.0581 0.246251,0 0.05804,0.058 -0.03671,0.17283 0,0.24625 0.103829,0.20765 0.388675,0.28484 0.492503,0.4925 0.07342,0.14684 -0.07342,0.34567 0,0.4925 0.05192,0.10383 0.194337,0.14242 0.246252,0.24625 0.0985,0.197 -0.0985,0.54176 0,0.73876 0.05191,0.10383 0.194337,0.14242 0.246251,0.24625 0.03237,0.0648 0,0.85624 0,0.98501 0,0.0821 0.05804,0.1882 0,0.24625 -0.05804,0.058 -0.246251,0.0821 -0.246251,0 0,-0.11609 0.362335,-0.24625 0.246251,-0.24625 -0.594567,0 -0.363833,0.30504 -0.738754,0.4925 -0.07342,0.0367 -0.164168,0 -0.246252,0 -0.08208,0.0821 -0.142422,0.19434 -0.246251,0.24625 -0.07494,0.0375 -0.627853,0 -0.738754,0 -0.492503,0 -0.985006,0 -1.477509,0"
     id="path3044"
     inkscape:connector-curvature="0"
     transform="scale(0.8,0.8)" />
  <path
     style="fill:#ffff00;fill-opacity:1"
     d="m 73.875431,161.05277 0.738755,-0.985"
     id="path3046"
     inkscape:connector-curvature="0"
     transform="scale(0.8,0.8)" />
</svg>
