<?xml version="1.0" encoding="UTF-8" standalone="no"?>
<!-- Created with Inkscape (http://www.inkscape.org/) -->

<svg
   xmlns:dc="http://purl.org/dc/elements/1.1/"
   xmlns:cc="http://creativecommons.org/ns#"
   xmlns:rdf="http://www.w3.org/1999/02/22-rdf-syntax-ns#"
   xmlns:svg="http://www.w3.org/2000/svg"
   xmlns="http://www.w3.org/2000/svg"
   version="1.0"
   width="600"
   height="400"
   id="svg2">
  <defs
     id="defs40">
    <style
       type="text/css"
       id="style6" />
    <style
       type="text/css"
       id="style3005" />
    <style
       type="text/css"
       id="style6-7" />
    <style
       type="text/css"
       id="style3005-1" />
    <style
       type="text/css"
       id="style3005-1-6" />
    <style
       type="text/css"
       id="style6-7-1" />
    <style
       type="text/css"
       id="style3005-2" />
    <style
       type="text/css"
       id="style6-6" />
  </defs>
  <metadata
     id="metadata7">
    <rdf:RDF>
      <cc:Work
         rdf:about="">
        <dc:format>image/svg+xml</dc:format>
        <dc:type
           rdf:resource="http://purl.org/dc/dcmitype/StillImage" />
        <dc:title></dc:title>
      </cc:Work>
    </rdf:RDF>
  </metadata>
  <g
     transform="matrix(0.54741952,0,0,-0.54741952,26.392538,408.98078)"
     id="g5226">
    <g
       id="g5228">
      <g
         id="g5234" />
    </g>
  </g>
  <g
     transform="matrix(0.54741952,0,0,-0.54741952,26.392538,408.98078)"
     id="g5276">
    <g
       id="g5278">
      <g
         id="g5284" />
    </g>
  </g>
  <g
     transform="matrix(0.54741952,0,0,-0.54741952,26.392538,408.98078)"
     id="g5306">
    <g
       id="g5308">
      <g
         id="g5314" />
    </g>
  </g>
  <g
     transform="matrix(0.54741952,0,0,-0.54741952,26.392538,408.98078)"
     id="g5330">
    <g
       id="g5332">
      <g
         id="g5338" />
    </g>
  </g>
  <g
     transform="matrix(0.54741952,0,0,-0.54741952,26.392538,408.98078)"
     id="g5354">
    <g
       id="g5356">
      <g
         id="g5362" />
    </g>
  </g>
  <g
     transform="matrix(0.54741952,0,0,-0.54741952,26.392538,408.98078)"
     id="g5450">
    <g
       id="g5452">
      <g
         id="g5458" />
    </g>
  </g>
  <g
     transform="matrix(0.54741952,0,0,-0.54741952,26.392538,408.98078)"
     id="g5480">
    <g
       id="g5482">
      <g
         id="g5488" />
    </g>
  </g>
  <g
     transform="matrix(0.54741952,0,0,-0.54741952,26.392538,408.98078)"
     id="g5504">
    <g
       id="g5506">
      <g
         id="g5512" />
    </g>
  </g>
  <g
     transform="translate(-31.667393,-121.14371)"
     id="g11782" />
  <g
     transform="matrix(0.54741952,0,0,-0.54741952,26.392538,408.98078)"
     id="g5540">
    <g
       id="g5542">
      <g
         id="g5548" />
    </g>
  </g>
  <g
     transform="matrix(0.54741952,0,0,-0.54741952,26.392538,408.98078)"
     id="g5564">
    <g
       id="g5566">
      <g
         id="g5572" />
    </g>
  </g>
  <g
     transform="matrix(0.54741952,0,0,-0.54741952,26.392538,408.98078)"
     id="g5588">
    <g
       id="g5590">
      <g
         id="g5596" />
    </g>
  </g>
  <g
     transform="matrix(0.54741952,0,0,-0.54741952,26.392538,408.98078)"
     id="g5612">
    <g
       id="g5614">
      <g
         id="g5620" />
    </g>
  </g>
  <g
     transform="matrix(0.54741952,0,0,-0.54741952,26.392538,408.98078)"
     id="g5636">
    <g
       id="g5638">
      <g
         id="g5644" />
    </g>
  </g>
  <g
     transform="matrix(0.54741952,0,0,-0.54741952,26.392538,408.98078)"
     id="g5660">
    <g
       id="g5662">
      <g
         id="g5668" />
    </g>
  </g>
  <rect
     width="600"
     height="400"
     x="0"
     y="6.8389738e-014"
     id="rect3311"
     style="fill:#005bbb;fill-opacity:1;stroke:none" />
  <path
     d="m 281.46753,37.594688 10.90625,35.46875 -35.5,-10.875 0,39.218752 35.53125,-10.906252 -10.9375,35.500002 39.21875,0 -10.90625,-35.500002 35.5,10.906252 0,-39.218752 -35.46875,10.875 10.875,-35.46875 -39.21875,0 z"
     id="path3900"
     style="fill:#ffd500;fill-opacity:1;stroke:none" />
  <g
     transform="translate(-8.203125e-6,0)"
     id="g4086">
    <path
       d="M 144.82404,107.10037 103.72987,100.03011 89.305816,139.15383 74.881757,100.03011 33.78759,107.10037 60.457699,75.046904 33.78759,42.993442 l 41.094169,7.07026 14.424058,-39.123722 14.424063,39.123723 41.09416,-7.07026 -26.67011,32.053464 z"
       transform="matrix(1.0292663,0,0,1.0292663,-10.744935,150.5241)"
       id="path3888"
       style="fill:#ffffff;fill-opacity:1;stroke:#000000;stroke-width:0.97156584;stroke-linecap:round;stroke-linejoin:round;stroke-miterlimit:4;stroke-opacity:1;stroke-dasharray:none;stroke-dashoffset:0" />
    <path
       d="M 144.82404,107.10037 103.72987,100.03011 89.305816,139.15383 74.881757,100.03011 33.78759,107.10037 60.457699,75.046904 33.78759,42.993442 l 41.094169,7.07026 14.424058,-39.123722 14.424063,39.123723 41.09416,-7.07026 -26.67011,32.053464 z"
       transform="matrix(-1.0292663,0,0,1.0292663,612.89876,150.5241)"
       id="path3911"
       style="fill:#ffffff;fill-opacity:1;stroke:#000000;stroke-width:0.97156584;stroke-linecap:round;stroke-linejoin:round;stroke-miterlimit:4;stroke-opacity:1;stroke-dasharray:none;stroke-dashoffset:0" />
  </g>
  <g
     transform="matrix(-1,0,0,1,599.71058,-2.2514071)"
     id="g4069">
    <path
       d="m 263.75011,293.25 -27.15625,27.15625 -2.71875,-21.75 -25.28125,51.9375 51.9375,-25.28125 -21.5,-2.6875 27.03125,-27.03125 z"
       id="path4155"
       style="fill:#ffffff;fill-rule:evenodd;stroke:#000000;stroke-width:1.5;stroke-miterlimit:4;stroke-opacity:1;stroke-dasharray:none" />
    <path
       d="m 333.51724,293.25 27.15625,27.15625 2.71875,-21.75 25.28125,51.9375 -51.9375,-25.28125 21.5,-2.6875 -27.03125,-27.03125 z"
       id="path4009"
       style="fill:#ffffff;fill-rule:evenodd;stroke:#000000;stroke-width:1.5;stroke-miterlimit:4;stroke-opacity:1;stroke-dasharray:none" />
  </g>
  <g
     transform="matrix(0.00836304,0,0,0.00836304,223.12536,194.48005)"
     id="g4167"
     style="fill:#ffd500;fill-opacity:1;stroke:none">
    <path
       d="M 9268.1577,2790.9921 C 8356.5356,1240.4409 7141.0396,155.05511 5013.9214,155.05511 2734.8662,155.05511 151.93701,2325.8267 151.93701,5116.8188 l 0,0 c 0,155.0551 0,310.1102 0,465.1653 C 759.68506,13179.685 6989.1025,14575.181 9116.2207,19071.779 11395.276,14575.181 17624.693,13179.685 18232.441,5581.9841 c 0,-155.0551 0,-310.1102 0,-465.1653 l 0,0 c 0,-2790.9921 -2127.118,-4961.76369 -4861.984,-4961.76369 -1823.244,0 -3342.614,1085.38579 -4102.2993,2635.93699 z"
       id="path4169"
       style="fill:#ffd500;fill-opacity:1;stroke:none" />
  </g>
  <g
     transform="matrix(-1,0,0,1,599.71058,-2.2514071)"
     id="g4061">
    <path
       d="m 414.93991,165.62217 -39.99284,39.99283 -21.66262,-0.002 1e-5,-21.66063 39.99284,-39.99284 -1e-5,21.66063 21.66262,0.002 z"
       id="path4127"
       style="fill:#ffffff;fill-rule:evenodd;stroke:#000000;stroke-width:1.5;stroke-miterlimit:4;stroke-opacity:1;stroke-dasharray:none" />
    <path
       d="m 407.15739,173.83678 -21.66262,-0.002 10e-6,-21.66063 m 13.66404,29.66117 -21.66262,-0.002 2e-5,-21.66064 m 13.66403,29.66118 -21.66262,-0.002 2e-5,-21.66063 m 13.66404,29.66117 -21.66262,-0.002 10e-6,-21.66063"
       id="path4153"
       style="fill:none;stroke:#000000;stroke-width:1.5;stroke-miterlimit:4;stroke-opacity:1;stroke-dasharray:none" />
    <path
       d="m 403.15636,153.84375 -58.625,58.625 c 0.22848,1.46857 1.09779,2.00464 2.34375,2.3125 l 58.625,-58.59375 z"
       id="path4041"
       style="fill:#ffffff;fill-rule:evenodd;stroke:#000000;stroke-width:1.5;stroke-miterlimit:4;stroke-opacity:1;stroke-dasharray:none" />
    <path
       d="m 182.32744,165.62217 39.99284,39.99283 21.66262,-0.002 -1e-5,-21.66063 -39.99284,-39.99284 1e-5,21.66063 -21.66262,0.002 z"
       id="path4005"
       style="fill:#ffffff;fill-rule:evenodd;stroke:#000000;stroke-width:1.5;stroke-miterlimit:4;stroke-opacity:1;stroke-dasharray:none" />
    <path
       d="m 190.10996,173.83678 21.66262,-0.002 -1e-5,-21.66063 m -13.66404,29.66117 21.66262,-0.002 -2e-5,-21.66064 m -13.66403,29.66118 21.66262,-0.002 -2e-5,-21.66063 m -13.66403,29.66117 21.66261,-0.002 -1e-5,-21.66063"
       id="path4007"
       style="fill:none;stroke:#000000;stroke-width:1.5;stroke-miterlimit:4;stroke-opacity:1;stroke-dasharray:none" />
    <path
       d="m 194.11099,153.84375 58.625,58.625 c -0.22848,1.46857 -1.09779,2.00464 -2.34375,2.3125 l -58.625,-58.59375 z"
       id="path4037"
       style="fill:#ffffff;fill-rule:evenodd;stroke:#000000;stroke-width:1.5;stroke-miterlimit:4;stroke-opacity:1;stroke-dasharray:none" />
  </g>
  <path
     d="m 250.28375,213.41684 c 3.69356,0.43192 5.93335,-3.28791 6.03816,-6.03816"
     id="path4090"
     style="fill:none;stroke:#000000;stroke-width:1.5;stroke-linecap:butt;stroke-linejoin:miter;stroke-miterlimit:4;stroke-opacity:1;stroke-dasharray:none" />
  <path
     d="m 351.87006,213.41684 c -3.69356,0.43192 -5.93335,-3.28791 -6.03816,-6.03816"
     id="path4092"
     style="fill:none;stroke:#000000;stroke-width:1.5;stroke-linecap:butt;stroke-linejoin:miter;stroke-miterlimit:4;stroke-opacity:1;stroke-dasharray:none" />
</svg>
