<?xml version="1.0" encoding="UTF-8" standalone="no"?>
<!DOCTYPE svg PUBLIC "-//W3C//DTD SVG 1.0//EN"  "http://www.w3.org/TR/2001/REC-SVG-20010904/DTD/svg10.dtd">
<!-- Created with Inkscape (http://www.inkscape.org/) -->
<svg
   xmlns:svg="http://www.w3.org/2000/svg"
   xmlns="http://www.w3.org/2000/svg"
   version="1.0"
   width="299.99969"
   height="200"
   id="svg3229">
  <defs
     id="defs3232" />
  <rect
     width="299.99969"
     height="200"
     x="0"
     y="0"
     id="rect3336"
     style="opacity:1;fill:#009c29;fill-opacity:1;fill-rule:nonzero;stroke:none;stroke-width:0.69796419;stroke-linecap:round;stroke-linejoin:miter;stroke-miterlimit:4;stroke-dasharray:none;stroke-dashoffset:0;stroke-opacity:1" />
  <rect
     width="149.99985"
     height="99.999992"
     x="149.99983"
     y="99.999992"
     id="rect3869"
     style="opacity:1;fill:#f9dd16;fill-opacity:1;fill-rule:nonzero;stroke:none;stroke-width:0.69796419;stroke-linecap:round;stroke-linejoin:miter;stroke-miterlimit:4;stroke-dasharray:none;stroke-dashoffset:0;stroke-opacity:1" />
  <rect
     width="149.99985"
     height="99.999992"
     x="0"
     y="0"
     id="rect3849"
     style="opacity:1;fill:#f9dd16;fill-opacity:1;fill-rule:nonzero;stroke:none;stroke-width:0.69796419;stroke-linecap:round;stroke-linejoin:miter;stroke-miterlimit:4;stroke-dasharray:none;stroke-dashoffset:0;stroke-opacity:1" />
  <path
     d="M 49.495779,17.921235 L 47.90934,19.320013 L 105.20247,84.29986 C 106.08589,84.405439 106.79373,83.747627 106.78889,82.901082 L 49.495779,17.921235 z"
     id="rect2384"
     style="font-size:40px;font-style:normal;font-variant:normal;font-weight:normal;font-stretch:normal;text-align:start;line-height:125%;writing-mode:lr-tb;text-anchor:start;fill:#e33338;fill-opacity:1;fill-rule:nonzero;stroke:#000000;stroke-width:0.54406303;stroke-linecap:round;stroke-linejoin:round;stroke-miterlimit:4;stroke-dasharray:none;stroke-dashoffset:0;stroke-opacity:1;font-family:Arial;-inkscape-font-specification:Arial" />
  <path
     d="M 47.980364,16.708315 C 44.367159,11.576116 41.285252,12.996508 40.997062,17.885954 L 42.476928,18.1205 C 43.371725,12.931064 45.091981,15.867177 46.814516,17.777014 L 47.980364,16.708315 z"
     id="path3162"
     style="font-size:40px;font-style:normal;font-variant:normal;font-weight:normal;font-stretch:normal;text-align:start;line-height:125%;writing-mode:lr-tb;text-anchor:start;fill:#e33338;fill-opacity:1;fill-rule:evenodd;stroke:#000000;stroke-width:0.54406297;stroke-linecap:butt;stroke-linejoin:round;stroke-miterlimit:4;stroke-dasharray:none;stroke-opacity:1;font-family:Arial;-inkscape-font-specification:Arial" />
  <path
     d="M 46.751346,18.019901 C 46.751346,18.851579 47.425556,19.52579 48.257233,19.52579 C 49.088912,19.52579 49.763121,18.851579 49.763121,18.019901 C 49.763121,17.188221 49.088912,16.514011 48.257233,16.514011 C 47.425556,16.514011 46.751346,17.188221 46.751346,18.019901 z"
     id="path3158"
     style="font-size:40px;font-style:normal;font-variant:normal;font-weight:normal;font-stretch:normal;text-align:start;line-height:125%;writing-mode:lr-tb;text-anchor:start;opacity:1;fill:#e33338;fill-opacity:1;fill-rule:nonzero;stroke:#000000;stroke-width:0.54406303;stroke-linecap:round;stroke-linejoin:round;stroke-miterlimit:4;stroke-dasharray:none;stroke-dashoffset:0;stroke-opacity:1;font-family:Arial;-inkscape-font-specification:Arial" />
  <path
     d="M 41.501471,19.750508 C 41.429398,24.302381 41.847401,26.229211 41.892945,29.275049 C 42.010067,37.10817 35.207294,35.744771 38.157996,28.195106 C 39.119897,25.733974 40.207083,24.044666 41.501471,19.750508 z"
     id="path3164"
     style="font-size:40px;font-style:normal;font-variant:normal;font-weight:normal;font-stretch:normal;text-align:start;line-height:125%;writing-mode:lr-tb;text-anchor:start;fill:#e33338;fill-opacity:1;fill-rule:evenodd;stroke:#000000;stroke-width:0.54406297;stroke-linecap:butt;stroke-linejoin:miter;stroke-miterlimit:4;stroke-dasharray:none;stroke-opacity:1;font-family:Arial;-inkscape-font-specification:Arial" />
  <path
     d="M 40.077675,19.277001 C 40.077675,20.108678 40.751885,20.782889 41.583562,20.782889 C 42.415241,20.782889 43.089451,20.108678 43.089451,19.277001 C 43.089451,18.445321 42.415241,17.771111 41.583562,17.771111 C 40.751885,17.771111 40.077675,18.445321 40.077675,19.277001 z"
     id="path3160"
     style="font-size:40px;font-style:normal;font-variant:normal;font-weight:normal;font-stretch:normal;text-align:start;line-height:125%;writing-mode:lr-tb;text-anchor:start;opacity:1;fill:#e33338;fill-opacity:1;fill-rule:nonzero;stroke:#000000;stroke-width:0.54406303;stroke-linecap:round;stroke-linejoin:round;stroke-miterlimit:4;stroke-dasharray:none;stroke-dashoffset:0;stroke-opacity:1;font-family:Arial;-inkscape-font-specification:Arial" />
  <path
     d="M 105.41222,18.975607 L 106.99867,20.374375 L 49.705556,85.354207 C 48.820009,85.333867 48.271989,84.891621 48.119115,83.955436 L 105.41222,18.975607 z"
     id="rect3176"
     style="font-size:40px;font-style:normal;font-variant:normal;font-weight:normal;font-stretch:normal;text-align:start;line-height:125%;writing-mode:lr-tb;text-anchor:start;fill:#e33338;fill-opacity:1;fill-rule:nonzero;stroke:#000000;stroke-width:0.54406303;stroke-linecap:round;stroke-linejoin:round;stroke-miterlimit:4;stroke-dasharray:none;stroke-dashoffset:0;stroke-opacity:1;font-family:Arial;-inkscape-font-specification:Arial" />
  <path
     d="M 110.26623,14.82867 L 101.95223,21.617677 C 102.35423,23.070716 103.1312,23.782223 104.70588,24.121122 L 110.26623,14.82867 z"
     id="path3174"
     style="font-size:40px;font-style:normal;font-variant:normal;font-weight:normal;font-stretch:normal;text-align:start;line-height:125%;writing-mode:lr-tb;text-anchor:start;fill:#e33338;fill-opacity:1;fill-rule:evenodd;stroke:#000000;stroke-width:0.54406297;stroke-linecap:butt;stroke-linejoin:miter;stroke-miterlimit:4;stroke-dasharray:none;stroke-opacity:1;font-family:Arial;-inkscape-font-specification:Arial" />
  <path
     d="M 105.33164,44.738223 C 100.61899,39.05922 104.34215,30.295448 98.187025,26.292712 L 95.267344,29.658933 C 101.40593,35.093201 96.879744,38.402985 105.33164,44.738223 z"
     id="path3178"
     style="font-size:40px;font-style:normal;font-variant:normal;font-weight:normal;font-stretch:normal;text-align:start;line-height:125%;writing-mode:lr-tb;text-anchor:start;fill:#e33338;fill-opacity:1;fill-rule:evenodd;stroke:#000000;stroke-width:0.54406297;stroke-linecap:butt;stroke-linejoin:miter;stroke-miterlimit:4;stroke-dasharray:none;stroke-opacity:1;font-family:Arial;-inkscape-font-specification:Arial" />
  <path
     d="M 199.49558,117.92124 L 197.90915,119.32003 L 255.2023,184.29987 C 256.08571,184.40545 256.79354,183.74764 256.78871,182.9011 L 199.49558,117.92124 z"
     id="path3853"
     style="font-size:40px;font-style:normal;font-variant:normal;font-weight:normal;font-stretch:normal;text-align:start;line-height:125%;writing-mode:lr-tb;text-anchor:start;fill:#e33338;fill-opacity:1;fill-rule:nonzero;stroke:#000000;stroke-width:0.54406303;stroke-linecap:round;stroke-linejoin:round;stroke-miterlimit:4;stroke-dasharray:none;stroke-dashoffset:0;stroke-opacity:1;font-family:Arial;-inkscape-font-specification:Arial" />
  <path
     d="M 197.98017,116.70833 C 194.36697,111.57612 191.28507,112.99653 190.99688,117.88596 L 192.47675,118.12051 C 193.37153,112.93108 195.0918,115.86719 196.81432,117.77703 L 197.98017,116.70833 z"
     id="path3855"
     style="font-size:40px;font-style:normal;font-variant:normal;font-weight:normal;font-stretch:normal;text-align:start;line-height:125%;writing-mode:lr-tb;text-anchor:start;fill:#e33338;fill-opacity:1;fill-rule:evenodd;stroke:#000000;stroke-width:0.54406297;stroke-linecap:butt;stroke-linejoin:round;stroke-miterlimit:4;stroke-dasharray:none;stroke-opacity:1;font-family:Arial;-inkscape-font-specification:Arial" />
  <path
     d="M 196.75117,118.0199 C 196.75117,118.85158 197.42538,119.52579 198.25706,119.52579 C 199.08873,119.52579 199.76295,118.85158 199.76295,118.0199 C 199.76295,117.18823 199.08873,116.51401 198.25706,116.51401 C 197.42538,116.51401 196.75117,117.18823 196.75117,118.0199 z"
     id="path3857"
     style="font-size:40px;font-style:normal;font-variant:normal;font-weight:normal;font-stretch:normal;text-align:start;line-height:125%;writing-mode:lr-tb;text-anchor:start;opacity:1;fill:#e33338;fill-opacity:1;fill-rule:nonzero;stroke:#000000;stroke-width:0.54406303;stroke-linecap:round;stroke-linejoin:round;stroke-miterlimit:4;stroke-dasharray:none;stroke-dashoffset:0;stroke-opacity:1;font-family:Arial;-inkscape-font-specification:Arial" />
  <path
     d="M 191.50129,119.75054 C 191.42922,124.30239 191.84722,126.22923 191.89277,129.27507 C 192.00988,137.10818 185.20711,135.74479 188.15781,128.19511 C 189.11971,125.734 190.20689,124.04467 191.50129,119.75054 z"
     id="path3859"
     style="font-size:40px;font-style:normal;font-variant:normal;font-weight:normal;font-stretch:normal;text-align:start;line-height:125%;writing-mode:lr-tb;text-anchor:start;fill:#e33338;fill-opacity:1;fill-rule:evenodd;stroke:#000000;stroke-width:0.54406297;stroke-linecap:butt;stroke-linejoin:miter;stroke-miterlimit:4;stroke-dasharray:none;stroke-opacity:1;font-family:Arial;-inkscape-font-specification:Arial" />
  <path
     d="M 190.07749,119.277 C 190.07749,120.10868 190.7517,120.78289 191.58338,120.78289 C 192.41505,120.78289 193.08926,120.10868 193.08926,119.277 C 193.08926,118.44532 192.41505,117.77112 191.58338,117.77112 C 190.7517,117.77112 190.07749,118.44532 190.07749,119.277 z"
     id="path3861"
     style="font-size:40px;font-style:normal;font-variant:normal;font-weight:normal;font-stretch:normal;text-align:start;line-height:125%;writing-mode:lr-tb;text-anchor:start;opacity:1;fill:#e33338;fill-opacity:1;fill-rule:nonzero;stroke:#000000;stroke-width:0.54406303;stroke-linecap:round;stroke-linejoin:round;stroke-miterlimit:4;stroke-dasharray:none;stroke-dashoffset:0;stroke-opacity:1;font-family:Arial;-inkscape-font-specification:Arial" />
  <path
     d="M 255.41204,118.97562 L 256.99849,120.37439 L 199.70536,185.35421 C 198.81981,185.33388 198.2718,184.89164 198.11893,183.95544 L 255.41204,118.97562 z"
     id="path3863"
     style="font-size:40px;font-style:normal;font-variant:normal;font-weight:normal;font-stretch:normal;text-align:start;line-height:125%;writing-mode:lr-tb;text-anchor:start;fill:#e33338;fill-opacity:1;fill-rule:nonzero;stroke:#000000;stroke-width:0.54406303;stroke-linecap:round;stroke-linejoin:round;stroke-miterlimit:4;stroke-dasharray:none;stroke-dashoffset:0;stroke-opacity:1;font-family:Arial;-inkscape-font-specification:Arial" />
  <path
     d="M 260.26603,114.82869 L 251.95205,121.6177 C 252.35404,123.07073 253.131,123.78223 254.7057,124.12113 L 260.26603,114.82869 z"
     id="path3865"
     style="font-size:40px;font-style:normal;font-variant:normal;font-weight:normal;font-stretch:normal;text-align:start;line-height:125%;writing-mode:lr-tb;text-anchor:start;fill:#e33338;fill-opacity:1;fill-rule:evenodd;stroke:#000000;stroke-width:0.54406297;stroke-linecap:butt;stroke-linejoin:miter;stroke-miterlimit:4;stroke-dasharray:none;stroke-opacity:1;font-family:Arial;-inkscape-font-specification:Arial" />
  <path
     d="M 255.33147,144.73824 C 250.6188,139.05924 254.34195,130.29546 248.18684,126.29273 L 245.26716,129.65895 C 251.40576,135.09321 246.87956,138.40301 255.33147,144.73824 z"
     id="path3867"
     style="font-size:40px;font-style:normal;font-variant:normal;font-weight:normal;font-stretch:normal;text-align:start;line-height:125%;writing-mode:lr-tb;text-anchor:start;fill:#e33338;fill-opacity:1;fill-rule:evenodd;stroke:#000000;stroke-width:0.54406297;stroke-linecap:butt;stroke-linejoin:miter;stroke-miterlimit:4;stroke-dasharray:none;stroke-opacity:1;font-family:Arial;-inkscape-font-specification:Arial" />
</svg>
