<?xml version="1.0" encoding="UTF-8" standalone="no"?>
<!-- Created with Inkscape (http://www.inkscape.org/) -->

<svg xmlns:dc="http://purl.org/dc/elements/1.1/" xmlns:cc="http://creativecommons.org/ns#" xmlns:rdf="http://www.w3.org/1999/02/22-rdf-syntax-ns#" xmlns:svg="http://www.w3.org/2000/svg" xmlns="http://www.w3.org/2000/svg" xmlns:sodipodi="http://sodipodi.sourceforge.net/DTD/sodipodi-0.dtd" xmlns:inkscape="http://www.inkscape.org/namespaces/inkscape" width="231" height="150" id="svg2" version="1.1" inkscape:version="0.48.4 r9939" sodipodi:docname="drawing.svg">
<defs id="defs4" />
<sodipodi:namedview id="base" pagecolor="#ffffff" bordercolor="#666666" borderopacity="1.0" inkscape:pageopacity="0.0" inkscape:pageshadow="2" inkscape:zoom="1.4" inkscape:cx="61.525107" inkscape:cy="85.579848" inkscape:document-units="px" inkscape:current-layer="layer1" showgrid="false" inkscape:window-width="1600" inkscape:window-height="837" inkscape:window-x="-8" inkscape:window-y="-8" inkscape:window-maximized="1" />
<metadata id="metadata7">
<rdf:RDF>
<cc:Work rdf:about="">
<dc:format>image/svg+xml</dc:format>
<dc:type rdf:resource="http://purl.org/dc/dcmitype/StillImage" />
<dc:title />
</cc:Work>
</rdf:RDF>
</metadata>
<g inkscape:label="Layer 1" inkscape:groupmode="layer" id="layer1" transform="translate(0,-902.36218)">
<rect style="fill:#02bfff;fill-opacity:1;fill-rule:evenodd;stroke:black;stroke-width:0.85384554000000001;stroke-linecap:butt;stroke-linejoin:miter;stroke-miterlimit:4;stroke-opacity:1;stroke-dasharray:none" id="rect3007" width="230.14616" height="149.14615" x="0.42665797" y="902.78937" />
<path style="fill:#e3b458;fill-opacity:1;fill-rule:evenodd;stroke:none" d="m 34.928553,1019.22 c -5.28312,0 -8.15361,1.4714 -10.6875,2.7812 c -2.5339,1.3098 -4.71003,2.4688 -9.5625,2.4688 c -4.8524702,0 -7.0285305,-1.1591 -9.5625005,-2.4688 c -1.23531,-0.6385 -2.57537,-1.3176 -4.21874991,-1.8437 l 0,2.625 c 1.08474991,0.4156 2.05522991,0.9169 3.06249991,1.4375 c 2.53397,1.3098 5.4355503,2.75 10.7187505,2.75 c 5.28322,0 8.1536,-1.4401 10.6875,-2.75 c 2.53389,-1.3098 4.71014,-2.5 9.5625,-2.5 c 4.85223,0 7.03215,1.1897 9.5625,2.5 c 2.53034,1.3104 5.4163,2.75 10.6875,2.75 c 5.271089,0 8.157049,-1.4407 10.687499,-2.75 c 2.53044,-1.3092 4.71014,-2.4688 9.5625,-2.4688 c 4.85247,0 7.02853,1.1591 9.5625,2.4688 c 2.53397,1.3098 5.43554,2.75 10.71875,2.75 c 5.283218,0 8.184848,-1.4401 10.718748,-2.75 c 2.5339,-1.3098 4.71015,-2.4688 9.5625,-2.4688 c 4.85235,0 7.01518,1.1524 9.53125,2.4688 c 2.51607,1.3165 5.36478,2.777 10.59375,2.8125 c 5.22899,0.036 8.10498,-1.386 10.625,-2.6875 c 2.52002,-1.3014 4.71015,-2.4688 9.5625,-2.4688 c 4.85247,0 7.02853,1.1591 9.5625,2.4688 c 2.53397,1.3098 5.40429,2.7812 10.6875,2.7812 c 5.28322,0 8.18485,-1.4713 10.71875,-2.7812 c 2.5339,-1.3098 4.71015,-2.4688 9.56249,-2.4688 c 4.85236,0 7.0324,1.1592 9.5625,2.4688 c 2.5301,1.3097 5.41727,2.7811 10.6875,2.7812 c 5.27025,10e-5 8.15739,-1.4715 10.6875,-2.7812 c 1.07092,-0.5543 1.19145,-1.0761 2.36612,-1.5 l 0,-2.625 c -1.74571,0.527 -2.23443,1.2396 -3.52237,1.9062 c -2.53091,1.31 -4.69291,2.5 -9.53125,2.5 c -4.83831,-10e-5 -7.00034,-1.19 -9.53125,-2.5 c -2.53091,-1.31 -5.43562,-2.75 -10.71875,-2.75 c -5.28311,0 -8.18485,1.4402 -10.71874,2.75 c -2.53389,1.3098 -4.71003,2.5 -9.5625,2.5 c -4.85247,0 -7.02853,-1.1903 -9.5625,-2.5 c -2.53397,-1.3097 -5.4043,-2.75 -10.6875,-2.75 c -5.28313,0 -8.19931,1.4489 -10.71875,2.75 c -2.51944,1.3011 -4.64412,2.4389 -9.4375,2.4063 c -4.79336,-0.033 -6.94536,-1.211 -9.46875,-2.5313 c -2.52339,-1.3203 -5.40436,-2.75 -10.6875,-2.75 c -5.28312,0 -8.18486,1.4402 -10.71875,2.75 c -2.53389,1.3098 -4.71003,2.4688 -9.562498,2.4688 c -4.85248,0 -7.02853,-1.1591 -9.5625,-2.4688 c -2.53397,-1.3097 -5.43555,-2.75 -10.71875,-2.75 c -5.28313,0 -8.15649,1.4404 -10.6875,2.75 c -2.53102,1.3096 -4.72325,2.4703 -9.562499,2.4688 c -4.83911,0 -7.00015,-1.158 -9.53125,-2.4688 c -2.5311,-1.3108 -5.4355,-2.7812 -10.71875,-2.7812 z" id="rect3007-8" inkscape:connector-curvature="0" sodipodi:nodetypes="sssccccscscscscscscccscscscscccccssssssscssssssscss" />
<path inkscape:connector-curvature="0" style="fill:#e3b458;fill-opacity:1;fill-rule:evenodd;stroke:none" d="m 34.933033,995.37113 c -10.13547,0 -10.14556,5.21887 -20.28125,5.21887 c -7.4603593,0 -9.4383893,-2.81427 -13.99999731,-4.31257 l 0,18.31257 c 4.44711801,1.5115 6.47245801,4.2812 13.84374731,4.2812 c 10.13569,0 10.11453,-5.25 20.25,-5.25 c 10.13549,0 10.1397,5.247 20.25,5.25 c 10.11035,0 10.11452,-5.25 20.249999,-5.25 c 10.13567,0 10.14557,5.25 20.28125,5.25 c 10.135688,0 10.145778,-5.25 20.281248,-5.25 c 10.13549,0 10.13392,5.2443 20.15625,5.3125 c 10.02237,0.068 10.02077,-5.1875 20.15625,-5.1875 c 10.13567,0 10.11432,5.25 20.25,5.25 c 10.13569,0 10.14578,-5.25 20.28125,-5.25 c 10.13549,0 10.14146,5.2498 20.25,5.25 c 7.38664,10e-5 8.75972,-2.6853 13.25,-4.1919 l 0,-18.18758 c -4.36669,1.5197 -5.80503,4.12968 -13.09375,4.12948 c -10.10854,-1e-4 -10.08326,-5.25007 -20.21875,-5.25007 c -10.13547,0 -10.14556,5.25007 -20.28125,5.25007 c -10.13568,0 -10.14558,-5.25007 -20.28125,-5.25007 c -10.13548,0 -10.13388,5.25587 -20.15625,5.18757 c -10.02233,-0.068 -10.02076,-5.31257 -20.15625,-5.31257 c -10.13547,0 -10.14556,5.25007 -20.281248,5.25007 c -10.13568,0 -10.11433,-5.25007 -20.25,-5.25007 c -10.135479,0 -10.139649,5.25317 -20.249999,5.25007 c -10.1103,0 -10.11451,-5.25007 -20.25,-5.25007 z" id="rect3007-8-5" sodipodi:nodetypes="ssccsscssscsssscccssscssscs" />
</g>
</svg>
