<?xml version="1.0" encoding="UTF-8" standalone="no"?>
<!-- Created with Inkscape (http://www.inkscape.org/) -->

<svg
   xmlns:dc="http://purl.org/dc/elements/1.1/"
   xmlns:cc="http://creativecommons.org/ns#"
   xmlns:rdf="http://www.w3.org/1999/02/22-rdf-syntax-ns#"
   xmlns:svg="http://www.w3.org/2000/svg"
   xmlns="http://www.w3.org/2000/svg"
   version="1.1"
   width="498"
   height="600"
   id="svg2">
  <defs
     id="defs4">
    <style
       type="text/css"
       id="style3005-1" />
    <style
       type="text/css"
       id="style6-7" />
    <style
       type="text/css"
       id="style3005" />
    <style
       type="text/css"
       id="style6" />
  </defs>
  <metadata
     id="metadata7">
    <rdf:RDF>
      <cc:Work
         rdf:about="">
        <dc:format>image/svg+xml</dc:format>
        <dc:type
           rdf:resource="http://purl.org/dc/dcmitype/StillImage" />
        <dc:title></dc:title>
      </cc:Work>
    </rdf:RDF>
  </metadata>
  <g
     transform="translate(-98.793626,-221.37955)"
     id="layer1-7">
    <g
       transform="matrix(1.25,0,0,1.25,206.06132,-511.52045)"
       id="g3021"
       style="fill:#800080;fill-opacity:0.50196078">
      <g
         id="g3023"
         style="fill:#800080;fill-opacity:0.50196078">
        <path
           d="m 212.002,828.446 -6.378,0 0,-4.252 6.378,0 c 1.174,0.001 2.126,-0.952 2.126,-2.126 0,-1.173 -0.952,-2.125 -2.126,-2.125 l -6.378,0 4.252,-4.252 2.126,0 c 3.469,0.012 6.378,2.856 6.378,6.377 0,1.634 -0.615,3.124 -1.625,4.253 1.01,1.128 1.625,2.618 1.625,4.251 0,3.522 -2.909,6.366 -6.378,6.378 l -6.378,0 0,-4.252 6.378,0 c 1.174,0 2.126,-0.952 2.126,-2.126 0,-1.174 -0.952,-2.126 -2.126,-2.126 z M 46.6594,826.32 c 0,-5.869 4.7602,-10.63 10.6299,-10.63 5.8697,0 10.6299,4.761 10.6299,10.63 0,5.87 -4.7602,10.63 -10.6299,10.63 -5.8697,0 -10.6299,-4.76 -10.6299,-10.63 z m 10.6299,14.882 c 8.2177,0 14.8819,-6.664 14.8819,-14.882 0,-8.217 -6.6642,-14.882 -14.8819,-14.882 -8.2176,0 -14.8819,6.665 -14.8819,14.882 0,8.218 6.6643,14.882 14.8819,14.882 z m -4.2508,-21.26 4.2508,0 c 3.5218,0 6.378,2.856 6.378,6.378 0,3.522 -2.9092,6.366 -6.378,6.378 l -4.2508,0 0,-4.252 4.2508,0 c 1.1739,0 2.126,-0.952 2.126,-2.126 0,-1.174 -0.9521,-2.126 -2.126,-2.126 l -4.2508,0 z m 36.1395,-4.251 4.2519,0 0,21.259 -4.2519,0 -8.504,-13.347 0,13.347 -4.2519,0 0,-21.259 4.2519,0 8.504,13.347 z m -63.7784,0 12.7559,0 0,4.252 -8.504,0 0,4.251 8.504,0 0,4.252 -8.504,0 0,4.252 8.504,0 0,4.252 -12.7559,0 z m 72.2812,0 4.2522,0 0,21.259 -4.2522,0 z m 17.0082,21.259 c 4.696,0 8.504,-3.808 8.504,-8.504 l 0,-4.251 c 0,-4.696 -3.808,-8.504 -8.504,-8.504 l -8.504,0 0,21.259 z m 0,-17.007 c 2.348,0 4.252,1.904 4.252,4.252 l 0,4.251 c 0,2.348 -1.904,4.252 -4.252,4.252 l -4.252,0 0,-12.755 z m 73.928,6.377 c 0,5.87 -4.76,10.63 -10.63,10.63 -5.869,0 -10.63,-4.76 -10.63,-10.63 0,-5.869 4.761,-10.63 10.63,-10.63 5.87,0 10.63,4.761 10.63,10.63 z m -10.63,-14.882 c -8.217,0 -14.881,6.665 -14.881,14.882 0,8.218 6.664,14.882 14.881,14.882 8.218,0 14.882,-6.664 14.882,-14.882 0,-8.217 -6.664,-14.882 -14.882,-14.882 z m -169.59531,4.252 4.25201,0 0,17.008 8.5039,0 0,4.252 -12.75591,0 z m 192.98031,10e-4 0,21.259 -4.252,0 0,-17.007 z m -48.896,12.755 c -1.174,0 -2.126,0.952 -2.126,2.126 l 0,2.126 8.504,0 0,4.252 -12.756,0 c 0,-2.126 0,-4.252 0,-6.378 0.012,-3.469 2.856,-6.378 6.378,-6.378 1.173,0.001 2.126,-0.952 2.126,-2.126 0,-1.173 -0.953,-2.125 -2.126,-2.125 l -6.378,0 4.252,-4.252 2.126,0 c 3.468,0.012 6.378,2.856 6.378,6.377 0,3.522 -2.857,6.378 -6.378,6.378 z"
           id="path3027-4"
           style="fill:#800080;fill-opacity:0.50196078;stroke:none" />
      </g>
    </g>
  </g>
  <path
     d="M 248.99581,598.61212 C 227.00339,591.71286 200.90983,582.65864 176.81672,568.3882 96.092912,520.58202 59.617072,436.67169 45.517852,347.06487 33.652972,346.36325 23.892943,332.84038 33.978722,327.36107 l 0.16705,0.38004 c -2.03804,-14.7883 -9.84773,-20.76877 -13.844452,-25.275 -1.440825,-0.0919 -2.898356,-0.30487 -4.364239,-0.63898 -6.481627,-1.49094 -11.117326,-4.7401 -13.030074,-10.30712 -2.697894,-7.85145 0.27146,-16.75534 9.175343,-18.75997 6.172581,-1.38653 13.309882,1.21531 15.652792,8.68254 1.23619,3.94243 0.45105,8.23986 -3.41622,10.93774 l 0,0.0125 c 8.41108,0.0543 15.68203,-8.79112 12.83379,-16.16648 -1.64128,-4.25147 -4.91551,-6.10157 -8.90806,-5.56701 1.64965,-3.76285 4.96146,-5.30391 9.40504,-4.60646 2.22597,-9.20459 -6.48162,-15.41892 -12.32845,-11.09227 3.87144,1.17772 3.79208,4.67328 1.79163,6.65285 -2.6603,2.6269 -6.264455,1.09419 -8.319198,-1.35312 -4.088603,-4.86957 0.250578,-11.74795 5.479308,-12.83379 -1.386529,-5.93035 0.004,-10.46581 4.18049,-13.6064 2.78559,6.66121 8.18138,10.12337 11.91082,14.24538 -0.22552,-16.30848 -0.096,-52.04094 -11.18414,-73.84544 l -3.55404,-5.85518 0.0376,0 0.0794,0.10441 c 5.04497,6.51086 2.819,17.84535 -8.97071,17.84535 -8.745185,0 -15.606854,-6.98696 -15.606854,-15.60686 0,-8.61989 6.986959,-15.60684 15.606854,-15.60684 3.361926,0 6.757263,0.50115 9.79762,1.74151 1.44917,0.59304 2.81483,1.36565 4.0886,2.29279 11.09226,-5.46678 19.97109,-12.91731 24.7279,-24.0054 0.11276,-8.96653 8.16886,-15.36046 17.23561,-15.36046 9.60969,0 13.94887,5.7299 17.1688,12.74609 13.167888,0.71415 33.477258,-5.79254 60.088688,-17.55301 5.10345,-2.25521 11.91082,-4.7777 17.74095,-4.56888 0.32574,0.0126 0.65567,0.0417 0.98143,0.0752 l 0.20045,-0.24223 c 13.9614,-1.29047 29.63925,5.8009 50.15744,4.19302 7.02037,-0.53875 15.29363,-4.1763 21.61238,0.25057 2.79395,1.95452 5.58373,5.26633 8.4236,10.41572 2.83989,-5.14939 5.62967,-8.4612 8.42362,-10.41572 6.31875,-4.42687 14.59201,-0.78932 21.60821,-0.25057 20.52236,1.60788 36.20021,-5.48349 50.1616,-4.19302 l 0.20046,0.24223 c 0.32576,-0.0335 0.65569,-0.0626 0.98143,-0.0752 5.83013,-0.20882 12.6375,2.31367 17.74095,4.56888 26.61143,11.76047 46.9208,18.26716 60.08869,17.55301 3.21993,-7.01619 7.55911,-12.74609 17.1688,-12.74609 9.06675,0 17.12285,6.39393 17.23561,15.36046 4.75681,11.08809 13.63564,18.53862 24.7279,24.0054 1.27377,-0.92714 2.63525,-1.69975 4.0886,-2.29279 3.04036,-1.24036 6.43569,-1.74151 9.79762,-1.74151 8.6199,0 15.60685,6.98695 15.60685,15.60684 0,8.6199 -6.86166,15.60686 -15.60685,15.60686 -11.78971,0 -14.01568,-11.33449 -8.97071,-17.84535 l 0.0794,-0.10441 0.0375,0 -3.55404,5.85518 c -11.08809,21.8045 -10.95862,57.53696 -11.18414,73.84544 3.72944,-4.12201 9.12523,-7.58417 11.91082,-14.24538 4.17631,3.14059 5.56701,7.67605 4.18049,13.6064 5.22873,1.08584 9.56792,7.96422 5.47931,12.83379 -2.05475,2.44731 -5.6589,3.98002 -8.3192,1.35312 -2.00045,-1.97957 -2.07981,-5.47513 1.79163,-6.65285 -5.84683,-4.32665 -14.55442,1.88768 -12.32845,11.09227 4.44358,-0.69745 7.75539,0.84361 9.40504,4.60646 -3.99256,-0.53456 -7.26678,1.31554 -8.90806,5.56701 -2.84824,7.37536 4.42271,16.22078 12.83379,16.16648 l 0,-0.0125 c -3.86727,-2.69788 -4.65241,-6.99531 -3.41622,-10.93774 2.34291,-7.46723 9.48021,-10.06907 15.65279,-8.68254 8.90388,2.00463 11.87323,10.90852 9.17535,18.75997 -1.91276,5.56702 -6.55263,8.81618 -13.03008,10.30712 -1.46588,0.33411 -2.92342,0.5471 -4.36424,0.63898 -3.99672,4.50623 -11.80641,10.4867 -13.84445,25.275 l 0.16705,-0.38004 c 10.08577,5.47931 0.32157,19.00218 -11.53913,19.7038 -14.09922,89.60682 -50.57506,173.51715 -131.29888,221.32333 -24.0931,14.27044 -50.18666,23.32466 -72.1791,30.22392 z"
     id="path2991"
     style="fill:#cc9933;fill-rule:evenodd;stroke:none" />
  <path
     d="m 17.37373,178.23354 c -3.82132,0 -6.920138,-3.09882 -6.920138,-6.92431 0,-3.82132 3.098818,-6.86168 6.920138,-6.92014 3.925728,-0.0585 6.368866,1.49929 8.369322,4.08025 5.04497,6.51086 2.819,17.84535 -8.97071,17.84535 -8.745185,0 -15.606854,-6.98696 -15.606854,-15.60686 0,-8.61989 6.986959,-15.60684 15.606854,-15.60684 3.361926,0 6.757263,0.50115 9.79762,1.74151 23.47083,9.56792 23.0198,65.60558 24.41468,88.8342 m -24.30611,-75.82918 c 13.61059,21.06946 13.44771,60.76943 13.68576,78.2222 M 480.62208,178.23354 c 3.82132,0 6.92432,-3.09882 6.92432,-6.92431 0,-3.82132 -3.103,-6.86168 -6.92432,-6.92014 -3.92572,-0.0585 -6.36885,1.49929 -8.36931,4.08025 -5.04497,6.51086 -2.81901,17.84535 8.97071,17.84535 8.74518,0 15.61103,-6.98696 15.61103,-15.60686 0,-8.61989 -6.99114,-15.60684 -15.61103,-15.60684 -3.36193,0 -6.75727,0.50115 -9.79761,1.74151 -23.47085,9.56792 -23.02399,65.60558 -24.41887,88.8342 m 24.31028,-75.82918 c -13.61058,21.06946 -13.45189,60.76943 -13.68993,78.21803 m 10.44493,-88.5711 c -11.43054,-5.50437 -20.59753,-13.03425 -25.46293,-24.36456 -0.11276,-8.96653 -8.16885,-15.36046 -17.23561,-15.36046 -12.77114,0 -16.23747,10.11501 -20.01286,19.93769 -29.34272,-1.57865 -61.28311,-23.01145 -73.5865,-20.22167 m -301.850848,40.009 c 11.43054,-5.50437 20.60171,-13.03425 25.46293,-24.36456 0.11276,-8.96653 8.16886,-15.36046 17.23561,-15.36046 12.77115,0 16.23749,10.11501 20.12562,19.93351 29.388668,-1.68305 61.203768,-22.99891 73.473748,-20.21749 m -5.09509,16.49223 c 1.63293,1.63294 3.89231,2.64777 6.38557,2.64777 12.53727,0 11.34703,-18.24628 -1.41159,-19.06483 -6.19346,-0.39675 -12.35769,4.04266 -12.35769,10.82499 0,4.30159 1.74569,8.20225 4.56888,11.02127 2.82318,2.82318 6.71967,4.56887 11.02544,4.56887 8.60737,0 15.59015,-6.98278 15.59015,-15.59014 0,-9.32152 -7.80969,-19.64534 -17.3066,-19.99198 -5.83013,-0.20882 -12.6375,2.31367 -17.74095,4.56888 -26.71165,11.80642 -47.0795,18.31728 -60.243208,17.54466 m 235.201178,12.9549 c -24.57756,-3.06123 -50.75046,-10.683 -75.83753,-10.683 -25.09125,0 -51.26416,7.62177 -75.84172,10.683 m 156.03931,-35.2355 c -13.96556,-1.29047 -29.64341,5.8009 -50.16161,4.19302 -7.02037,-0.53875 -15.29362,-4.1763 -21.61238,0.25057 -2.79394,1.95452 -5.58371,5.26633 -8.4236,10.41572 -2.84406,-5.14939 -5.63384,-8.4612 -8.42779,-10.41572 -6.31875,-4.42687 -14.59201,-0.78932 -21.61238,-0.25057 -20.51819,1.60788 -36.19604,-5.48349 -50.15744,-4.19302 m 168.06708,25.75111 c -1.63294,1.63294 -3.89232,2.64777 -6.38558,2.64777 -12.53727,0 -11.34284,-18.24628 1.4116,-19.06483 6.19764,-0.39675 12.35769,4.04266 12.35769,10.82499 0,4.30159 -1.7457,8.20225 -4.56889,11.02127 -2.819,2.82318 -6.71967,4.56887 -11.02544,4.56887 -8.60736,0 -15.59015,-6.98278 -15.59015,-15.59014 0,-9.32152 7.80969,-19.64534 17.30661,-19.99198 5.83012,-0.20882 12.63751,2.31367 17.74095,4.56888 26.71165,11.80642 47.07949,18.31728 60.24321,17.54466 M 20.297144,302.46193 c 4.046838,4.5647 12.011058,10.63705 13.923798,25.85968 m 22.10937,3.3661 c -9.95632,7.36701 -18.73074,4.48536 -22.35159,-4.32664 -10.085779,5.47931 -0.32575,19.00218 11.53913,19.7038 14.09922,89.60682 50.57506,173.51715 131.298868,221.32333 24.09311,14.27044 50.18667,23.32466 72.18328,30.22392 21.99242,-6.89926 48.08598,-15.95348 72.18326,-30.22392 80.71964,-47.80618 117.1955,-131.71651 131.29888,-221.32333 11.86071,-0.70162 21.62074,-14.22449 11.53495,-19.7038 -3.62085,8.812 -12.39527,11.69365 -22.35158,4.32664 M 20.693893,286.98454 c 0,-3.23246 -2.626897,-5.85936 -5.863533,-5.85936 -3.232461,0 -5.859357,2.6269 -5.859357,5.85936 0,7.32942 8.302496,9.14193 14.007329,6.19764 5.01575,-2.58514 6.12246,-7.37953 4.75681,-11.7396 -2.34291,-7.46723 -9.480211,-10.06907 -15.652792,-8.68254 -8.903883,2.00463 -11.873237,10.90852 -9.175343,18.75997 1.912748,5.56702 6.548447,8.81618 13.030074,10.30712 19.499171,4.477 37.641051,-13.29318 39.875371,-32.26196 1.09001,-9.27975 -0.67239,-19.0189 5.24126,-27.16269 -10.48671,0.92713 -16.11637,6.82408 -16.71775,16.11636 0.76843,-11.37208 -11.21338,-13.53541 -15.88249,-24.69867 -4.17631,3.14059 -5.567019,7.67605 -4.18049,13.6064 -5.22873,1.08584 -9.567911,7.96422 -5.479308,12.83379 2.054743,2.44731 5.658898,3.98002 8.319198,1.35312 2.00045,-1.97957 2.07981,-5.47513 -1.79163,-6.65285 5.84683,-4.32665 14.55442,1.88768 12.32845,11.09227 -4.44358,-0.69745 -7.75539,0.84361 -9.40504,4.60646 3.99255,-0.53456 7.26678,1.31554 8.90806,5.56701 3.5081,9.09182 -8.35261,20.40544 -21.086166,18.3507 m 461.235384,-7.59253 c 0,-3.23246 2.62689,-5.85936 5.86353,-5.85936 3.23246,0 5.85936,2.6269 5.85936,5.85936 0,7.32942 -8.3025,9.14193 -14.00734,6.19764 -5.01574,-2.58514 -6.12246,-7.37953 -4.75681,-11.7396 2.34291,-7.46723 9.48021,-10.06907 15.6528,-8.68254 8.90389,2.00463 11.87324,10.90852 9.17951,18.75997 -1.91691,5.56702 -6.55262,8.81618 -13.03424,10.30712 -19.49917,4.477 -37.64104,-13.29318 -39.87537,-32.26196 -1.09001,-9.27975 0.67238,-19.0189 -5.24126,-27.16269 10.4867,0.92713 16.11636,6.82408 16.71775,16.11636 -0.76844,-11.37208 11.21338,-13.53541 15.88249,-24.69867 4.17631,3.14059 5.56702,7.67605 4.18048,13.6064 5.22873,1.08584 9.56792,7.96422 5.48349,12.83379 -2.05892,2.44731 -5.66307,3.98002 -8.32338,1.35312 -2.00045,-1.97957 -2.0798,-5.47513 1.79164,-6.65285 -5.84683,-4.32665 -14.55443,1.88768 -12.32846,11.09227 4.4436,-0.69745 7.75541,0.84361 9.40504,4.60646 -3.99254,-0.53456 -7.26677,1.31554 -8.90806,5.56701 -3.50809,9.09182 8.35262,20.40544 21.08617,18.3507 m -3.73362,7.30853 c -3.85473,4.63988 -12.42869,10.56187 -14.42078,26.43601"
     id="path2993"
     style="fill:none;stroke:#000000;stroke-width:2;stroke-miterlimit:4;stroke-dasharray:none" />
  <path
     d="m 40.280772,153.71027 c 2.62272,0.50116 4.60646,1.9211 6.09322,4.04267 m -1.61623,-8.11875 c 2.54338,0.16288 4.75264,1.20696 6.66957,3.09047 m -2.30532,-7.47976 c 2.35543,-0.16288 4.64823,0.39675 6.83243,1.76658 m -3.6835,-6.11411 c 2.95265,-0.8478 6.0807,-0.64733 9.20876,0.90207 m -7.0162,-4.58975 c 3.87144,-2.21762 8.54472,-2.71878 13.41847,-0.47193 m -12.47463,-1.35312 c 4.1429,-4.54382 10.50759,-6.90343 17.53213,-4.45612 m -38.46377,26.20632 c 3.66262,0.65569 5.9053,2.73548 7.16236,5.57537 m -13.89456,148.13774 c 3.59997,0.77261 7.1373,-0.0668 10.75398,-2.33038 m -7.82639,7.02873 c 3.33269,0.66403 6.56515,-0.12112 9.94378,-2.07981 m -8.26073,6.51086 c 3.2784,0.96056 6.40645,0.42181 9.70991,-1.2153 m -8.67002,5.31644 c 3.92573,1.75405 6.931381,2.07966 10.886341,0.13767 m -10.781921,3.14491 c 4.80692,3.28258 9.118408,4.57656 13.766638,2.49258 M 23.166266,305.73197 c 4.405996,1.52019 8.812006,0.80186 13.218006,-2.16332 m 6.72803,-34.8471 c 1.46171,2.06728 4.53129,1.98792 5.76748,-0.23804 m 0.96055,-12.97996 c -1.24872,2.819 -0.42598,7.6844 -1.658,9.07929 -0.95637,1.08166 -2.33037,1.18189 -4.10948,0.29652 M 457.71087,153.71027 c -2.62272,0.50116 -4.60646,1.9211 -6.09322,4.04267 m 1.61623,-8.11875 c -2.54338,0.16288 -4.75264,1.20696 -6.66957,3.09047 m 2.30532,-7.47976 c -2.35543,-0.16288 -4.64823,0.39675 -6.83243,1.76658 m 3.6835,-6.11411 c -2.95265,-0.8478 -6.0807,-0.64733 -9.20876,0.90207 m 7.0162,-4.58975 c -3.87144,-2.21762 -8.54472,-2.71878 -13.41847,-0.47193 m 12.47463,-1.35312 c -4.1429,-4.54382 -10.50759,-6.90343 -17.53213,-4.45612 m 38.46377,26.20632 c -3.66262,0.65569 -5.9053,2.73548 -7.16236,5.57537 m 13.89456,148.13774 c -3.59997,0.77261 -7.1373,-0.0668 -10.75398,-2.33038 m 7.82639,7.02873 c -3.33269,0.66403 -6.56515,-0.12112 -9.94378,-2.07981 m 8.26073,6.51086 c -3.2784,0.96056 -6.40645,0.98691 -9.70991,-0.6502 m 8.67002,4.75134 c -3.92573,1.75405 -7.35521,2.36221 -11.31017,0.42022 m 11.20575,2.86236 c -4.80692,3.28258 -9.51837,4.73982 -14.1666,2.65584 m 24.49878,-24.28494 c -4.40599,1.52019 -8.812,0.80186 -13.218,-2.16332 m -6.72803,-34.8471 c -1.46171,2.06728 -4.53547,1.98792 -5.76748,-0.23804 m -0.96055,-12.97996 c 1.24872,2.819 0.42598,7.6844 1.65799,9.07929 0.95638,1.08166 2.33038,1.18189 4.10948,0.29652 M 247.99768,129.87192 c 0.33829,1.71229 -0.45522,4.21389 -2.11321,4.93639 m -3.65009,-5.21202 c 0.35916,1.82087 -0.27981,4.14289 -1.6914,5.42919 m -4.07191,-5.70066 c 0.41346,2.09234 -0.25475,4.59394 -1.75822,6.1517 m -4.00925,-6.42733 c 0.48445,2.46402 -0.29234,5.29973 -2.04222,7.09972 m -3.72526,-7.37119 c 0.58051,2.9276 -0.38839,6.21017 -2.53084,8.23986 m -3.10299,-7.64264 c 0.33827,3.23663 -0.91044,6.63615 -3.3661,8.68254 m -2.34291,-8.36514 c 0.22552,3.69603 -1.38654,7.44635 -4.37259,9.55538 m -1.37401,-9.67649 c 0.27146,4.38929 -1.82504,8.79112 -5.62966,10.9795 m -0.11693,-11.10062 c 0.32157,5.18697 -2.39303,10.32801 -7.2292,12.48298 m 1.4826,-12.60827 c 0.37586,6.08071 -3.09464,12.02359 -9.15029,13.99898 m 3.37863,-14.46672 c 0.57216,6.76562 -3.30346,13.38505 -10.12336,15.48156 m 69.53966,-14.46672 c -0.33827,1.71229 0.45522,4.21389 2.11321,4.93639 m 3.6501,-5.21202 c -0.35917,1.82087 0.2798,4.14289 1.6914,5.42919 m 4.0719,-5.70066 c -0.40928,2.09234 0.25475,4.59394 1.75822,6.1517 m 4.00926,-6.42733 c -0.48445,2.46402 0.29233,5.29973 2.04221,7.09972 m 3.72526,-7.37119 c -0.5805,2.9276 0.3884,6.21017 2.53085,8.23986 m 3.10299,-7.64264 c -0.33828,3.23663 0.91044,6.63615 3.36611,8.68254 m 2.34289,-8.36514 c -0.22551,3.69603 1.38654,7.44635 4.37678,9.55538 m 1.36983,-9.67649 c -0.27147,4.38929 1.82504,8.79112 5.62965,10.9795 m 0.11695,-11.10062 c -0.32159,5.18697 2.39301,10.32801 7.22918,12.48298 m -1.48259,-12.60827 c -0.37587,6.08071 3.09465,12.02359 9.15029,13.99898 m -3.37863,-14.46672 c -0.57216,6.76562 3.30345,13.38505 10.12336,15.48156"
     id="path2995"
     style="fill:none;stroke:#000000;stroke-width:1.77575278;stroke-linecap:round" />
  <path
     d="m 143.36869,114.41959 -7.60505,-19.90428 c 74.11272,-22.36411 152.53539,-22.36411 226.64811,0 l -7.60505,19.90428 c -61.31234,-20.03791 -150.12566,-20.03791 -211.43801,0 z"
     id="path2997"
     style="fill:#ffe600;fill-rule:evenodd;stroke:#000000;stroke-width:1.79999995;stroke-miterlimit:4;stroke-dasharray:none" />
  <path
     d="m 333.91682,553.94653 c -27.10423,18.6848 -58.1467,29.63089 -84.37391,37.65775 -26.22719,-8.02686 -57.2655,-18.97295 -84.3739,-37.65775"
     id="path2999"
     style="fill:none;stroke:#000000;stroke-width:2.08828211" />
  <path
     d="M 116.419,485.73075 C 88.646562,448.68692 72.112562,390.74903 75.324142,340.94658 c -20.31354,1.46171 -40.05494,4.85287 -58.806555,11.50991 8.273265,24.94506 17.557195,49.89014 28.294475,74.8394 10.16512,23.67965 36.16263,52.07435 56.238128,73.30251 l -19.227718,17.78689 c 44.486018,34.6174 96.414198,54.93513 151.879718,58.3764 7.02454,0.43434 13.87369,0.60139 20.92329,0.49698 l 0.008,-0.071 c 3.69186,-0.096 7.37119,-0.27146 11.0338,-0.51786 54.94766,-3.68768 106.38721,-23.95529 150.50571,-58.28452 l -19.22773,-17.78687 c 20.07549,-21.22816 46.073,-49.62286 56.2423,-73.30251 10.73729,-24.94926 20.01704,-49.89434 28.2903,-74.8394 -18.74744,-6.65704 -38.49301,-10.0482 -58.80656,-11.50991 3.21158,49.80245 -14.02821,107.74034 -41.79647,144.78417 l 1.39072,2.02134 c -14.73402,17.76183 -30.82532,32.26613 -48.57045,43.50457 -20.74788,13.14284 -43.75932,21.82956 -69.51042,26.04344 -10.39066,1.69976 -18.68063,1.25707 -29.14227,0.19629 -50.48318,-5.11179 -86.69175,-31.84433 -118.93701,-70.7132 l 0.31323,-1.05244 z"
     id="path3001"
     style="fill:#ffe600;fill-rule:evenodd;stroke:none" />
  <g
     transform="matrix(4.1763057,0,0,4.1763057,-993.48019,-1458.0305)"
     id="g3003"
     style="fill-rule:evenodd;stroke-width:0.43100294;stroke-miterlimit:4;stroke-dasharray:none">
    <path
       d="m 247.477,431.901 c 0.606,3.165 1.531,6.403 2.485,9.623 0.456,1.544 1.015,3.1 1.304,4.688 0.444,2.443 -0.014,3.829 0.671,5.773 1.085,3.081 4.227,1.847 3.043,-1.408 -0.645,-1.775 -2.104,-2.956 -2.724,-4.768 -0.516,-1.507 -0.869,-3.088 -1.207,-4.642 -0.704,-3.237 -1.21,-6.526 -1.683,-9.66 m -0.572,20.505 c -2.652,-6.166 -4.932,-12.332 -6.957,-18.498 4.446,-1.594 9.128,-2.406 13.946,-2.756 m -2.599,0.24 c 0.565,7.282 1.712,14.63 4.13,22.121 m -6.032,-21.845 c 0.804,7.143 2.139,14.341 4.612,21.66 m -10.306,-20.585 c 1.537,6.557 3.748,14.117 6.328,20.745 m -8.244,-20.163 c 1.782,6.361 4.208,13.51 6.824,19.907"
       id="path3005"
       style="fill:none;stroke:#000000;stroke-width:0.43100294;stroke-miterlimit:4;stroke-dasharray:none" />
    <path
       d="m 276.21,482.175 c -6.199,-2.404 -12.137,-6.049 -17.321,-10.398 m 17.733,9.024 c -5.833,-2.528 -11.372,-6.123 -16.169,-10.491 m 16.581,9.117 c -2.307,-1.118 -4.555,-2.396 -6.714,-3.829 m 7.125,2.455 c -1.992,-1.083 -3.93,-2.278 -5.79,-3.593 m 4.143,9.089 c -6.566,-2.28 -12.903,-5.975 -18.474,-10.304 l 5.672,-5.305 m 9.614,4.864 c 1.654,1.363 3.397,2.642 5.246,3.876"
       id="path3007"
       style="fill:none;stroke:#000000;stroke-width:0.43100294;stroke-miterlimit:4;stroke-dasharray:none" />
    <path
       d="m 241.446,444.976 c 2.285,2.156 4.663,4.202 7.087,6.057 1.766,1.352 3.053,1.498 4.408,2.512 1.345,1.008 2.261,2.137 2.248,2.97 -0.013,0.893 -0.853,1.417 -2.016,0.996 -0.976,-0.354 -1.713,-1.148 -2.376,-1.919 -1.048,-1.217 -1.738,-2.591 -2.915,-3.745 -1.738,-1.703 -3.581,-3.008 -5.498,-4.025 l -0.938,-2.846 z"
       id="path3009"
       style="fill:#ffe600;stroke:#000000;stroke-width:0.43100294;stroke-miterlimit:4;stroke-dasharray:none" />
    <path
       d="m 257.434,448.146 c -0.34,2.102 -1.408,3.497 -2.042,5.436 -0.359,1.097 -0.459,2.946 0.984,3.243 1.38,0.284 2.032,-1.579 2.219,-2.609 0.347,-1.918 -0.316,-4.35 -1.161,-6.07 z"
       id="path3011"
       style="fill:#ffe600;stroke:#000000;stroke-width:0.43100294;stroke-miterlimit:4;stroke-dasharray:none" />
    <path
       d="m 244.211,450.978 c 1.975,1.602 4.129,3.364 6.17,4.683 1.865,1.206 3.161,1.25 4.59,2.153 1.419,0.897 2.421,1.95 2.474,2.782 0.056,0.891 -0.74,1.435 -1.933,1.108 -1,-0.274 -1.709,-1.052 -2.43,-1.768 -1.139,-1.129 -1.98,-2.444 -3.243,-3.501 -1.369,-1.144 -3.022,-2.072 -4.22,-2.645 l -1.408,-2.812 z"
       id="path3013"
       style="fill:#ffe600;stroke:#000000;stroke-width:0.43100294;stroke-miterlimit:4;stroke-dasharray:none" />
    <path
       d="m 258.976,452.416 c -0.079,2.06 -0.939,3.529 -1.32,5.467 -0.215,1.098 -0.092,2.886 1.329,2.997 1.359,0.107 1.765,-1.761 1.823,-2.773 0.107,-1.884 -0.817,-4.14 -1.832,-5.691 z"
       id="path3015"
       style="fill:#ffe600;stroke:#000000;stroke-width:0.43100294;stroke-miterlimit:4;stroke-dasharray:none" />
    <path
       d="m 246.512,456.622 c 2.147,1.358 4.49,2.853 6.669,3.923 1.993,0.977 3.284,0.868 4.808,1.597 1.514,0.723 2.63,1.651 2.779,2.47 0.159,0.879 -0.569,1.514 -1.791,1.329 -1.025,-0.155 -1.819,-0.843 -2.619,-1.469 -1.261,-0.987 -2.248,-2.195 -3.625,-3.095 -1.492,-0.975 -3.241,-1.701 -4.497,-2.129 l -1.724,-2.626 z"
       id="path3017"
       style="fill:#ffe600;stroke:#000000;stroke-width:0.43100294;stroke-miterlimit:4;stroke-dasharray:none" />
    <path
       d="m 260.992,456.123 c 0.183,2.018 -0.472,3.56 -0.598,5.499 -0.071,1.097 0.274,2.825 1.673,2.75 1.338,-0.07 1.499,-1.943 1.428,-2.937 -0.133,-1.85 -1.319,-3.931 -2.503,-5.312 z"
       id="path3019"
       style="fill:#ffe600;stroke:#000000;stroke-width:0.43100294;stroke-miterlimit:4;stroke-dasharray:none" />
    <path
       d="m 249.607,461.682 c 2.254,1.168 4.716,2.455 6.977,3.333 2.068,0.802 3.346,0.582 4.926,1.176 1.569,0.59 2.76,1.418 2.977,2.221 0.234,0.862 -0.438,1.557 -1.671,1.479 -1.035,-0.066 -1.884,-0.683 -2.734,-1.238 -1.34,-0.874 -2.426,-1.992 -3.874,-2.77 -1.569,-0.843 -3.373,-1.415 -4.661,-1.734 l -1.94,-2.467 z"
       id="path3021"
       style="fill:#ffe600;stroke:#000000;stroke-width:0.43100294;stroke-miterlimit:4;stroke-dasharray:none" />
    <path
       d="m 263.442,459.933 c 0.444,1.977 -0.003,3.592 0.125,5.531 0.072,1.097 0.639,2.763 2.016,2.504 1.318,-0.248 1.233,-2.126 1.033,-3.102 -0.374,-1.816 -1.82,-3.721 -3.174,-4.933 z"
       id="path3023"
       style="fill:#ffe600;stroke:#000000;stroke-width:0.43100294;stroke-miterlimit:4;stroke-dasharray:none" />
    <path
       d="m 260.448,469.438 c 2.149,0.543 3.391,0.169 5.031,0.566 1.628,0.394 2.909,1.071 3.221,1.842 0.335,0.826 -0.248,1.599 -1.482,1.672 -2.593,0.153 -5.431,-1.563 -6.77,-4.08 z"
       id="path3025"
       style="fill:#ffe600;stroke:#000000;stroke-width:0.43100294;stroke-miterlimit:4;stroke-dasharray:none" />
    <path
       d="m 266.17,463.41 c 0.706,1.935 0.466,3.623 0.848,5.562 0.216,1.097 1.005,2.703 2.36,2.258 1.297,-0.425 0.966,-2.309 0.637,-3.266 -0.613,-1.782 -2.32,-3.512 -3.845,-4.554 z"
       id="path3027"
       style="fill:#ffe600;stroke:#000000;stroke-width:0.43100294;stroke-miterlimit:4;stroke-dasharray:none" />
    <path
       d="m 269.485,466.79 c 0.967,1.892 0.934,3.655 1.569,5.593 0.36,1.097 1.372,2.642 2.705,2.011 1.276,-0.602 0.7,-2.49 0.241,-3.43 -0.853,-1.748 -2.821,-3.302 -4.515,-4.174 z"
       id="path3029"
       style="fill:#ffe600;stroke:#000000;stroke-width:0.43100294;stroke-miterlimit:4;stroke-dasharray:none" />
    <path
       d="m 264.494,473.582 c 2.202,0.237 3.381,-0.307 5.059,-0.144 1.667,0.162 3.029,0.653 3.444,1.372 0.445,0.772 -0.027,1.619 -1.238,1.864 -2.548,0.515 -5.593,-0.787 -7.265,-3.092 z"
       id="path3031"
       style="fill:#ffe600;stroke:#000000;stroke-width:0.43100294;stroke-miterlimit:4;stroke-dasharray:none" />
    <path
       d="m 269.662,477.174 c 2.146,0.846 3.231,0.775 4.413,1.03 1.146,0.247 2.403,0.727 3.216,1.593 0.961,1.025 0.622,2.753 -1.151,2.472 -1.096,-0.173 -2.237,-1.154 -3.281,-2.089 -1.044,-0.936 -1.871,-2.015 -3.197,-3.006 z"
       id="path3033"
       style="fill:#ffe600;stroke:#000000;stroke-width:0.43100294;stroke-miterlimit:4;stroke-dasharray:none" />
    <path
       d="m 271.962,483.913 c 2.793,-0.489 3.421,-1.278 5.112,-1.631 1.639,-0.344 3.096,-0.07 3.664,0.533 0.61,0.647 0.426,1.445 -0.717,1.916 -2.055,0.848 -4.984,-0.379 -8.059,-0.818 z"
       id="path3035"
       style="fill:#ffe600;stroke:#000000;stroke-width:0.43100294;stroke-miterlimit:4;stroke-dasharray:none" />
    <path
       d="m 276.159,475.697 c 1.092,1.741 0.734,3.206 1.458,4.538 0.719,1.323 1.598,1.968 2.329,2.059 0.783,0.096 1.427,-0.407 1.199,-1.497 -0.479,-2.29 -2.524,-4.528 -4.986,-5.1 z"
       id="path3037"
       style="fill:#ffe600;stroke:#000000;stroke-width:0.43100294;stroke-miterlimit:4;stroke-dasharray:none" />
    <path
       d="m 277.193,485.279 c 2.583,-0.443 3.208,-1.136 4.772,-1.457 1.517,-0.312 2.862,-0.054 3.386,0.505 0.561,0.6 0.367,1.382 -0.683,1.828 -1.987,0.863 -4.861,-0.107 -7.475,-0.876 z"
       id="path3039"
       style="fill:#ffe600;stroke:#000000;stroke-width:0.43100294;stroke-miterlimit:4;stroke-dasharray:none" />
    <path
       d="m 279.931,477.42 c 1.133,1.507 1.16,2.642 1.786,3.791 0.755,1.38 1.888,2.555 3.052,2.419 0.806,-0.017 1.47,-0.794 1.069,-1.85 -0.769,-2.121 -3.206,-3.355 -5.907,-4.36 z"
       id="path3041"
       style="fill:#ffe600;stroke:#000000;stroke-width:0.43100294;stroke-miterlimit:4;stroke-dasharray:none" />
    <path
       d="m 282.377,487.228 c 2.642,-0.792 3.25,-1.561 4.843,-2.097 1.544,-0.52 2.981,-0.424 3.598,0.094 0.661,0.554 0.536,1.442 -0.495,2.058 -2.056,1.248 -5.359,0.786 -7.946,-0.055 z"
       id="path3043"
       style="fill:#ffe600;stroke:#000000;stroke-width:0.43100294;stroke-miterlimit:4;stroke-dasharray:none" />
    <path
       d="m 283.92,479.049 c 1.262,1.185 1.655,2.139 2.251,3.063 0.889,1.378 2.517,2.793 4.084,2.317 0.816,-0.191 1.303,-1.102 0.657,-2.081 -1.193,-1.869 -4.387,-2.57 -6.992,-3.299 z"
       id="path3045"
       style="fill:#ffe600;stroke:#000000;stroke-width:0.43100294;stroke-miterlimit:4;stroke-dasharray:none" />
    <path
       d="m 288.501,488.114 c 2.666,-0.975 3.288,-1.762 4.892,-2.41 1.555,-0.627 3.036,-0.616 3.701,-0.122 0.712,0.529 0.612,1.496 -0.403,2.207 -2.134,1.495 -5.748,1.399 -8.19,0.325 z"
       id="path3047"
       style="fill:#ffe600;stroke:#000000;stroke-width:0.43100294;stroke-miterlimit:4;stroke-dasharray:none" />
    <path
       d="m 288.664,479.743 c 1.276,0.966 1.946,1.912 2.422,2.667 0.91,1.444 3.323,3.495 5.315,2.788 0.834,-0.296 1.448,-1.647 0.656,-2.602 -1.447,-1.745 -5.112,-1.381 -8.393,-2.853 z"
       id="path3049"
       style="fill:#ffe600;stroke:#000000;stroke-width:0.43100294;stroke-linejoin:bevel;stroke-miterlimit:4;stroke-dasharray:none" />
  </g>
  <g
     transform="matrix(4.1763057,0,0,4.1763057,-993.48019,-1458.0305)"
     id="g3051"
     style="fill-rule:evenodd;stroke-width:0.43100294;stroke-miterlimit:4;stroke-dasharray:none">
    <path
       d="m 347.536,431.901 c -0.606,3.165 -1.531,6.403 -2.484,9.623 -0.457,1.544 -1.016,3.1 -1.305,4.688 -0.444,2.443 0.014,3.829 -0.671,5.773 -1.085,3.081 -4.227,1.847 -3.043,-1.408 0.645,-1.775 2.104,-2.956 2.724,-4.768 0.516,-1.507 0.869,-3.088 1.207,-4.642 0.705,-3.237 1.21,-6.526 1.683,-9.66 m 0.573,20.505 c 2.651,-6.166 4.931,-12.332 6.957,-18.498 -4.447,-1.594 -9.129,-2.406 -13.947,-2.756 m 2.599,0.24 c -0.565,7.282 -1.712,14.63 -4.13,22.121 m 6.032,-21.845 c -0.804,7.143 -2.139,14.341 -4.612,21.66 m 10.306,-20.585 c -1.537,6.557 -3.748,14.117 -6.328,20.745 m 8.244,-20.163 c -1.782,6.361 -4.208,13.51 -6.824,19.907"
       id="path3053"
       style="fill:none;stroke:#000000;stroke-width:0.43100294;stroke-miterlimit:4;stroke-dasharray:none" />
    <path
       d="m 318.803,482.175 c 6.2,-2.404 12.137,-6.049 17.321,-10.398 m -17.733,9.024 c 5.834,-2.528 11.372,-6.123 16.169,-10.491 m -16.58,9.117 c 2.306,-1.118 4.554,-2.396 6.713,-3.829 m -7.125,2.455 c 1.992,-1.083 3.93,-2.278 5.79,-3.593 m -4.143,9.089 c 6.566,-2.28 12.903,-5.975 18.474,-10.304 l -5.672,-5.305 m -9.614,4.864 c -1.654,1.363 -3.397,2.642 -5.246,3.876"
       id="path3055"
       style="fill:none;stroke:#000000;stroke-width:0.43100294;stroke-miterlimit:4;stroke-dasharray:none" />
    <path
       d="m 353.567,444.976 c -2.285,2.156 -4.663,4.202 -7.087,6.057 -1.766,1.352 -3.053,1.498 -4.408,2.512 -1.344,1.008 -2.261,2.137 -2.248,2.97 0.013,0.893 0.853,1.417 2.016,0.996 0.976,-0.354 1.713,-1.148 2.377,-1.919 1.047,-1.217 1.737,-2.591 2.914,-3.745 1.738,-1.703 3.581,-3.008 5.498,-4.025 l 0.938,-2.846 z"
       id="path3057"
       style="fill:#ffe600;stroke:#000000;stroke-width:0.43100294;stroke-miterlimit:4;stroke-dasharray:none" />
    <path
       d="m 337.579,448.146 c 0.34,2.102 1.408,3.497 2.042,5.436 0.359,1.097 0.459,2.946 -0.984,3.243 -1.38,0.284 -2.032,-1.579 -2.219,-2.609 -0.347,-1.918 0.316,-4.35 1.161,-6.07 z"
       id="path3059"
       style="fill:#ffe600;stroke:#000000;stroke-width:0.43100294;stroke-miterlimit:4;stroke-dasharray:none" />
    <path
       d="m 350.803,450.978 c -1.976,1.602 -4.13,3.364 -6.171,4.683 -1.865,1.206 -3.161,1.25 -4.59,2.153 -1.419,0.897 -2.421,1.95 -2.474,2.782 -0.056,0.891 0.74,1.435 1.933,1.108 1,-0.274 1.709,-1.052 2.43,-1.768 1.139,-1.129 1.98,-2.444 3.243,-3.501 1.369,-1.144 3.022,-2.072 4.22,-2.645 l 1.409,-2.812 z"
       id="path3061"
       style="fill:#ffe600;stroke:#000000;stroke-width:0.43100294;stroke-miterlimit:4;stroke-dasharray:none" />
    <path
       d="m 336.037,452.416 c 0.079,2.06 0.94,3.529 1.32,5.467 0.215,1.098 0.092,2.886 -1.329,2.997 -1.359,0.107 -1.765,-1.761 -1.823,-2.773 -0.107,-1.884 0.817,-4.14 1.832,-5.691 z"
       id="path3063"
       style="fill:#ffe600;stroke:#000000;stroke-width:0.43100294;stroke-miterlimit:4;stroke-dasharray:none" />
    <path
       d="m 348.502,456.622 c -2.148,1.358 -4.491,2.853 -6.67,3.923 -1.992,0.977 -3.284,0.868 -4.808,1.597 -1.514,0.723 -2.63,1.651 -2.779,2.47 -0.159,0.879 0.569,1.514 1.791,1.329 1.025,-0.155 1.819,-0.843 2.619,-1.469 1.261,-0.987 2.248,-2.195 3.625,-3.095 1.492,-0.975 3.241,-1.701 4.497,-2.129 l 1.725,-2.626 z"
       id="path3065"
       style="fill:#ffe600;stroke:#000000;stroke-width:0.43100294;stroke-miterlimit:4;stroke-dasharray:none" />
    <path
       d="m 334.022,456.123 c -0.184,2.018 0.471,3.56 0.597,5.499 0.071,1.097 -0.274,2.825 -1.673,2.75 -1.338,-0.07 -1.499,-1.943 -1.428,-2.937 0.134,-1.85 1.319,-3.931 2.504,-5.312 z"
       id="path3067"
       style="fill:#ffe600;stroke:#000000;stroke-width:0.43100294;stroke-miterlimit:4;stroke-dasharray:none" />
    <path
       d="m 345.407,461.682 c -2.255,1.168 -4.716,2.455 -6.978,3.333 -2.068,0.802 -3.346,0.582 -4.926,1.176 -1.569,0.59 -2.76,1.418 -2.977,2.221 -0.234,0.862 0.438,1.557 1.671,1.479 1.035,-0.066 1.884,-0.683 2.734,-1.238 1.341,-0.874 2.426,-1.992 3.874,-2.77 1.569,-0.843 3.373,-1.415 4.661,-1.734 l 1.941,-2.467 z"
       id="path3069"
       style="fill:#ffe600;stroke:#000000;stroke-width:0.43100294;stroke-miterlimit:4;stroke-dasharray:none" />
    <path
       d="m 331.571,459.933 c -0.444,1.977 0.003,3.592 -0.125,5.531 -0.072,1.097 -0.639,2.763 -2.016,2.504 -1.317,-0.248 -1.233,-2.126 -1.032,-3.102 0.373,-1.816 1.819,-3.721 3.173,-4.933 z"
       id="path3071"
       style="fill:#ffe600;stroke:#000000;stroke-width:0.43100294;stroke-miterlimit:4;stroke-dasharray:none" />
    <path
       d="m 334.565,469.438 c -2.149,0.543 -3.391,0.169 -5.03,0.566 -1.629,0.394 -2.91,1.071 -3.222,1.842 -0.335,0.826 0.248,1.599 1.482,1.672 2.594,0.153 5.431,-1.563 6.77,-4.08 z"
       id="path3073"
       style="fill:#ffe600;stroke:#000000;stroke-width:0.43100294;stroke-miterlimit:4;stroke-dasharray:none" />
    <path
       d="m 328.843,463.41 c -0.706,1.935 -0.466,3.623 -0.847,5.562 -0.216,1.097 -1.006,2.703 -2.361,2.258 -1.297,-0.425 -0.966,-2.309 -0.637,-3.266 0.614,-1.782 2.321,-3.512 3.845,-4.554 z"
       id="path3075"
       style="fill:#ffe600;stroke:#000000;stroke-width:0.43100294;stroke-miterlimit:4;stroke-dasharray:none" />
    <path
       d="m 325.528,466.79 c -0.967,1.892 -0.934,3.655 -1.569,5.593 -0.36,1.097 -1.372,2.642 -2.705,2.011 -1.276,-0.602 -0.7,-2.49 -0.241,-3.43 0.853,-1.748 2.821,-3.302 4.515,-4.174 z"
       id="path3077"
       style="fill:#ffe600;stroke:#000000;stroke-width:0.43100294;stroke-miterlimit:4;stroke-dasharray:none" />
    <path
       d="m 330.52,473.582 c -2.203,0.237 -3.382,-0.307 -5.06,-0.144 -1.667,0.162 -3.029,0.653 -3.444,1.372 -0.445,0.772 0.027,1.619 1.238,1.864 2.548,0.515 5.594,-0.787 7.266,-3.092 z"
       id="path3079"
       style="fill:#ffe600;stroke:#000000;stroke-width:0.43100294;stroke-miterlimit:4;stroke-dasharray:none" />
    <path
       d="m 325.351,477.174 c -2.146,0.846 -3.231,0.775 -4.413,1.03 -1.146,0.247 -2.403,0.727 -3.215,1.593 -0.962,1.025 -0.623,2.753 1.15,2.472 1.096,-0.173 2.237,-1.154 3.281,-2.089 1.044,-0.936 1.871,-2.015 3.197,-3.006 z"
       id="path3081"
       style="fill:#ffe600;stroke:#000000;stroke-width:0.43100294;stroke-miterlimit:4;stroke-dasharray:none" />
    <path
       d="m 323.051,483.913 c -2.793,-0.489 -3.421,-1.278 -5.112,-1.631 -1.639,-0.344 -3.096,-0.07 -3.664,0.533 -0.61,0.647 -0.426,1.445 0.717,1.916 2.055,0.848 4.984,-0.379 8.059,-0.818 z"
       id="path3083"
       style="fill:#ffe600;stroke:#000000;stroke-width:0.43100294;stroke-miterlimit:4;stroke-dasharray:none" />
    <path
       d="m 318.854,475.697 c -1.092,1.741 -0.734,3.206 -1.458,4.538 -0.719,1.323 -1.598,1.968 -2.328,2.059 -0.784,0.096 -1.428,-0.407 -1.2,-1.497 0.479,-2.29 2.524,-4.528 4.986,-5.1 z"
       id="path3085"
       style="fill:#ffe600;stroke:#000000;stroke-width:0.43100294;stroke-miterlimit:4;stroke-dasharray:none" />
    <path
       d="m 317.82,485.279 c -2.583,-0.443 -3.208,-1.136 -4.772,-1.457 -1.517,-0.312 -2.862,-0.054 -3.385,0.505 -0.561,0.6 -0.368,1.382 0.682,1.828 1.987,0.863 4.861,-0.107 7.475,-0.876 z"
       id="path3087"
       style="fill:#ffe600;stroke:#000000;stroke-width:0.43100294;stroke-miterlimit:4;stroke-dasharray:none" />
    <path
       d="m 315.082,477.42 c -1.133,1.507 -1.159,2.642 -1.786,3.791 -0.755,1.38 -1.888,2.555 -3.052,2.419 -0.805,-0.017 -1.47,-0.794 -1.069,-1.85 0.769,-2.121 3.206,-3.355 5.907,-4.36 z"
       id="path3089"
       style="fill:#ffe600;stroke:#000000;stroke-width:0.43100294;stroke-miterlimit:4;stroke-dasharray:none" />
    <path
       d="m 312.636,487.228 c -2.641,-0.792 -3.25,-1.561 -4.843,-2.097 -1.544,-0.52 -2.981,-0.424 -3.598,0.094 -0.661,0.554 -0.536,1.442 0.495,2.058 2.056,1.248 5.359,0.786 7.946,-0.055 z"
       id="path3091"
       style="fill:#ffe600;stroke:#000000;stroke-width:0.43100294;stroke-miterlimit:4;stroke-dasharray:none" />
    <path
       d="m 311.093,479.049 c -1.262,1.185 -1.655,2.139 -2.251,3.063 -0.889,1.378 -2.517,2.793 -4.084,2.317 -0.816,-0.191 -1.303,-1.102 -0.657,-2.081 1.193,-1.869 4.387,-2.57 6.992,-3.299 z"
       id="path3093"
       style="fill:#ffe600;stroke:#000000;stroke-width:0.43100294;stroke-miterlimit:4;stroke-dasharray:none" />
    <path
       d="m 306.512,488.114 c -2.666,-0.975 -3.288,-1.762 -4.892,-2.41 -1.555,-0.627 -3.036,-0.616 -3.701,-0.122 -0.712,0.529 -0.612,1.496 0.403,2.207 2.135,1.495 5.748,1.399 8.19,0.325 z"
       id="path3095"
       style="fill:#ffe600;stroke:#000000;stroke-width:0.43100294;stroke-miterlimit:4;stroke-dasharray:none" />
    <path
       d="m 306.349,479.743 c -1.276,0.966 -1.945,1.912 -2.421,2.667 -0.911,1.444 -3.324,3.495 -5.316,2.788 -0.834,-0.296 -1.448,-1.647 -0.656,-2.602 1.448,-1.745 5.112,-1.381 8.393,-2.853 z"
       id="path3097"
       style="fill:#ffe600;stroke:#000000;stroke-width:0.43100294;stroke-linejoin:bevel;stroke-miterlimit:4;stroke-dasharray:none" />
  </g>
  <path
     d="m 109.01858,20.65317 c 10.40317,6.98696 22.13442,12.92149 33.31021,18.39663 20.14232,9.8686 24.06388,32.02809 0,39.9923 l -10.07743,2.7146 -23.23278,-61.10353 z"
     id="path3099"
     style="fill:#ffe600;fill-rule:evenodd;stroke:#000000;stroke-width:1.79999995;stroke-miterlimit:4;stroke-dasharray:none" />
  <path
     d="m 199.76553,70.13822 c 2.50578,-8.18138 9.33404,-14.0658 10.69134,-18.83932 1.53688,-5.40831 -0.77262,-8.36932 -10.37812,-7.13313 9.9939,-9.79343 9.12105,-17.12286 -1.72064,-16.23747 9.8185,-10.77487 0.0375,-16.61335 -7.25424,-11.45144 5.67142,-7.34194 2.56843,-14.14514 -9.9229,-12.21986 -12.48715,1.9211 -13.39759,9.34657 -5.77583,14.63795 -8.51132,-2.72296 -16.07878,5.79254 -3.47051,13.10942 -10.60782,2.42226 -9.22964,9.67232 3.24916,15.99525 -9.53033,1.72064 -10.84169,5.23709 -7.74705,9.93126 2.7313,4.14289 11.0171,7.69693 15.86579,14.74653 l 16.463,-2.53919 z m 98.64017,0 c -2.50579,-8.18138 -9.33405,-14.0658 -10.68717,-18.83932 -1.54106,-5.40831 0.76844,-8.36932 10.37394,-7.13313 -9.9939,-9.79343 -9.12105,-17.12286 1.72064,-16.23747 -9.8185,-10.77487 -0.0375,-16.61335 7.25424,-11.45144 -5.67143,-7.34194 -2.56425,-14.14514 9.9229,-12.21986 12.48715,1.9211 13.39759,9.34657 5.77584,14.63795 8.51131,-2.72296 16.07878,5.79254 3.4705,13.10942 10.60782,2.42226 9.22964,9.67232 -3.24916,15.99525 9.53033,1.72064 10.84169,5.23709 7.74705,9.93126 -2.73131,4.14289 -11.0171,7.69693 -15.86579,14.74653 L 298.4057,70.13822 z"
     id="path3101"
     style="fill:#ffe600;fill-rule:evenodd;stroke:#000000;stroke-width:1.79999995;stroke-linejoin:round;stroke-miterlimit:4;stroke-dasharray:none" />
  <path
     d="m 258.94378,63.89882 c 22.77757,-5.24962 25.54646,-26.82859 8.3025,-42.69438 -1.46171,-1.34476 -3.06959,-2.64778 -4.81528,-3.90067 -5.95541,-4.25148 -9.56375,-9.8352 -13.3433,-15.91589 -5.30809,8.54054 -11.05468,13.289 -18.1544,19.81656 -17.24397,15.86579 -14.47508,37.44476 8.30249,42.69438 l 19.70799,0 z"
     id="path3103"
     style="fill:#ffe600;fill-rule:evenodd;stroke:#000000;stroke-width:1.79999995;stroke-miterlimit:4;stroke-dasharray:none" />
  <path
     d="m 388.97723,20.79934 c -10.40317,6.99114 -21.95484,12.77532 -33.13063,18.25046 -20.14649,9.8686 -24.06805,32.02809 0,39.9923 l 10.07743,2.7146 23.0532,-60.95736 z"
     id="path3105"
     style="fill:#ffe600;fill-rule:evenodd;stroke:#000000;stroke-width:1.79999995;stroke-miterlimit:4;stroke-dasharray:none" />
  <path
     d="m 131.86297,43.71056 -7.99344,12.80873 m 16.13306,-5.43337 -10.17348,16.30847 m 18.31311,-11.64772 -11.62684,18.63468 m 65.50953,-22.66064 -10.09831,13.3433 m 3.18652,-42.9199 -10.0983,13.3433 m 13.64399,-0.53457 -10.10248,13.3433 m -12.95491,7.49647 13.65234,9.68485 m -15.96601,-39.96725 13.64817,9.68068 m -13.17207,3.59998 13.65234,9.68485 m 70.3624,-24.56921 -13.48947,22.51865 m 25.12048,-5.43338 -13.48947,22.51864 m 8.06028,-31.45176 -13.48947,22.51865 m 115.81731,-10.86675 7.99762,12.80873 m -16.13725,-5.43337 10.17766,16.30847 M 350.029,55.74667 361.66002,74.38135 m -65.51371,-22.66064 10.09831,13.3433 m -3.18652,-42.9199 10.0983,13.3433 m -13.63981,-0.53457 10.0983,13.3433 m 12.95491,7.49647 -13.65234,9.68485 m 15.96601,-39.96725 -13.64816,9.68068 m 13.17206,3.59998 -13.65234,9.68485 m -70.35822,-24.56921 13.49364,22.51865 m -25.12048,-5.43338 13.48947,22.51864 m -8.06445,-31.45176 13.48947,22.51865"
     id="path3107"
     style="fill:none;stroke:#000000;stroke-width:1.79999995;stroke-miterlimit:4;stroke-dasharray:none" />
  <path
     d="m 363.59782,92.62762 24.80726,-71.05149 c -10.23195,24.64856 -23.23279,47.31337 -40.6981,66.78331 l 15.89084,4.26818 z M 316.55592,6.96324 c -4.39348,24.51909 -4.62318,49.67716 -0.0918,75.57026 L 293.88284,79.05463 C 306.00247,55.72579 313.36112,31.66609 316.556,6.96324 z m -134.94062,0 c 4.39348,24.51909 4.62318,49.67716 0.0918,75.57026 l 22.58128,-3.47887 C 192.16875,55.72579 184.8101,31.66609 181.61522,6.96324 z M 134.57757,92.62762 109.77032,21.57613 c 10.22777,24.64856 23.23278,47.31337 40.69809,66.78331 l -15.89084,4.26818 z M 264.3688,76.71172 C 253.31412,55.19122 250.34476,32.0169 249.0877,8.37483 247.8348,32.0169 244.86545,55.19122 233.81078,76.71172 l 30.55802,0 z"
     id="path3109"
     style="fill:#ffe600;fill-rule:evenodd;stroke:#000000;stroke-width:1.79999995;stroke-linejoin:bevel;stroke-miterlimit:4;stroke-dasharray:none" />
  <path
     d="m 141.3056,118.91747 -2.38467,-6.24358 c 50.65023,-24.94925 168.98586,-25.06201 220.33772,0 l -2.38467,6.24358 c -57.18616,-23.15344 -158.38222,-23.14926 -215.56838,0 z m 223.1609,-19.87086 2.54755,-6.66538 c -54.88084,-25.91398 -181.67349,-25.8764 -235.84852,0 l 2.54754,6.66538 c 61.17871,-24.76132 169.57473,-24.77803 230.75343,0 z"
     id="path3111"
     style="fill:#ffe600;fill-rule:evenodd;stroke:#000000;stroke-width:1.79999995;stroke-linejoin:round;stroke-miterlimit:4;stroke-dasharray:none" />
  <path
     d="m 72.605372,163.39513 352.785068,0 0,190.45624 c 0,97.40398 -78.99064,176.39045 -176.39044,176.39045 -97.40398,0 -176.394628,-78.98647 -176.394628,-176.39045 l 0,-190.45624 z"
     id="path3113"
     style="fill:#cc9933;fill-rule:evenodd;stroke:#000000;stroke-width:2;stroke-miterlimit:4;stroke-dasharray:none" />
  <g
     transform="matrix(4.1763057,0,0,4.1763057,-993.48019,-1458.0305)"
     id="g3115"
     style="fill-rule:evenodd">
    <path
       d="m 256.697,389.728 81.619,0 0,44.063 c 0,22.535 -18.275,40.81 -40.809,40.81 -22.535,0 -40.81,-18.275 -40.81,-40.81 l 0,-44.063 z"
       id="path3117"
       style="fill:#d20000;stroke:none" />
    <path
       d="m 338.316,410.292 0,23.499 c 0,22.535 -18.275,40.809 -40.809,40.809 -22.535,0 -40.81,-18.274 -40.81,-40.809 l 0,-23.499 81.619,0 z"
       id="path3119"
       style="fill:#005bbb;fill-opacity:1;stroke:none" />
    <path
       d="m 338.316,410.292 0,23.499 c 0,22.535 -18.275,40.809 -40.809,40.809 -11.375,0 -21.663,-4.658 -29.064,-12.168 l 69.873,-52.14 z"
       id="path3121"
       style="fill:#ffe600;stroke:none" />
    <path
       d="m 256.697,389.728 81.619,0 0,44.063 c 0,22.535 -18.275,40.81 -40.809,40.81 -22.535,0 -40.81,-18.275 -40.81,-40.81 l 0,-44.063 z"
       id="path3123"
       style="fill:none;stroke:#000000;stroke-width:0.50003099" />
  </g>
  <g
     transform="matrix(4.1763057,0,0,4.1763057,-993.48019,-1458.0305)"
     id="g3125"
     style="fill-rule:evenodd">
    <path
       d="m 310.142,408.93 c -0.139,0.169 -0.213,0.389 -0.187,0.675 0.284,-0.244 1.605,-0.172 2.475,-0.675 0.819,-0.182 1.263,-0.592 1.57,-1.087 0.147,-0.236 0.381,-0.521 0.646,-0.813 0.44,-0.487 0.944,-1.003 0.995,-1.471 0.094,-0.841 -1.174,-0.787 -2.309,-0.81 -1.353,-0.029 -1.36,-0.809 -1.022,-1.616 1.592,-1.338 1.838,-3.221 0.966,-5.554 1.54,1.948 2.567,4.911 4.388,6.836 1.178,1.244 2.446,2.329 3.686,3.018 2.827,1.571 6.485,1.128 6.658,-2.186 -1.41,1.516 -2.97,1.958 -4.468,0.464 -3.543,-3.533 -6.83,-7.092 -10.445,-9.581 -3.854,-3.454 -8.114,-2.743 -12.446,-1.296 -1.37,0.457 -3.499,1.72 -4.878,1.844 -1.551,0.043 -2.974,0.454 -4.292,1.021 -1.26,-0.47 -2.416,-0.595 -3.502,-0.483 -0.528,-0.967 -1.484,-1.677 -2.596,-2.294 -0.978,-1.725 -2.194,-2.625 -3.482,-2.958 -0.066,-0.078 -0.139,-0.155 -0.216,-0.227 l 0.001,0.177 c -1.955,-0.409 -4.054,0.442 -5.722,1.68 -0.896,0.665 -1.822,1.067 -2.777,1.207 -0.551,0.117 -0.387,0.436 -0.121,0.785 0.053,0.566 0.456,0.929 1.208,1.087 0.442,0.197 1.016,0.197 1.59,0.044 1.091,0.171 2.315,0.058 3.158,-0.032 0.566,0.776 1.49,1.861 2.43,2.397 0.434,1.118 0.913,2.124 1.475,2.998 l -0.019,0.027 c -0.978,0.922 -2.299,1.159 -3.744,1.147 -0.833,-0.049 -1.38,0.253 -1.69,0.845 -0.483,0.536 -1.476,1.089 -1.573,1.598 -0.088,0.459 0,0.889 0.244,1.026 l 0.515,-0.615 0.008,0 c -0.013,0.071 -0.02,0.14 -0.016,0.211 0.015,0.262 0.129,0.516 0.399,0.766 l 0.362,-0.691 0.028,-0.048 c 0.073,0.407 0.377,0.694 0.751,0.728 -0.109,-0.183 0.081,-0.674 0.221,-1.249 0.073,-0.301 0.023,-0.643 0.147,-0.941 1.117,-0.518 1.802,-0.653 3.211,-0.424 1.122,0.277 2.244,0.247 3.365,0.004 0.558,0.397 1.179,0.72 1.877,0.964 l 0.016,-0.005 c -0.29,1.041 -1.04,1.81 -2.311,2.076 -0.474,0.099 -0.958,-0.036 -1.441,-0.022 -1.1,0.032 -1.604,0.491 -1.68,1.203 l 0.762,-0.218 c -0.094,0.141 -0.141,0.312 -0.149,0.523 l 0.888,-0.282 c -0.103,0.147 -0.177,0.32 -0.207,0.517 0.261,-0.086 0.479,-0.149 0.741,-0.17 0.621,0.172 1.19,-0.066 1.751,-0.362 1.334,-0.867 2.84,-1.476 4.408,-1.992 1.596,-0.459 2.433,-0.893 2.822,-1.314 1.737,0.222 3.511,-0.775 5.208,-1.947 1.212,-0.837 2.475,-1.406 3.83,-1.626 l -0.004,0.007 c -0.366,1.298 0.523,2.054 1.789,2.827 0.573,0.391 0.593,0.754 0.06,1.087 -0.47,0.556 -0.981,0.753 -1.509,0.785 -0.604,0.179 -1.208,0.051 -1.811,-0.121 -0.85,0.05 -1.193,0.464 -1.302,0.955 0.246,-0.105 0.473,-0.01 0.755,-0.076 -0.117,0.104 -0.217,0.239 -0.294,0.416 0.281,-0.086 0.539,0.091 0.841,-0.148 l 0.008,10e-4 c -0.115,0.139 -0.198,0.317 -0.233,0.548 0.349,-0.198 0.924,-0.148 1.498,-0.215 0.353,-0.04 0.629,-0.125 0.983,-0.136 0.413,-0.013 0.78,-0.161 1.125,-0.379 0.864,-0.419 1.534,-0.96 2.879,-1.132 0.682,0.422 1.467,0.45 2.326,0.204 0.155,-0.044 0.312,-0.098 0.47,-0.159 0.79,-0.263 1.534,-0.313 2.362,-0.336 1.054,-0.029 1.711,-0.014 1.261,0.94 -0.08,0.528 -0.496,0.799 -1.208,0.845 -1.902,-0.197 -3.252,-0.07 -3.196,1.061 0.234,-0.151 0.491,-0.054 0.781,-0.216 l 0.01,10e-4 c -0.136,0.223 -0.187,0.519 -0.13,0.905 0.33,-0.407 0.706,-0.306 1.026,-0.543 l 0.006,0 z"
       id="path3127"
       style="fill:#ffffff;stroke:none" />
    <path
       d="m 287.011,405.428 c -2.787,-0.972 -4.345,-3.216 -5.561,-6.346 -0.94,-0.536 -1.864,-1.621 -2.43,-2.397 -0.843,0.09 -2.067,0.203 -3.158,0.032 -0.574,0.153 -1.148,0.153 -1.59,-0.044 -0.752,-0.158 -1.155,-0.521 -1.208,-1.087 -0.266,-0.349 -0.43,-0.668 0.121,-0.785 0.955,-0.14 1.881,-0.542 2.777,-1.207 2.834,-2.103 6.912,-3.095 9.419,1.328 1.112,0.617 2.068,1.327 2.596,2.294 1.086,-0.112 2.242,0.013 3.502,0.483 1.318,-0.567 2.741,-0.978 4.292,-1.021 1.379,-0.124 3.508,-1.387 4.878,-1.844 4.332,-1.447 8.592,-2.158 12.446,1.296 3.615,2.489 6.902,6.048 10.445,9.581 1.498,1.494 3.058,1.052 4.468,-0.464 -0.173,3.314 -3.831,3.757 -6.658,2.186 -1.24,-0.689 -2.508,-1.774 -3.686,-3.018 -1.821,-1.925 -2.848,-4.888 -4.388,-6.836 0.872,2.333 0.626,4.216 -0.966,5.554 -0.338,0.807 -0.331,1.587 1.022,1.616 1.135,0.023 2.403,-0.031 2.309,0.81 -0.051,0.468 -0.555,0.984 -0.995,1.471 -0.265,0.292 -0.499,0.577 -0.646,0.813 -0.307,0.495 -0.751,0.905 -1.57,1.087 -0.87,0.503 -2.191,0.431 -2.475,0.675 -0.043,-0.487 0.198,-0.778 0.566,-0.967 0.268,-0.137 0.603,-0.125 0.943,-0.312 m -1.328,0.604 c -0.32,0.237 -0.696,0.136 -1.026,0.543 -0.085,-0.574 0.067,-0.95 0.389,-1.183 0.302,-0.22 0.754,-0.11 1.301,-0.326 m -1.57,0.603 c -0.29,0.162 -0.547,0.065 -0.781,0.216 -0.056,-1.131 1.294,-1.258 3.196,-1.061 0.712,-0.046 1.128,-0.317 1.208,-0.845 0.45,-0.954 -0.207,-0.969 -1.261,-0.94 -0.828,0.023 -1.572,0.073 -2.362,0.336 -0.158,0.061 -0.315,0.115 -0.47,0.159 -2.043,0.585 -3.678,-0.384 -4.481,-4.506 -0.148,-0.999 -0.853,-1.923 -1.503,-2.266 m 3.659,6.568 c -1.346,0.171 -2.015,0.713 -2.88,1.132 -0.345,0.218 -0.712,0.366 -1.125,0.379 -0.354,0.011 -0.63,0.096 -0.983,0.136 -0.574,0.067 -1.149,0.017 -1.498,0.215 0.137,-0.895 0.98,-0.998 1.674,-1.153 m -1.449,0.604 c -0.302,0.239 -0.56,0.062 -0.841,0.148 0.315,-0.732 1.029,-0.747 1.746,-0.812 m -9.298,-4.468 c 0.171,0.587 0.604,1.087 0.906,1.63 0.458,0.842 0.442,1.697 -2.898,2.657 -1.568,0.516 -3.074,1.125 -4.408,1.992 -0.561,0.296 -1.13,0.534 -1.751,0.362 -0.262,0.021 -0.48,0.084 -0.741,0.17 0.118,-0.765 0.883,-1.176 1.531,-1.08 m -1.263,0.543 -0.949,0.302 c 0.021,-0.594 0.352,-0.867 1.181,-1.082 m -4.046,-3.804 c -0.086,0.321 -0.348,0.583 -0.785,0.785 -0.124,0.298 -0.074,0.64 -0.147,0.941 -0.14,0.575 -0.33,1.066 -0.221,1.249 -0.437,-0.04 -0.78,-0.427 -0.769,-0.946 0.005,-0.235 0.148,-0.512 0.171,-0.821 m -0.181,1.087 -0.362,0.691 c -0.27,-0.25 -0.384,-0.504 -0.399,-0.766 -0.02,-0.336 0.189,-0.661 0.305,-1.045 m -0.297,0.834 -0.515,0.615 c -0.244,-0.137 -0.332,-0.567 -0.244,-1.026 0.097,-0.509 1.09,-1.062 1.573,-1.598 0.31,-0.592 0.857,-0.894 1.69,-0.845 1.445,0.012 2.766,-0.225 3.744,-1.147 m 21.253,-0.302 c -2.354,-0.358 -4.411,0.298 -6.34,1.63 -1.731,1.196 -3.543,2.209 -5.313,1.932 m 7.163,1.894 c -0.302,0.088 -0.538,-0.022 -0.797,0.088 0.109,-0.491 0.452,-0.905 1.302,-0.955 0.603,0.172 1.207,0.3 1.811,0.121 0.528,-0.032 1.039,-0.229 1.509,-0.785 0.533,-0.333 0.513,-0.696 -0.06,-1.087 -1.266,-0.773 -2.155,-1.529 -1.789,-2.827 m -27.796,-6.471 c -0.262,0.15 -0.545,0.22 -0.785,0.12 m 2.596,0.363 c -0.233,0.385 -0.747,0.745 -1.388,0.839 m 7.305,-0.296 c -0.545,0.469 -1.437,0.545 -2.623,0.314 m 21.159,4.516 c -0.733,0.442 -1.029,1.344 -2.002,1.982 m -21.666,-9.348 c 0.463,0.364 0.948,0.634 1.432,0.676 m 1.251,10.015 c 0.772,-0.186 1.638,-0.229 2.641,-0.066 1.128,0.279 2.256,0.246 3.384,0 m -2.641,3.957 -0.917,0.263 c 0.076,-0.712 0.58,-1.171 1.68,-1.203 0.483,-0.014 0.967,0.121 1.441,0.022 1.613,-0.338 2.387,-1.486 2.445,-2.973 m -5.946,-10.932 c 0.432,-0.215 0.475,-1.105 0.468,-1.857 0.506,0.472 0.784,1.094 0.625,1.566 l -0.127,0.049 c 0.02,-0.347 -0.251,-0.607 -0.536,-0.736"
       id="path3129"
       style="fill:none;stroke:#000000;stroke-width:0.3591691;stroke-miterlimit:4;stroke-dasharray:none" />
    <path
       d="m 325.241,407.338 c -0.992,-0.059 -1.609,-0.952 -1.701,-1.627 1.498,1.493 3.058,1.052 4.468,-0.464 -0.173,3.314 -3.832,3.756 -6.658,2.186 1.326,0.289 2.63,0.349 3.891,-0.095 z"
       id="path3131"
       style="fill:#000000;stroke:none" />
    <path
       d="m 277.373,394.434 c -0.646,0.427 -0.997,-0.071 -0.688,-0.38 l 0.688,0.38 z m 4.271,-1.767 c 0.036,-0.296 0.042,-0.624 0.039,-0.93 0.506,0.472 0.784,1.094 0.625,1.566 l -0.127,0.049 c 0.02,-0.347 -0.251,-0.607 -0.536,-0.736"
       id="path3133"
       style="fill:#000000;stroke:#000000;stroke-width:0.21600001" />
  </g>
  <g
     transform="matrix(4.1763057,0,0,4.1763057,-993.48019,-1458.0305)"
     id="g3135"
     style="fill-rule:evenodd">
    <path
       d="m 296.75,426.969 c -0.286,0.111 -0.581,0.222 -0.889,0.329 -6.398,2.225 -12.619,1.976 -18.432,-3.984 -1.31,-0.164 -2.38,-0.402 -3.244,-0.744 -0.473,0.079 -1.014,0.225 -1.419,0.439 0.046,-0.338 0.156,-0.647 0.349,-0.912 l -0.079,-10e-4 c -0.461,-0.046 -0.966,-0.205 -1.35,-0.644 l -0.006,-0.019 c -0.063,0.006 -0.127,0.01 -0.191,0.013 -0.993,0.043 -2.351,-0.169 -2.811,-0.67 l -0.056,-0.034 c -0.44,0.023 -0.874,0.01 -1.308,-0.048 -0.697,-0.094 -1.361,-0.276 -1.983,-0.562 l -0.271,-0.123 c -1.459,0.13 -2.749,0.054 -3.682,-0.562 -0.624,-0.412 -0.73,-0.716 0.506,-0.736 4.375,-0.07 8.748,-0.963 13.112,-1.896 2.17,-0.463 4.336,-0.925 6.489,0.948 1.074,0.935 2.219,1.862 3.784,2.641 1.253,-0.177 2.51,-0.069 3.751,0.202 l 0.001,0.001 c 0.792,-0.533 1.573,-1.137 2.331,-1.794 2.331,-2.018 5.111,-2.867 8.854,-1.795 4.937,1.415 9.793,2.352 14.464,2.167 0.63,-0.025 1.011,0.032 1.146,0.194 0.772,0.926 -2.42,1.218 -2.753,1.251 -0.629,0.061 -1.375,0.05 -2.187,-0.014 -0.706,0.782 -1.959,1.499 -3.776,0.971 l -0.27,-0.034 0,10e-4 c -1.22,0.788 -2.349,0.71 -4.464,0.509 -0.276,-0.025 -0.549,-0.055 -0.817,-0.09 l -0.094,0.089 c -0.869,0.596 -1.913,0.814 -3.063,0.727 -0.702,0.545 -1.7,0.636 -2.811,0.466 l 0.808,0.326 c 0.062,-0.059 0.117,-0.125 0.167,-0.199 2.02,0.73 4.558,0.693 6.372,1.033 1.993,0.373 3.907,0.662 5.321,1.269 -2.246,0.343 -4.173,1.059 -5.88,2.031 -1.66,-0.39 -4.009,-0.747 -5.619,-0.746 z"
       id="path3137"
       style="fill:#ffffff;stroke:none" />
    <path
       d="m 285.134,422.57 c 2.095,-0.685 4.233,-2.038 6.218,-3.757 2.331,-2.018 5.111,-2.867 8.854,-1.795 4.937,1.415 9.793,2.352 14.464,2.167 0.63,-0.025 1.011,0.032 1.146,0.194 0.772,0.926 -2.42,1.218 -2.753,1.251 -3.92,0.382 -12.321,-2.078 -13.701,-2.089 m 3.075,7.481 c -2.707,-0.547 -4.266,0.475 -6.576,1.276 -6.398,2.225 -12.619,1.976 -18.432,-3.984 -1.31,-0.164 -2.38,-0.402 -3.244,-0.744 -0.473,0.079 -1.014,0.225 -1.419,0.439 0.163,-1.192 1.111,-2.037 3.785,-1.793 1.326,-1.456 2.741,-3.132 6.42,-1.286 0.763,0.382 1.272,0.66 1.893,0.541 1.387,-0.266 2.782,-0.165 4.156,0.135 m -3.615,-0.135 c -1.635,-0.793 -2.815,-1.746 -3.92,-2.708 -2.153,-1.873 -4.319,-1.411 -6.489,-0.948 -4.364,0.933 -8.737,1.826 -13.112,1.896 -1.236,0.02 -1.13,0.324 -0.506,0.736 1.211,0.799 3.024,0.689 5.027,0.4 2.834,-0.409 6.006,-1.227 7.78,-1.678 2.122,-0.539 3.665,-0.45 4.866,0.271 m -13.72,1.692 c 0.622,0.286 1.286,0.468 1.983,0.562 2.737,0.369 5.529,-1.104 9.372,-1.848 m -8.008,1.93 c 0.46,0.501 1.818,0.713 2.811,0.67 1.452,-0.064 2.831,-0.941 4.994,-1.516 m -4.797,1.522 c 0.384,0.439 0.889,0.598 1.35,0.644 m 4.461,-0.542 0.676,0.88 -0.375,0.579 m 10.648,-0.376 c 3.845,-0.213 4.773,-4.687 9.699,-4.164 m -1.451,8.496 c 1.611,-0.009 3.996,0.352 5.675,0.746 1.707,-0.972 3.634,-1.688 5.88,-2.031 -1.414,-0.607 -3.328,-0.896 -5.321,-1.269 -1.814,-0.34 -4.352,-0.303 -6.372,-1.033 -0.598,0.879 -2.062,0.653 -3.649,0.271 m 4.393,-4.062 c 1.708,0.187 6.511,1.61 9.8,1.996 1.825,0.53 3.081,-0.195 3.785,-0.981 m -15.545,-0.203 c 2.095,0.74 4.392,1.417 7.026,1.66 2.115,0.201 3.244,0.279 4.464,-0.509 m -13.046,-0.339 c 2.925,1.622 5.731,2.177 7.671,0.847 m -9.021,0.237 c 2.23,0.924 4.649,1.533 5.979,0.474 m -19.632,-1.32 c 0.526,-0.759 1.348,-0.973 2.501,-0.374 m -7.178,1.482 c 0.975,-0.718 2.824,0.113 4.034,-0.134 m 1.226,-0.922 c 0.306,-0.231 0.902,-0.249 1.348,0.144 m -1.019,-0.273 c -0.062,0.618 0.564,0.646 0.66,0.043"
       id="path3139"
       style="fill:none;stroke:#000000;stroke-width:0.3591691;stroke-miterlimit:4;stroke-dasharray:none" />
  </g>
  <path
     d="m 308.62093,373.16679 c -31.47682,0 -57.03163,25.55064 -57.03163,57.02745 0,31.481 25.55481,57.03163 57.03163,57.03163 31.48099,0 57.03163,-25.55063 57.03163,-57.03163 0,-31.47681 -25.55064,-57.02745 -57.03163,-57.02745 z"
     id="path3143"
     style="fill:#009933;fill-rule:evenodd;stroke:none" />
  <path
     d="m 308.38106,381.57533 -0.49001,0.34564 -3.13787,3.23709 -2.10572,0.80873 -3.48877,1.25489 0.22339,3.21776 0.0513,2.85157 -2.68799,2.00928 1.32569,3.1079 -0.50415,2.6001 -1.57105,2.44508 -2.4878,2.10815 1.0315,2.8186 -0.22583,2.61841 -1.25245,2.53296 1.56007,2.87476 -2.8186,2.18628 0.68115,2.51343 -0.18067,2.4646 -0.41626,2.4768 2.33399,2.53662 -2.47559,2.00439 2.21314,2.65991 0.15869,2.66358 -2.3523,2.80396 2.09228,2.57567 -1.10717,2.80397 1.78832,2.52807 1.10474,2.55738 -1.20116,2.88086 0.28564,2.67821 -0.10625,2.76002 0.93383,2.53173 0.70069,2.55371 1.62231,2.23755 -0.46631,2.86378 2.02393,1.93359 -0.53223,2.948 3.24708,0.99121 -0.27467,2.84301 0.88013,2.2229 3.125,0.061 0.25635,1.10351 -0.1025,-2.18138 -2.19971,-2.12159 1.30127,-3.08105 -0.4602,-2.57813 -1.51979,-2.5708 -0.96678,-2.61108 -0.28932,-2.84181 0.33692,-2.74047 -0.65063,-2.69165 0.6079,-2.88575 0.32228,-2.60864 -1.64918,-2.50122 -1.14746,-2.60498 -0.25879,-2.70386 1.57838,-2.80395 -1.21217,-2.41455 0.13062,-2.47925 -0.2893,-2.48901 1.61742,-2.0044 -0.55054,-2.60741 -0.67748,-2.63917 2.0166,-2.57202 -2.61719,-2.76734 1.44165,-2.59399 1.073,-2.59887 -0.105,-2.68555 0.93629,-2.59521 -1.60645,-2.86865 1.7334,-2.49024 -0.57984,-2.77344 1.44044,-2.47192 -0.76539,-2.80518 0.0159,-2.6709 1.56494,-2.31567 -0.68848,-2.76612 1.59302,-2.13012 1.4856,-1.09682 0.17456,-2.56958 1.80606,-0.36124 m -0.15203,-0.88745 1.32316,-0.26263 2.33775,3.81478 2.50976,0.54629 2.30102,1.92016 1.96901,2.20704 -0.60182,3.14209 2.53297,2.10205 0.44556,2.64648 0.92407,2.58667 0.61768,2.73437 -0.43701,2.69654 0.28197,2.58422 -0.21729,2.68799 1.5625,2.49268 0.88868,2.6416 -2.56958,2.6587 2.92114,2.24365 -0.77881,2.52318 -2.04711,2.54639 0.43335,2.45972 -0.37843,2.00683 0.47486,2.65991 0.0415,2.67213 0.3833,2.7002 0.92285,2.76366 0.23683,2.74781 -0.45166,2.69043 -0.4834,2.677 -1.99952,2.42797 -0.62988,2.59523 -0.50415,2.60008 0.9375,2.92603 0.17212,2.79297 -0.80566,2.52808 -2.86865,1.76025 -0.85084,2.32666 0.005,2.66968 -0.1294,2.68311 -3.22387,0.67871 0.2002,2.93456 -2.05202,1.49782 -2.3291,0.26977 2.6294,-2.07397 -1.61498,-3.39234 2.55492,-1.99341 1.09498,-2.48413 -0.061,-2.91504 -0.75805,-2.89917 2.03735,-2.55249 -1.26588,-2.86865 1.46485,-2.58057 0.39916,-2.7893 0.1709,-2.57813 1.30738,-2.53662 0.35279,-2.66358 -2.20825,-2.83202 0.3601,-2.40235 1.53442,-2.39868 -0.14649,-2.47925 -1.82006,-2.50732 1.34765,-2.07398 -0.70434,-3.01636 -1.03637,-2.57934 -0.15625,-2.60499 2.21678,-2.7478 -1.64672,-2.55981 -0.69824,-2.60742 1.58081,-2.81739 -1.98242,-2.48779 -0.51758,-2.62207 1.95434,-2.94799 -2.8894,-2.28516 0.97656,-2.83692 1.26709,-2.92115 -2.17895,-2.26073 -1.93848,-2.20582 2.23022,-3.1372 -1.60887,-2.13745 -0.75807,-1.36293 -1.29761,-2.1936 -1.1802,-0.62065 m -0.13169,-0.65474 3.46178,0.14964 2.80372,-2.43502 2.76956,-1.38308 2.74437,1.56339 2.9602,-1.06568 1.95579,1.41765 3.04787,0.62703 2.73194,0.31616 1.9751,1.90553 1.94946,1.86523 2.41699,1.25854 1.7981,2.10816 2.39624,1.50024 1.70166,1.84326 0.78125,2.66602 2.6416,1.11695 1.2793,2.26928 1.88964,1.85913 0.98755,2.47802 0.82763,2.54518 1.62598,2.09839 1.4441,2.229 1.53442,2.2229 -0.84961,3.17016 3.61084,1.51124 0.7666,2.57201 -0.30884,2.4878 1.4624,2.0398 -0.0696,2.68676 -1.87989,2.48291 1.86646,2.04957 -0.007,2.07152 0.62011,2.7478 -2.4353,2.4878 -0.0428,2.6001 -0.41992,2.53051 -0.69824,2.76978 -1.19629,2.58422 -0.2478,2.88453 -0.96436,2.63916 0.26124,3.28735 -1.39405,2.51099 -3.08228,1.36962 -1.3501,2.4231 -1.16455,2.22047 -1.25366,2.63305 -1.44653,2.1045 -3.27637,0.094 -1.37085,2.16308 -1.12915,2.63184 -3.29101,-0.42602 -2.00928,1.3623 -2.4707,0.52246 -1.698,2.03247 -1.5918,2.58179 -2.36695,0.92408 -3.1433,-1.55397 -2.21802,1.17067 -2.10938,0.78002 3.02369,-0.21851 3.07006,-0.21728 1.18775,-3.91723 2.97363,0.0366 2.70142,-0.67504 2.01415,-1.73096 1.44777,-2.37671 2.03857,-1.6626 0.98633,-2.68554 3.6731,-0.3003 -0.64577,-3.90991 1.99952,-1.77368 1.6272,-2.0874 1.5625,-2.16797 0.15015,-2.89673 2.18872,-1.92261 2.34863,-2.00928 -1.15845,-2.95287 0.88257,-2.23389 2.5122,-1.90919 0.2649,-2.49633 -2.15699,-2.80395 0.81665,-2.34742 1.62843,-2.38891 -0.1294,-2.13501 -1.45751,-2.7124 1.88597,-3.0481 -0.94726,-2.82471 -0.27588,-2.65259 -1.8811,-2.24488 0.19898,-2.89793 -2.41578,-1.99585 -1.4502,-2.32423 0.1416,-3.1189 -0.90331,-2.70874 -3.042,-1.48193 -0.29174,-3.14819 -2.05688,-1.5979 -1.34522,-2.08619 -1.72486,-1.78955 -2.02147,-1.50024 -0.79835,-2.6355 -1.75659,-2.27051 -3.00538,-0.27831 -2.04223,-1.79688 -1.45995,-2.06055 -1.73707,-2.41455 -2.77466,-0.57007 -2.07275,-1.09009 -2.94311,1.5753 -2.18087,-1.7694 -2.45872,0.0478 -2.07193,-0.50125 -1.88232,-0.21829 m -0.15243,2.32883 4.50228,-3.80994 0.96639,2.10336 1.55661,1.79223 3.32376,-0.46105 2.45118,1.20605 2.25341,1.61011 0.97901,3.04565 1.78589,2.07643 1.52344,1.9812 0.96191,2.43164 3.48755,0.75806 0.0269,3.10424 0.64331,2.65503 1.0315,2.4414 2.49877,1.84693 1.59668,2.0166 -0.95336,2.94677 0.69336,2.33522 1.54296,2.12768 1.17676,2.2876 1.4624,2.29004 0.2356,2.54516 -1.04615,2.66968 -0.072,2.19605 1.1316,2.13501 -0.91186,2.18994 -0.21851,2.61475 -1.1084,2.53051 0.26977,2.59765 -0.1709,2.56349 2.0166,2.96996 -3.18968,1.97633 1.22192,2.92602 -0.41871,2.56104 -2.41943,1.85912 0.47852,2.86622 -0.7251,2.44018 -3.31177,1.50879 -0.40771,2.91626 -1.8689,2.05078 -1.84692,1.55396 -0.77027,2.77954 -1.18652,2.55005 -1.41846,2.43896 -2.14355,1.10595 -1.9043,1.32691 -2.90649,0.15625 -1.83473,1.22803 -2.45848,-0.40528 -2.52442,1.20607 3.9624,0.36986 2.0813,-1.9458 1.60889,-2.13135 2.02393,-1.80541 0.59447,-3.01148 1.91285,-1.76025 2.72949,-1.46362 -0.52001,-3.33863 1.35863,-2.36572 1.14624,-2.229 2.48291,-1.82374 -0.56641,-2.93823 2.19239,-2.12525 0.18799,-2.73315 -0.55664,-2.5708 0.47607,-2.35351 -0.52856,-2.51954 1.68213,-2.24487 0.37475,-2.44995 -2.06054,-2.6001 1.781,-2.40723 -0.71778,-1.87377 -0.32958,-2.56104 0.78613,-2.64526 -0.0195,-2.63306 -1.13158,-2.47437 -1.07057,-2.43652 0.0476,-2.68676 -0.71168,-2.52442 0.79347,-3.042 -1.41114,-2.34496 -2.32178,-1.92139 -0.48706,-2.66601 -0.40527,-2.76124 -1.82983,-2.03125 -0.9607,-2.5 -2.54882,-1.4624 0.16235,-3.2959 -2.55982,-1.30492 -2.9541,-1.22193 -0.60058,-2.81372 -1.71509,-1.38246 -2.1521,-1.13525 -1.84089,0.29428 -3.06955,-1.88148 m -0.31776,0.23591 -3.11843,-1.82013 -1.07113,-0.88 -2.64338,-1.03213 -1.64048,1.15196 -2.12062,-1.46177 -1.60086,0.60638 -2.43774,2.11793 -2.3169,0.73241 -2.81127,-0.35766 -2.30713,1.18408 -2.77832,0.46997 -1.23413,3.00293 -2.1106,1.60523 -3.6731,-0.10138 -1.40014,2.66358 -0.98388,2.54395 -1.10353,2.35961 -3.25317,0.61524 -1.09742,2.43286 -2.33642,1.56494 -0.78125,2.64526 -1.03393,2.45118 -0.105,2.9187 -3.12011,1.38672 -0.61401,2.64648 -2.052,2.05567 -0.87403,2.54516 0.89722,2.71118 -1.86158,1.875 -0.78857,2.53296 -0.45654,2.26074 2.052,2.5232 -2.59034,2.01171 0.76416,2.20581 0.83008,2.66358 0.38452,2.60865 -1.38793,2.83569 2.33886,2.23998 -0.15869,2.99562 0.36255,2.91015 0.48463,2.90771 2.14843,2.20581 1.57714,2.35351 2.19605,1.92994 -0.21119,3.42041 1.70778,2.24365 2.73559,0.9668 0.98022,2.80762 2.594,0.87158 1.64063,1.77979 0.52978,3.2019 3.59253,-0.66529 0.38696,3.76954 3.2605,-0.55176 2.46215,0.53467 1.07179,3.35205 2.55981,0.40283 2.69653,-0.12818 2.1045,1.48317 2.14965,1.6333 2.35962,-0.45045 -2.73071,-0.79712 -2.10694,-2.1582 -2.77099,-0.73242 -2.00562,-1.57105 -2.58423,-0.75439 -1.83105,-1.84692 -2.948,-0.60182 -1.49902,-2.26562 -2.1521,-1.62841 0.37841,-3.73535 -1.81151,-1.84693 -2.34498,-1.56127 -1.88476,-1.97023 0.10625,-3.08105 -2.66601,-1.6687 -1.53809,-2.31201 -0.62134,-2.69898 0.91797,-2.82592 -2.63672,-1.78711 -0.69946,-2.38525 1.48804,-2.78199 -0.33081,-2.40356 -0.66163,-2.3938 0.33814,-2.48779 -2.47803,-2.01173 1.26587,-2.83568 -0.0379,-2.89552 -0.0574,-2.65258 2.44262,-2.17042 -0.0379,-2.70507 -0.2649,-2.8894 1.04615,-2.5354 0.55053,-2.7649 2.24975,-2.03125 2.0813,-2.03613 -0.71777,-3.6023 4.09424,-0.76905 -0.41015,-3.63281 2.8247,-0.97167 0.57983,-2.65625 1.6919,-1.78712 0.98023,-2.46703 2.19482,-1.79322 2.18994,-1.74193 2.19604,-1.11085 2.77222,-0.70923 2.34863,-0.49439 1.6272,-2.47925 2.53419,-0.61888 2.03978,-0.0433 2.146,-0.52003 2.50174,-0.40661 2.51054,1.11587 2.93701,0.022 m 0.70683,0.10563 -2.29698,-0.67024 -4.27906,1.94032 -3.19824,-1.40504 -2.21802,0.65371 -2.34985,1.29394 -1.7395,2.17407 -2.62208,1.17676 -1.6809,2.28882 -2.49146,1.27074 -1.73461,2.01906 -0.23927,3.05786 -1.35742,2.27538 -1.45996,2.26074 -1.99707,2.06422 -1.52588,2.37671 0.77148,2.96386 -0.59692,2.38648 -1.77124,2.0398 0.78248,2.78686 -2.24122,2.02881 -0.0354,2.56103 0.84472,2.65991 -1.3147,2.34375 0.23804,2.21436 -0.116,2.17163 -1.99951,2.15698 1.40381,2.64283 1.8164,2.5061 -1.61132,2.7478 1.4685,2.42431 -0.24414,2.64528 1.41724,2.30956 -1.22559,2.93212 0.6897,2.48048 2.21801,1.92627 -0.9729,3.06763 2.50123,1.65405 1.80297,2.21557 0.98633,2.59278 1.78467,2.08251 1.72974,2.03248 0.0549,2.97241 1.48194,2.33399 3.10669,0.57251 1.55151,1.64795 0.83008,2.77954 3.27515,-0.42603 1.41357,2.13623 2.1521,0.67748 3.32031,-0.73486 -3.75366,-0.0818 -0.90697,-3.22875 -3.25197,-0.18555 -0.33202,-3.2312 -2.6062,-1.36963 -2.24,-1.5979 0.19776,-3.15308 -0.96436,-2.45482 -0.96679,-2.49879 -1.18652,-2.16675 -1.46607,-2.14355 0.20508,-2.73926 -3.20923,-1.8103 -0.3357,-2.677 0.33325,-2.51099 -0.1831,-2.3999 0.19165,-2.4585 -1.36597,-2.28394 -1.40625,-2.36327 2.72584,-2.6477 -2.37183,-2.08497 0.79345,-2.13135 0.80811,-2.57202 -1.27197,-2.69775 -0.5603,-2.73804 2.26562,-2.33887 0.32959,-2.60132 0.61768,-2.55371 1.19018,-2.39257 -0.006,-2.76124 0.95825,-2.4707 0.69214,-2.58179 0.77759,-2.56714 0.36376,-2.80761 3.35816,-1.21094 0.42724,-2.77222 0.55176,-2.77344 2.02759,-1.78589 3.17261,-0.76781 -0.63477,-3.8379 3.87451,-0.24414 0.85816,-1.70717 2.67823,-0.9082 2.21676,-0.68553 2.7029,-0.28439 z"
     id="path3541"
     style="fill:#ffe600;fill-opacity:1;fill-rule:nonzero;stroke:none" />
</svg>
