<?xml version="1.0" encoding="UTF-8" standalone="no"?>
<!-- Created with Inkscape (http://www.inkscape.org/) -->

<svg
   xmlns:dc="http://purl.org/dc/elements/1.1/"
   xmlns:cc="http://creativecommons.org/ns#"
   xmlns:rdf="http://www.w3.org/1999/02/22-rdf-syntax-ns#"
   xmlns:svg="http://www.w3.org/2000/svg"
   xmlns="http://www.w3.org/2000/svg"
   version="1.1"
   width="600"
   height="400"
   viewBox="0 0 600 400"
   id="Layer_1"
   xml:space="preserve"><defs
   id="defs191"><style
     type="text/css"
     id="style3005-1" /><style
     type="text/css"
     id="style6-7" /><style
     type="text/css"
     id="style3005" /><style
     type="text/css"
     id="style6" /></defs><metadata
   id="metadata382"><rdf:RDF><cc:Work
       rdf:about=""><dc:format>image/svg+xml</dc:format><dc:type
         rdf:resource="http://purl.org/dc/dcmitype/StillImage" /><dc:title></dc:title></cc:Work></rdf:RDF></metadata>

<g
   transform="translate(140.70918,-28.592442)"
   id="g3948"><rect
     width="600"
     height="400"
     x="-140.70918"
     y="28.592442"
     id="rect3938"
     style="fill:#ffffff;fill-opacity:1;stroke:none" /><rect
     width="400"
     height="400"
     x="59.290833"
     y="28.592442"
     id="rect3946"
     style="fill:#005bbb;fill-opacity:1;stroke:none" /><rect
     width="200"
     height="400"
     x="259.29083"
     y="28.592442"
     id="rect3944"
     style="fill:#ffd500;fill-opacity:1;stroke:none" /></g><g
   transform="translate(140.70918,-46.811192)"
   id="g4066" /><g
   transform="translate(141.95689,-24.276335)"
   id="g4090"><path
     d="m 119.875,183.20655 -14.21875,14.21875 0,15 13,-13 1.21875,-1.375 0,-14.84375 z m -30.875,0.0625 0,14.71875 2.125,2.40625 12.0625,12.03125 0,-15 L 89,183.26905 z m 14,88.0625 0,26.84375 3.5,0 0,-26.8125 -0.84375,0.84375 -0.90625,0.875 -0.875,-0.875 -0.875,-0.875 z m 16.875,-31.875 -14.21875,14.21875 0,15 13,-13 1.21875,-1.375 0,-14.84375 z m -30.875,-0.625 0,14.71875 2.125,2.40625 12.0625,12.03125 0,-15 L 89,238.83155 z m 30.875,-55.625 -0.5,0.5 0.5,0 0,-0.5 z m -30.875,0 0,0.5 0.5,0 -0.5,-0.5 z m 15.4375,-8.375 -10.15625,10.15625 0.34375,0.34375 1.625,-1.625 3.09375,0 0,-3.09375 3.34375,-3.3125 0,6.40625 3.5,0 0,-6.4375 3.34375,3.34375 0,3.09375 3.09375,0 1.625,1.59375 0.3125,-0.3125 -10.125,-10.15625 z M 89,151.09375 l 0,8.34375 0,20.28125 3.5,3.5 0,-0.6875 0,-23.09375 0,-8.34375 -3.5,0 z m 6.84375,0 0,8.34375 0,19.75 0,0.6875 3.5,-3.46875 0,-0.6875 0,-16.28125 0,-8.34375 -3.5,0 z m 6.84375,0 0,8.34375 0,12.9375 0,0.6875 0.875,-0.875 0.875,-0.875 0.875,0.875 0.875,0.875 0,-0.71875 0,-12.90625 0,-8.34375 -3.5,0 z m 6.84375,0 0,8.34375 0,16.25 0,0.71875 3.5,3.5 0,-0.71875 0,-19.75 0,-8.34375 -3.5,0 z m 6.84375,0 0,8.34375 0,23.09375 0,0.65625 3.5,-3.5 0,-20.25 0,-8.34375 -3.5,0 z m -11.65625,136.64405 0.0312,0.0625 0.0625,-0.0625 -0.0937,0 z m 15.15625,-67.4375 -14.21875,14.1875 0,15.03125 14.21875,-14.25 0,-14.96875 z m -30.875,0 0,15 14.1875,14.1875 0,-15.03125 L 89,220.3003 z m 30.875,-18.53125 -14.21875,14.1875 0,15 14.21875,-14.21875 0,-14.96875 z m -30.875,0 0,15 14.1875,14.15625 0,-15 L 89,201.76905 z m 15.4375,-26.9375 -10.15625,10.15625 10.15625,10.125 10.125,-10.125 -10.125,-10.15625 z"
     id="path4026"
     style="fill:#ffd500;fill-opacity:1;stroke:none" /><path
     d="m 173.48061,174.08392 -14.21875,14.21875 0,15 13,-13 1.21875,-1.375 0,-14.84375 z m -30.875,0.0625 0,14.71875 2.125,2.40625 12.0625,12.03125 0,-15 -14.1875,-14.15625 z m 14,106.3125 0,26.84375 3.5,0 0,-26.8125 -0.84375,0.84375 -0.90625,0.875 -0.875,-0.875 -0.875,-0.875 z m 16.875,-106.34375 -0.5,0.5 0.5,0 0,-0.5 z m -30.875,0 0,0.5 0.5,0 -0.5,-0.5 z m 15.4375,-8.375 -10.15625,10.15625 0.34375,0.34375 1.625,-1.625 3.09375,0 0,-3.09375 3.34375,-3.3125 0,6.40625 3.5,0 0,-6.4375 3.34375,3.34375 0,3.09375 3.09375,0 1.625,1.59375 0.3125,-0.3125 -10.125,-10.15625 z m -15.4375,-24.49017 0,6.21875 0,23.15625 3.5,3.5 0,-0.6875 0,-25.96875 0,-6.21875 -3.5,0 z m 6.84375,0 0,6.21875 0,22.625 0,0.6875 3.5,-3.46875 0,-0.6875 0,-19.15625 0,-6.21875 -3.5,0 z m 6.84375,0 0,6.21875 0,15.8125 0,0.6875 0.875,-0.875 0.875,-0.875 0.875,0.875 0.875,0.875 0,-0.71875 0,-15.78125 0,-6.21875 -3.5,0 z m 6.84375,0 0,6.21875 0,19.125 0,0.71875 3.5,3.5 0,-0.71875 0,-22.625 0,-6.21875 -3.5,0 z m 6.84375,0 0,6.21875 0,25.96875 0,0.65625 3.5,-3.5 0,-23.125 0,-6.21875 -3.5,0 z m -11.65625,137.39642 0.0312,0.0625 0.0625,-0.0625 -0.0937,0 z m 15.15625,-30.0625 -14.21875,14.21875 0,15 13,-13 1.21875,-1.375 0,-14.84375 z m -30.875,-0.625 0,14.71875 2.125,2.40625 12.0625,12.03125 0,-15 -14.1875,-14.15625 z m 30.875,-18.21875 -14.21875,14.1875 0,15.34375 14.21875,-14.25 0,-15.28125 z m -30.875,0 0,14.6875 14.1875,14.15625 0,-14.6875 -14.1875,-14.15625 z m 30.875,-18.53125 -14.21875,14.1875 0,15.03125 14.21875,-14.25 0,-14.96875 z m -30.875,0 0,15 14.1875,14.1875 0,-15.03125 -14.1875,-14.15625 z m 30.875,-18.53125 -14.21875,14.1875 0,15 14.21875,-14.21875 0,-14.96875 z m -30.875,0 0,15 14.1875,14.15625 0,-15 -14.1875,-14.15625 z m 15.4375,-26.9375 -10.15625,10.15625 10.15625,10.125 10.125,-10.125 -10.125,-10.15625 z"
     id="path4064"
     style="fill:#ffd500;fill-opacity:1;stroke:none" /><path
     d="m 227.08623,183.20655 -14.21875,14.21875 0,15 13,-13 1.21875,-1.375 0,-14.84375 z m -30.875,0.0625 0,14.71875 2.125,2.40625 12.0625,12.03125 0,-15 -14.1875,-14.15625 z m 14,88.0625 0,26.84375 3.5,0 0,-26.8125 -0.84375,0.84375 -0.90625,0.875 -0.875,-0.875 -0.875,-0.875 z m 16.875,-31.875 -14.21875,14.21875 0,15 13,-13 1.21875,-1.375 0,-14.84375 z m -30.875,-0.625 0,14.71875 2.125,2.40625 12.0625,12.03125 0,-15 -14.1875,-14.15625 z m 30.875,-55.625 -0.5,0.5 0.5,0 0,-0.5 z m -30.875,0 0,0.5 0.5,0 -0.5,-0.5 z m 15.4375,-8.375 -10.15625,10.15625 0.34375,0.34375 1.625,-1.625 3.09375,0 0,-3.09375 3.34375,-3.3125 0,6.40625 3.5,0 0,-6.4375 3.34375,3.34375 0,3.09375 3.09375,0 1.625,1.59375 0.3125,-0.3125 -10.125,-10.15625 z m -15.4375,-23.7378 0,8.34375 0,20.28125 3.5,3.5 0,-0.6875 0,-23.09375 0,-8.34375 -3.5,0 z m 6.84375,0 0,8.34375 0,19.75 0,0.6875 3.5,-3.46875 0,-0.6875 0,-16.28125 0,-8.34375 -3.5,0 z m 6.84375,0 0,8.34375 0,12.9375 0,0.6875 0.875,-0.875 0.875,-0.875 0.875,0.875 0.875,0.875 0,-0.71875 0,-12.90625 0,-8.34375 -3.5,0 z m 6.84375,0 0,8.34375 0,16.25 0,0.71875 3.5,3.5 0,-0.71875 0,-19.75 0,-8.34375 -3.5,0 z m 6.84375,0 0,8.34375 0,23.09375 0,0.65625 3.5,-3.5 0,-20.25 0,-8.34375 -3.5,0 z m -11.65625,136.64405 0.0312,0.0625 0.0625,-0.0625 -0.0937,0 z m 15.15625,-67.4375 -14.21875,14.1875 0,15.03125 14.21875,-14.25 0,-14.96875 z m -30.875,0 0,15 14.1875,14.1875 0,-15.03125 -14.1875,-14.15625 z m 30.875,-18.53125 -14.21875,14.1875 0,15 14.21875,-14.21875 0,-14.96875 z m -30.875,0 0,15 14.1875,14.15625 0,-15 -14.1875,-14.15625 z m 15.4375,-26.9375 -10.15625,10.15625 10.15625,10.125 10.125,-10.125 -10.125,-10.15625 z"
     id="path4088"
     style="fill:#ffd500;fill-opacity:1;stroke:none" /></g></svg>